<svg width="39" height="38" viewBox="0 0 39 38" fill="none" xmlns="http://www.w3.org/2000/svg">
<circle cx="19.3809" cy="19" r="19" fill="black"/>
<path d="M24.4623 19.2101C24.3125 19.8091 24.1358 20.4291 24.3784 21.061C24.2077 21.3755 24.3215 21.7169 24.2976 22.0464C24.2676 22.4237 24.3395 22.8071 24.3844 23.1875C24.3904 23.2354 24.5012 23.2923 24.5641 23.3013C24.6749 23.3162 24.7378 23.2893 24.6869 23.46C24.627 23.6697 24.606 23.9122 24.645 24.1249C24.7378 24.6131 24.7827 24.6161 25.1901 24.2986C25.247 24.2537 25.3248 24.2357 25.3907 24.2058C25.3638 24.2746 25.3308 24.3375 25.3099 24.4064C25.2949 24.4513 25.2769 24.5052 25.2829 24.5532C25.2979 24.652 25.3009 24.7988 25.3578 24.8317C25.4626 24.8886 25.6663 24.9305 25.7232 24.8736C25.9867 24.6041 26.2982 24.4124 26.3162 23.9212C26.3671 22.7981 26.5797 21.681 26.6516 20.5549C26.7085 19.6833 26.7834 18.8058 26.8792 17.9373C27.002 16.8561 27.0799 15.7659 27.2895 14.6877C27.4303 13.954 27.3884 13.1813 27.4183 12.4265C27.4183 12.3666 27.3824 12.3067 27.3644 12.2468C27.3015 12.2918 27.2446 12.3367 27.1757 12.3756C27.1128 12.4146 27.0439 12.4415 26.9781 12.4715C27.002 12.4056 27.0469 12.3427 27.0469 12.2768C27.0469 12.0731 26.9811 11.8814 27.0649 11.6598C27.1428 11.4442 27.008 11.2495 26.7415 11.2345C26.5767 11.2256 26.4689 11.1417 26.5228 10.9979C26.6546 10.6385 26.2982 10.6835 26.1664 10.5577C26.0257 10.4289 25.834 10.345 25.6543 10.2612C25.4836 10.1803 25.3099 10.1564 25.1601 10.3241C25.0164 10.4798 24.8606 10.6236 24.7079 10.7763C24.4922 10.9979 24.2377 11.0069 23.9352 11.0459C22.9229 11.1716 21.8986 11.1537 20.8863 11.3274C19.9758 11.4831 19.0384 11.4921 18.1129 11.573C17.8614 11.5969 17.6128 11.6538 17.3612 11.6838C16.5526 11.7856 15.7439 11.9114 14.9293 11.9653C14.492 11.9953 14.2105 12.1989 13.9529 12.5044C13.8661 12.6032 13.7613 12.6901 13.6774 12.7919C13.6624 12.8069 13.7103 12.9207 13.7343 12.9207C13.8661 12.9327 14.0009 12.9417 14.1326 12.9237C14.3213 12.8968 14.3363 12.9896 14.3243 13.1393C14.3153 13.2442 14.3632 13.3759 14.3153 13.4538C14.1746 13.6904 14.1386 13.8342 14.492 13.8402C14.5519 13.8402 14.6388 13.909 14.6717 13.966C14.7137 14.0378 14.7496 14.1576 14.7137 14.2175C14.6508 14.3283 14.522 14.4032 14.4441 14.505C14.3603 14.6189 14.1147 14.6847 14.2435 14.8674C14.3573 15.0232 14.4771 15.2388 14.7436 15.1879C14.9652 15.146 15.1929 15.11 15.4145 15.0741C15.4624 15.0681 15.5133 15.0771 15.5612 15.0831C15.5493 15.131 15.5463 15.1879 15.5163 15.2238C15.4474 15.3047 15.3666 15.3736 15.2917 15.4485C15.127 15.6252 15.2468 15.6252 15.4025 15.6371C15.6271 15.6581 15.8607 15.7659 16.0704 15.736C16.888 15.6132 17.7026 15.4455 18.5173 15.2957C19.305 15.149 20.0956 14.9932 20.8833 14.8465C21.045 14.8165 21.2097 14.8075 21.5122 14.9303C21.5781 14.9962 21.5003 14.9243 21.4284 14.8465C21.4074 14.8255 21.4104 14.7506 21.4284 14.7387C21.5422 14.6608 22.0633 14.7686 22.1472 14.9004C22.1831 14.9603 22.1711 15.0921 22.1262 15.149C22.0603 15.2388 21.9735 15.3916 21.8207 15.2388C21.7638 15.1819 21.7069 15.125 21.5122 14.9303C20.6976 15.3736 20.3322 16.2301 19.6164 16.7722C19.4337 17.3203 18.8916 17.5809 18.6071 18.0331C18.2118 18.6621 17.5918 19.0903 17.1965 19.6833C16.8131 20.2584 16.2531 20.6567 15.8847 21.2108C15.5013 21.7798 14.9772 22.2081 14.5819 22.7472C14.3213 23.0976 13.9949 23.4061 13.7852 23.7715C13.5576 24.1608 13.1982 24.4304 12.9796 24.7928C12.6951 25.269 12.3027 25.6673 12.0451 26.1585C11.9882 26.2633 11.9463 26.4011 11.9553 26.5179C11.9912 26.8773 11.8505 27.2456 12.0362 27.5991C12.0661 27.659 11.9194 27.7997 11.8714 27.9075C11.7427 28.204 11.8445 28.3718 12.1979 28.3837C12.4794 28.3957 12.4375 28.4676 12.2907 28.6263C12.2698 28.6473 12.3417 28.809 12.3746 28.812C12.6262 28.83 12.8748 28.9168 13.1084 28.7012C14.0039 27.8596 14.9353 27.06 15.8158 26.2034C17.0917 24.9635 18.3496 23.6996 19.5925 22.4267C20.6916 21.3036 21.638 20.0338 22.8181 18.9795C23.0876 18.3985 23.5818 18.0062 24.007 17.5569C24.0879 17.4761 24.0789 17.3233 24.1418 17.2185C24.1748 17.1616 24.2706 17.1077 24.3275 17.1167C24.3814 17.1226 24.4653 17.2185 24.4623 17.2694C24.4503 17.4731 24.4024 17.6707 24.3814 17.8714C24.3545 18.1499 24.3065 18.4075 24.5372 18.6681C24.7199 18.8747 24.3664 18.7309 24.3605 18.8148C24.3515 18.9376 24.3904 19.0664 24.4353 19.2131C24.4443 19.2221 24.4264 19.2042 24.4114 19.1892C24.4503 19.1682 24.4892 19.1413 24.5312 19.1353C24.5432 19.1353 24.5641 19.1922 24.5821 19.2221C24.5431 19.2251 24.5012 19.2311 24.4383 19.2101H24.4623ZM17.5439 23.3672C16.7742 24.1369 16.0045 24.9066 15.2348 25.6763C15.1599 25.7511 15.085 25.826 15.0072 25.8979C14.9922 25.9129 14.9383 25.9069 14.9323 25.9009C14.9173 25.862 14.8964 25.7991 14.9143 25.7811C15.0401 25.6433 15.1779 25.5175 15.3067 25.3828C16.3759 24.1938 17.6697 23.2234 18.5981 21.8936C18.9875 21.3366 19.5416 20.8903 20.0507 20.4231C20.5688 19.9469 20.9582 19.3659 21.4134 18.8388C22.1801 17.9523 22.9918 17.0987 23.7794 16.2331C23.8333 16.1792 23.9262 16.1103 23.9202 16.0564C23.8932 15.7599 24.1628 15.6701 24.3006 15.4964C24.3365 15.4485 24.4263 15.4425 24.4922 15.4185C24.4623 15.4844 24.4353 15.5533 24.3964 15.6162C24.2856 15.7989 24.5731 16.1523 24.1868 16.1912C23.7585 16.2361 23.9951 16.5386 23.9262 16.7213C23.9172 16.7483 23.8423 16.7692 23.8124 16.7573C23.462 16.6165 23.4979 16.9699 23.3721 17.1017C22.872 17.6258 22.3928 18.1649 21.9255 18.722C20.7964 20.0667 19.5416 21.3036 18.3346 22.5825C18.077 22.852 17.8075 23.1096 17.5469 23.3702L17.5439 23.3672ZM12.8418 27.7997C12.8688 27.8087 12.9227 27.8327 12.9826 27.8566C12.9646 27.8985 12.9586 27.9644 12.9257 27.9854C12.8807 28.0124 12.8149 28.0064 12.755 28.0124C12.7729 27.9704 12.7909 27.9225 12.8388 27.8027L12.8418 27.7997ZM24.5252 16.9849C24.5132 16.9489 24.5042 16.91 24.4922 16.8741C24.5162 16.8741 24.5551 16.8651 24.5641 16.8741C24.5851 16.907 24.5911 16.9489 24.603 16.9849C24.5791 16.9849 24.5551 16.9849 24.5252 16.9849Z" fill="#FCEE21"/>
</svg>
