<svg width="48" height="49" viewBox="0 0 48 49" fill="none" xmlns="http://www.w3.org/2000/svg">
<circle cx="24" cy="24.9443" r="24" fill="white"/>
<path d="M24 13C17.384 13 12 18.384 12 25C12 31.616 17.384 37 24 37C30.616 37 36 31.616 36 25C36 18.384 30.616 13 24 13ZM24 15C29.535 15 34 19.465 34 25C34.0024 27.394 33.144 29.709 31.5813 31.5226C30.0187 33.3362 27.856 34.5275 25.488 34.879V27.916H28.336L28.783 25.023H25.488V23.443C25.488 22.243 25.883 21.176 27.006 21.176H28.811V18.652C28.494 18.609 27.823 18.516 26.555 18.516C23.907 18.516 22.355 19.914 22.355 23.1V25.023H19.633V27.916H22.355V34.854C20.0198 34.4696 17.8972 33.2675 16.3667 31.4623C14.8361 29.6572 13.9973 27.3667 14 25C14 19.465 18.465 15 24 15Z" fill="black"/>
</svg>
