<svg width="516" height="324" viewBox="0 0 516 324" fill="none" xmlns="http://www.w3.org/2000/svg">
<path d="M206.294 172.151C203.014 170.054 200.617 167.035 198.641 163.845C197.788 162.481 196.805 161.337 195.711 160.344C192.552 157.495 190.134 154.235 187.967 150.172C187.315 148.938 187.215 147.835 187.175 146.491C185.55 146.4 184.988 144.906 184.657 143.822C183.844 141.124 182.48 138.566 182.039 135.817C181.577 132.918 179.722 130.701 178.829 128.003C178.257 126.267 179.3 124.903 178.588 123.198C177.043 119.486 177.575 115.414 177.635 111.471C177.675 109.054 176.211 107.098 176.572 104.379C177.103 104.048 177.043 102.674 176.682 101.741C173.442 93.174 175.659 84.2763 174.997 75.5691C176.17 72.5095 176.18 69.2092 177.083 66.0493C178.106 62.428 179.962 59.0173 180.183 55.1854C180.283 53.48 181.567 53.3095 182.711 52.7979C182.781 52.1358 182.861 51.4537 182.891 51.0926C184.848 49.4073 186.553 47.9427 186.282 45.2844C188.83 44.2713 189.632 41.5829 191.147 39.697C192.371 38.1823 193.876 36.8983 194.979 35.0224V33.6882C197.688 31.4914 199.604 28.7729 201.69 26.1246C203.636 23.6468 206.325 21.761 208.722 19.5741C208.572 19.4036 208.321 19.1027 208.06 18.8117C208.241 18.6713 208.411 18.4506 208.632 18.3603C209.555 17.9892 210.949 19.1628 211.481 17.4776C212.183 17.3572 212.333 18.0895 212.845 18.3403C213.106 17.7585 213.367 17.1766 213.617 16.6149C214.109 16.6149 214.53 16.6149 214.952 16.6149C214.881 17.0362 215.072 17.297 215.463 17.3873C215.533 17.4074 215.734 17.1967 215.714 17.1365C215.624 16.7353 215.363 16.5447 214.942 16.6249C215.202 15.2205 217.229 15.7923 217.419 14.3578C217.209 14.097 216.968 13.8061 216.737 13.5252C217.399 12.8431 218.162 13.3045 218.854 13.144C219.676 12.492 219.255 11.5691 219.255 10.7766C219.265 9.74341 220.078 9.42241 220.629 8.8406C221.632 9.79357 220.78 10.3353 220.208 10.9271C220.389 11.4387 221.171 11.5791 221.031 12.2813C220.609 12.2111 220.348 12.4017 220.258 12.7929C220.238 12.8632 220.449 13.0638 220.509 13.0437C220.91 12.9534 221.101 12.6926 221.021 12.2713C222.274 12.0306 222.806 10.877 223.579 10.0945C225.063 8.57978 226.698 7.38606 228.865 6.77414C228.554 6.39295 228.313 6.10204 228.022 5.75094C231.042 1.99922 235.696 2.20989 239.589 0.89578C240.632 1.6381 239.719 2.71145 240.371 3.37352C241.184 3.90518 241.625 3.32336 242.207 2.90205C242.367 2.78167 242.959 3.25314 243.29 3.43371C243.892 2.99233 243.29 2.15973 244.083 1.91898C244.323 2.13967 244.634 2.42055 244.704 2.48073C246.881 2.25001 247.764 -0.568803 249.971 0.103296C250.914 0.574769 250.182 1.45753 250.974 1.70832C252.409 1.00612 253.733 -0.388238 255.849 0.323987C255.488 0.765366 255.247 1.05627 254.997 1.35721C255.157 1.50768 255.348 1.82869 255.498 1.81866C257.274 1.6381 259.15 2.38042 260.815 1.00613C261.688 0.293901 262.761 1.26694 263.654 1.44751C267.405 2.16976 271.157 1.6682 274.899 1.80864C275.822 1.84876 276.544 2.02933 277.196 2.78168C279.202 1.41741 281.6 2.29013 283.706 1.74843C285.893 1.18668 287.879 2.29013 289.896 1.79859C292.223 3.7848 292.233 3.55408 295.453 3.69452C296.887 3.7547 298.583 3.69453 299.917 4.70769C303.388 7.34593 307.27 9.20172 311.403 10.5158C312.607 10.897 312.978 12.1911 313.991 12.6625C318.074 14.5685 320.883 18.1296 324.504 20.6274C327.965 23.0048 331.094 25.8939 334.094 28.7428C336.802 31.3208 340.363 33.3171 341.848 37.0888C343.423 37.4299 344.245 38.6437 345.259 39.6669C344.877 40.0481 344.667 40.2587 344.466 40.4594C347.375 41.5428 348.007 44.2412 349.121 46.8092C350.445 47.2105 351.568 48.1634 352.18 49.6982C351.605 50.4138 351.588 51.2497 352.13 52.2061C352.13 51.233 352.13 50.4305 352.18 49.6982C353.725 51.3133 354.989 53.0387 352.973 55.5465C353.896 56.2788 354.899 57.0813 355.611 57.643C355.852 58.7365 355.39 59.1076 354.899 59.549C355.149 59.8399 355.591 60.1208 355.601 60.4117C355.661 62.6487 356.113 64.6349 357.346 66.6612C358.661 68.828 357.998 71.7471 359.152 74.1346C359.463 74.7866 358.982 75.4186 358.5 76.0205C358.079 76.5521 358.249 76.6825 359.082 78.6286C359.042 79.2104 358.169 79.3007 358.42 80.3038C359.393 82.4205 361.249 84.7176 359.242 87.6167C358.841 88.1985 359.182 89.312 359.182 90.1747C359.182 92.201 359.022 94.2374 359.232 96.2436C359.403 97.9088 358.049 99.5239 359.182 101.169C358.008 105.342 357.778 109.726 356.273 113.849C355.35 116.367 354.909 119.065 353.163 121.362C353.123 126.608 351.418 131.393 348.278 135.717C347.977 136.138 347.857 136.7 347.656 137.192C345.098 143.2 341.547 148.597 337.956 154.024C336.762 155.83 335.508 157.666 334.104 159.21C333.091 160.324 333.642 162.29 332.659 162.44C330.924 162.721 331.275 164.316 330.332 165.049C329.439 165.751 328.908 166.995 328.697 168.108C326.189 169.803 323.661 171.408 321.244 173.164C317.672 175.762 314.222 178.531 310.62 181.079C309.557 181.831 308.454 182.784 306.909 182.573C304.963 182.312 304.17 185.061 302.064 184.489C301.211 185.693 299.947 184.981 298.874 185.181C298.192 187.328 295.503 187.418 294.761 189.334C293.056 189.876 291.17 188.853 289.856 190.408C288.682 190.167 287.759 188.743 286.375 189.756C286.274 190.137 286.174 190.528 286.044 191.07C284.549 191.591 283.135 191.321 281.81 190.388C278.6 192.364 274.979 190.297 271.679 191.421C271.167 191.933 270.656 192.444 270.144 192.956C267.596 192.715 265.329 194.38 262.701 193.919C261.216 193.658 259.671 193.237 258.287 193.166C256.461 193.066 256.08 190.879 254.234 191.22C252.629 191.511 251.295 190.699 250.162 189.585C249.65 189.736 249.52 190.538 248.817 190.388C248.717 190.147 248.667 189.736 248.526 189.696C248.005 189.575 247.925 189.966 247.955 190.388C246.289 189.896 245.106 188.131 243.24 188.692C242.397 188.01 242.959 187.218 242.588 186.415C241.836 186.034 240.903 185.563 239.94 185.081C239.558 185.392 239.247 185.653 238.726 186.074C238.385 185.553 238.024 184.971 237.532 184.218C235.014 184.981 232.948 183.336 230.58 183.446C230.51 182.142 229.497 182.704 228.845 182.573C227.962 181.44 226.849 180.768 225.364 180.838C225.264 180.597 225.214 180.186 225.073 180.146C224.552 180.025 224.471 180.417 224.501 180.838C223.95 180.687 223.799 181.209 223.227 181.57C221.261 180.086 219.255 178.39 216.657 177.738C215.764 177.507 213.497 175.07 212.815 173.926C211.922 175.02 211.029 175.07 210.157 173.926C209.856 174.197 209.555 174.468 209.183 174.799C208.632 173.395 206.836 173.485 206.264 172.151C206.686 172.221 206.947 172.03 207.037 171.639C207.057 171.569 206.846 171.368 206.786 171.388C206.385 171.479 206.194 171.739 206.275 172.161L206.294 172.151ZM209.775 113.939C209.705 114.36 209.896 114.621 210.287 114.711C210.357 114.731 210.558 114.521 210.538 114.461C210.448 114.059 210.187 113.869 209.755 113.939C209.826 113.518 209.635 113.257 209.244 113.166C209.174 113.146 208.973 113.357 208.993 113.417C209.083 113.819 209.344 114.009 209.775 113.939ZM207.167 113.066C207.097 113.488 207.288 113.748 207.679 113.839C207.749 113.859 207.95 113.648 207.93 113.588C207.839 113.187 207.579 112.996 207.147 113.066C207.217 112.645 207.027 112.384 206.636 112.294C206.565 112.274 206.365 112.484 206.385 112.545C206.475 112.946 206.736 113.136 207.167 113.066ZM271.468 59.1778C271.889 59.2481 272.15 59.0575 272.241 58.6662C272.261 58.596 272.05 58.3954 271.99 58.4155C271.589 58.5057 271.398 58.7666 271.468 59.1879C271.227 59.2882 270.816 59.3383 270.776 59.4788C270.656 60.0004 271.047 60.0807 271.468 60.0506C271.568 60.6023 271.217 60.9333 270.776 60.9032C266.212 60.4919 261.818 61.9966 257.244 61.9264C254.214 61.8863 251.125 63.0299 248.135 63.9026C246.621 64.344 245.347 65.7684 243.842 66.0292C241.926 66.3603 240.461 67.1227 239.177 68.4468C237.191 67.8449 236.98 70.5032 235.345 70.5433C234.804 72.4995 232.627 71.8675 231.423 73.0612C229.266 75.1879 226.799 77.1239 223.739 77.7759C223.599 78.2474 223.89 78.749 223.308 79.07C222.706 79.1402 222.014 79.2104 221.382 79.2907C220.088 82.1095 217.058 83.0524 215.433 85.3095H213.938C212.333 87.3659 210.407 88.7803 208.642 90.1345C205.733 92.3615 202.693 94.2875 201.048 97.7584C200.817 98.2399 199.935 98.4004 199.353 98.7113C199.564 98.922 199.774 99.1327 199.975 99.3333C198.871 100.407 201.259 101.992 199.453 102.975C199.443 102.975 199.523 103.165 199.563 103.256C200.486 103.958 200.206 105.422 201.399 106.004C203.095 106.827 204.73 107.77 206.355 108.713C207.99 109.666 210.026 109.936 211.471 110.97C215.032 113.518 219.696 114.42 222.375 118.252C225.444 119.707 228.113 121.844 231.092 123.419C234.041 124.973 237.151 126.267 240.281 127.411C242.437 128.193 244.323 130.039 246.5 130.049C248.165 130.049 249.229 130.792 250.172 131.153C251.957 131.303 253.442 131.193 254.766 131.584C259.28 132.918 263.754 134.313 268.569 133.921C270.004 133.801 271.458 133.921 272.913 133.901C274.156 133.891 275.33 133.42 276.494 133.179C279.955 132.457 282.994 130.22 286.676 130.43C287.869 129.116 290.187 129.829 291.029 128.545C292.153 126.849 294.049 127.261 295.393 126.257C296.135 125.706 297.339 125.676 298.352 125.034C299.787 124.131 301.341 123.118 302.987 122.676C305.896 121.904 308.143 119.727 311.082 119.145C314.061 118.553 316.017 115.845 319.077 115.363C320.09 115.203 319.859 113.668 320.642 113.056C321.053 113.036 321.404 112.976 321.815 112.735C324.484 111.2 326.61 108.803 329.168 107.368C332.218 105.653 334.425 103.235 336.963 101.069C339.049 99.2831 340.494 97.1866 341.025 94.3778C339.33 93.9364 337.825 92.7327 337.264 91.3383C336.371 89.1314 334.375 88.4091 332.82 87.2455C331.335 86.122 329.76 84.9684 328.075 84.0957C324.985 82.5007 322.076 80.4844 318.575 79.7722C318.264 79.3308 318.585 78.6186 317.973 78.3277C317.672 78.5985 317.371 78.8694 317.061 79.1402C316.248 77.6255 314.192 74.9672 313.038 74.265C311.313 73.2217 309.597 71.8073 307.711 71.4763C305.304 71.0449 303.458 69.8211 301.422 68.7578C299.185 67.6042 296.938 66.5408 295.483 64.4142C293.617 64.6549 292.373 63.4713 290.979 62.739C290.678 62.9897 290.387 63.2305 290.066 63.4913C289.825 62.9095 289.625 62.4079 289.414 61.9064C288.873 61.7158 288.371 61.6556 288.04 62.2474C288.301 62.5484 288.552 62.8493 288.782 63.1202C288.461 63.6619 287.99 63.4813 287.709 63.5114C286.756 63.2205 287.438 62.107 286.766 61.8462C285.572 61.2443 285.362 62.9095 284.368 62.6988C283.275 62.3879 283.034 60.7528 281.55 60.9233C281.098 60.8832 281.068 61.8763 280.376 61.5753C280.195 61.0437 280.015 60.5421 279.844 60.0606C279.343 60.0907 278.881 59.87 278.44 60.5321C278.289 60.7628 278.6 61.465 277.958 61.7459C277.166 60.7628 275.491 60.7126 275.41 59.0976C274.508 59.4086 273.364 58.596 273.204 60.0405H271.468C271.468 59.7496 271.468 59.4587 271.468 59.1678V59.1778ZM260.504 190.859C258.026 189.896 258.307 190.909 258.628 191.792C259.14 191.541 259.721 191.25 260.504 190.859ZM273.244 8.34906C272.331 7.66692 271.468 7.66692 270.555 8.34906C271.468 9.03119 272.331 9.03119 273.244 8.34906ZM311.874 21.8813C312.436 21.0889 312.687 20.5371 311.744 20.176C311.273 20.6876 311.302 21.1691 311.874 21.8813ZM269.291 7.91772C268.89 8.19859 268.89 8.4895 269.291 8.78041C269.693 8.49953 269.693 8.20862 269.291 7.91772ZM275.812 8.34906C276.093 8.75031 276.383 8.75031 276.664 8.34906C276.383 7.9478 276.093 7.9478 275.812 8.34906ZM308.815 18.7817C308.534 18.3804 308.243 18.3804 307.962 18.7817C308.243 19.1829 308.534 19.1829 308.815 18.7817ZM211.501 19.6544C211.782 20.0556 212.073 20.0556 212.353 19.6544C212.073 19.2531 211.782 19.2531 211.501 19.6544ZM320.551 27.0374C320.953 26.7566 320.953 26.4657 320.551 26.1747C320.15 26.4556 320.15 26.7465 320.551 27.0374ZM323.16 29.6456C323.561 29.3647 323.561 29.0738 323.16 28.7829C322.758 29.0638 322.758 29.3547 323.16 29.6456ZM262.33 60.0606C262.731 59.7797 262.731 59.4888 262.33 59.1979C261.928 59.4788 261.928 59.7697 262.33 60.0606ZM245.818 62.6688C246.219 62.3879 246.219 62.097 245.818 61.8061C245.417 62.0869 245.417 62.3778 245.818 62.6688ZM217.58 81.3571C217.861 81.7584 218.152 81.7584 218.432 81.3571C218.152 80.9559 217.861 80.9559 217.58 81.3571ZM200.627 93.0838C201.028 92.8029 201.028 92.512 200.627 92.2211C200.226 92.502 200.226 92.7928 200.627 93.0838ZM341.397 101.781C340.995 102.062 340.995 102.353 341.397 102.644C341.798 102.363 341.798 102.072 341.397 101.781ZM199.323 110.027C199.604 110.428 199.894 110.428 200.175 110.027C199.894 109.625 199.604 109.625 199.323 110.027ZM316.619 122.195C316.338 121.793 316.047 121.793 315.766 122.195C316.047 122.596 316.338 122.596 316.619 122.195ZM185.851 128.705C186.252 128.424 186.252 128.133 185.851 127.842C185.449 128.123 185.449 128.414 185.851 128.705ZM233.199 130.009C232.918 129.608 232.627 129.608 232.346 130.009C232.627 130.41 232.918 130.41 233.199 130.009ZM260.133 136.961C259.852 136.56 259.561 136.56 259.28 136.961C259.561 137.362 259.852 137.362 260.133 136.961Z" fill="#D8CB03"/>
<path d="M239.965 187.158C240.697 187.017 241.078 186.947 241.409 186.887C241.981 187.318 242.031 187.81 241.62 188.773C241.078 188.251 240.637 187.82 239.965 187.168V187.158Z" fill="#D8CB03"/>
<path d="M278.459 0.504527C277.777 1.1666 277.296 0.986021 276.754 0.745269C277.145 -0.29799 277.707 -0.0371652 278.459 0.504527Z" fill="#D8CB03"/>
<path d="M230.62 183.446C230.68 184.259 230.129 184.359 229.537 184.299C229.105 184.249 228.784 183.978 228.875 183.446H230.61H230.62Z" fill="#D8CB03"/>
<path d="M280.164 0.524573C280.445 0.123319 280.736 0.123319 281.017 0.524573C280.736 0.925826 280.445 0.925826 280.164 0.524573Z" fill="#D8CB03"/>
<path d="M224.973 6.18213C225.374 6.46301 225.374 6.75392 224.973 7.04482C224.572 6.76395 224.572 6.47304 224.973 6.18213Z" fill="#D8CB03"/>
<path d="M217.16 11.3988C217.562 11.6797 217.562 11.9706 217.16 12.2615C216.759 11.9806 216.759 11.6897 217.16 11.3988Z" fill="#D8CB03"/>
<path d="M211.51 16.6052C211.44 16.1839 211.631 15.923 212.022 15.8328C212.092 15.8127 212.293 16.0234 212.273 16.0835C212.183 16.4848 211.922 16.6754 211.5 16.5951L211.51 16.6052Z" fill="#D8CB03"/>
<path d="M211.512 16.6047V17.4775C211.091 17.5076 210.71 17.4173 210.82 16.9057C210.85 16.7652 211.272 16.705 211.512 16.6148V16.6047Z" fill="#D8CB03"/>
<path d="M186.301 45.2742C185.88 45.3444 185.619 45.1538 185.529 44.7626C185.509 44.6923 185.719 44.4917 185.779 44.5118C186.181 44.6021 186.371 44.8629 186.291 45.2842L186.301 45.2742Z" fill="#D8CB03"/>
<path d="M225.413 180.837V181.71C224.811 181.73 224.52 181.439 224.54 180.837H225.413Z" fill="#D8CB03"/>
<path d="M225.414 181.71C225.836 181.64 226.096 181.831 226.187 182.222C226.207 182.292 225.996 182.493 225.936 182.473C225.535 182.382 225.344 182.122 225.424 181.7L225.414 181.71Z" fill="#D8CB03"/>
<path d="M228.883 183.446C228.462 183.476 228.081 183.386 228.191 182.874C228.221 182.734 228.643 182.674 228.883 182.583V183.456V183.446Z" fill="#D8CB03"/>
<path d="M231.93 185.182C231.529 184.901 231.529 184.61 231.93 184.319C232.331 184.6 232.331 184.891 231.93 185.182Z" fill="#D8CB03"/>
<path d="M236.719 186.486C237 186.084 237.291 186.084 237.571 186.486C237.291 186.887 237 186.887 236.719 186.486Z" fill="#D8CB03"/>
<path d="M248.878 190.398C248.908 190.819 248.818 191.2 248.306 191.09C248.166 191.06 248.106 190.638 248.016 190.398H248.888H248.878Z" fill="#D8CB03"/>
<path d="M241.928 81.7782C241.376 81.8785 241.175 81.5374 241.055 81.096C241.265 78.7186 244.425 78.8691 244.867 76.622H246.331C247.284 76.3512 246.953 75.5989 247.234 75.2076C248.438 73.5926 250.434 73.1211 252.099 72.3186C254.126 71.3355 256.483 71.0446 258.71 70.5029C259.462 70.3224 260.124 70.5832 260.506 71.3957C261.178 70.7638 261.79 70.192 262.542 69.4797C264.869 71.797 268.34 69.0985 270.567 71.5061C271.239 71.0647 271.701 70.7738 272.102 70.513C272.864 70.3625 273.155 70.9343 273.586 71.3155C274.489 70.2622 275.392 70.1719 276.275 71.3456C276.947 70.3023 277.93 70.4127 278.993 70.5932C279.575 71.7167 279.645 72.7399 278.361 73.5023C279.495 74.6459 281.371 73.1713 282.254 74.7763C283.267 74.3851 283.538 72.8001 284.972 73.1311C285.875 74.034 285.263 74.6459 284.501 75.2076C288.744 77.4547 292.837 79.812 296.739 83.6741C297.591 85.3393 298.805 87.7268 300.159 90.375C300.159 92.0703 299.899 94.1468 300.23 96.1129C300.571 98.0791 298.855 99.5135 299.397 101.51C299.808 101.65 300.31 101.831 300.922 102.041V105.813C300.661 106.255 300.2 106.104 299.598 106.144C298.534 111.832 295.214 115.965 290.329 119.045C287.319 120.94 284.34 122.937 281.622 125.214C279.966 126.608 277.85 126.628 276.175 127.752C276.094 127.812 275.583 127.23 275.362 127.04C274.239 126.628 273.968 128.153 272.844 127.802C272.634 127.631 272.313 127.371 271.982 127.09C271.4 127.26 271.099 128.193 270.206 127.832C269.925 127.571 269.614 127.28 269.313 126.999C269.012 127.27 268.711 127.541 268.43 127.802C268.089 127.501 267.768 127.23 267.548 127.04C266.605 126.638 266.364 127.702 265.682 127.702C265.491 127.19 265.311 126.698 265.13 126.207C264.067 126.337 264.919 127.541 264.147 127.802C260.967 126.337 257.516 127.28 254.206 126.919C254.306 126.026 255.319 125.756 254.958 124.903C254.206 124.492 253.343 124.923 252.47 124.461C251.678 124.04 250.494 124.371 249.772 124.371C243.081 120.298 239.821 113.708 235.869 107.157C236.14 105.382 235.177 103.075 236.721 101.038C235.538 99.975 236.771 98.9117 236.721 97.8584C236.41 92.4415 238.637 87.7769 241.065 83.1725C241.316 82.691 242.058 82.5205 241.938 81.7982C242.539 81.8183 242.83 81.5374 242.81 80.9255C243.232 80.9957 243.492 80.8051 243.583 80.4139C243.603 80.3437 243.392 80.1431 243.332 80.1631C242.931 80.2534 242.74 80.5142 242.82 80.9355C242.218 80.9155 241.928 81.2064 241.948 81.8083L241.928 81.7782ZM249.752 118.282C249.682 118.703 249.872 118.964 250.264 119.055C250.334 119.075 250.534 118.864 250.514 118.804C250.424 118.403 250.163 118.212 249.742 118.282V116.196C248.939 115.403 248.338 114.33 247.144 113.939C247.234 110.257 243.292 109.093 242.299 106.124C241.687 106.104 241.085 106.064 241.035 107.318C242.539 109.314 245.388 110.809 245.569 113.939H247.134C247.114 115.925 248.739 116.908 249.742 118.292L249.752 118.282ZM262.793 90.9468C259.813 86.212 257.747 84.3763 251.487 88.3487C251.337 89.0107 251.788 89.7832 251.106 90.4252C250.815 90.1844 250.524 89.9336 250.234 89.6829C248.297 92.9029 248.749 95.9825 250.996 98.8916C252.621 100.968 255.41 99.2427 256.995 100.477C259.713 100.396 260.365 97.4973 262.582 97.096C263.324 95.5712 264.207 94.1067 263.405 92.3913C262.903 92.2208 262.402 92.0502 261.82 91.8596C262.121 91.5788 262.331 91.3882 262.793 90.9468ZM299.718 102.643C299.317 102.924 299.317 103.215 299.718 103.506C300.119 103.225 300.119 102.934 299.718 102.643ZM258.439 121.322C258.158 120.92 257.867 120.92 257.586 121.322C257.867 121.723 258.158 121.723 258.439 121.322Z" fill="#D8CB03"/>
<path d="M282.332 73.0912C282.052 73.0912 281.69 73.2015 281.51 73.0711C281.018 72.7 280.607 72.2285 280.105 71.7369C281.109 71.2153 281.871 71.1852 282.633 71.6467C282.894 72.1984 282.834 72.6899 282.342 73.0912H282.332Z" fill="#D8CB03"/>
<path d="M273.211 60.0607C273.632 59.9905 273.893 60.1811 273.984 60.5723C274.004 60.6425 273.793 60.8432 273.733 60.8231C273.332 60.7328 273.141 60.472 273.221 60.0507L273.211 60.0607Z" fill="#D8CB03"/>
<path d="M236.7 91.7697C236.419 92.1709 236.129 92.1709 235.848 91.7697C236.129 91.3684 236.419 91.3684 236.7 91.7697Z" fill="#D8CB03"/>
<path d="M257.556 89.1618C257.275 89.563 256.984 89.563 256.703 89.1618C256.984 88.7605 257.275 88.7605 257.556 89.1618Z" fill="#D8CB03"/>
<path d="M255.828 93.5048C256.109 93.1035 256.4 93.1035 256.681 93.5048C256.4 93.9061 256.109 93.9061 255.828 93.5048Z" fill="#D8CB03"/>
<path d="M261.036 93.5048C260.755 93.9061 260.464 93.9061 260.184 93.5048C260.464 93.1035 260.755 93.1035 261.036 93.5048Z" fill="#D8CB03"/>
<g clip-path="url(#clip0_628_3014)">
<path d="M54.7969 393.634C54.9283 391.573 55.1748 389.495 55.1912 387.434C55.3555 374.233 57.2615 361.212 58.7403 348.142C59.9069 337.902 60.8435 327.629 61.7143 317.356C62.7331 305.316 63.9818 293.293 66.1179 281.401C66.9887 276.559 67.8267 271.7 68.714 266.858C68.8947 265.877 69.1576 264.912 69.5026 263.963C70.127 262.278 70.5049 262.163 72.2959 262.638C77.2252 263.914 82.1217 265.353 87.1167 266.351C95.5458 268.02 104.074 268.69 112.716 268.249C119.371 267.905 125.976 267.3 132.499 265.975C132.795 265.909 133.107 265.844 133.419 265.828C134.882 265.762 135.407 266.188 135.473 267.643C135.506 268.723 135.44 269.803 135.358 270.866C133.912 290.218 132.664 309.569 133.584 329.003C133.929 336.151 133.732 343.332 134.192 350.465C134.816 360.132 135.785 369.784 136.689 379.435C137.133 384.179 137.774 388.906 138.332 393.65H54.8133L54.7969 393.634Z" fill="black"/>
<path d="M472.952 243.188C477.815 243.45 481.496 247.327 481.217 252.07C481.069 254.557 479.935 256.569 477.75 257.698C475.778 258.712 473.675 259.562 471.539 260.086C468.023 260.953 464.523 261.82 461.187 263.276C460.004 263.799 458.706 264.143 457.425 264.306C456.044 264.47 455.502 263.652 455.847 262.262C457.014 257.485 459.166 253.199 462.304 249.404C464.095 247.228 466.215 245.445 468.811 244.366C470.142 243.81 471.588 243.564 472.985 243.172L472.952 243.188Z" fill="black"/>
<path d="M258.446 246.263C255.143 246.312 252.53 243.94 252.481 240.832C252.432 237.528 255.472 234.371 258.725 234.355C261.765 234.338 264.295 237.185 264.394 240.734C264.476 243.613 261.682 246.214 258.446 246.263Z" fill="black"/>
<path d="M267.054 175.956C267.169 179.964 262.716 183.481 258.805 182.483C256.735 181.96 255.306 179.915 255.47 177.559C255.651 175.057 256.784 172.995 258.855 171.556C260.301 170.542 261.944 170.231 263.685 170.836C266.035 171.654 266.972 173.061 267.054 175.973V175.956Z" fill="black"/>
<path d="M254.583 162.232C253.137 162.199 251.954 160.923 252.053 159.516C252.151 158.257 253.219 157.242 254.501 157.242C256.062 157.242 257.311 158.322 257.311 159.696C257.311 161.087 256.029 162.281 254.583 162.232Z" fill="black"/>
<path d="M248.569 130.66C250.065 130.497 251.363 130.252 252.661 130.235C256.21 130.186 258.346 132.296 258.198 135.83C258.132 137.335 257.886 138.954 257.261 140.295C256.128 142.716 254.928 145.219 253.236 147.248C248.849 152.515 243.114 155.966 236.657 158.224C234.718 158.895 232.845 158.649 230.824 157.929C224.974 155.836 223.167 151.124 222.428 145.743C221.738 140.672 221.968 135.584 223.348 130.644C223.906 128.665 224.744 126.718 225.78 124.951C228.047 121.091 232.319 120.6 234.964 124.461C235.178 124.772 235.441 125.05 235.819 125.508C238.267 123.267 240.863 121.451 244.314 122.956C247.649 124.412 248.553 127.356 248.586 130.693L248.569 130.66ZM224.81 140.541C224.81 141.31 224.777 142.078 224.81 142.847C225.007 146.103 225.517 149.309 227.258 152.139C229.509 155.787 231.744 156.833 235.556 155.459C235.917 155.329 236.295 155.247 236.657 155.1C241.258 153.186 245.48 150.65 249.194 147.329C251.823 144.974 253.63 142.013 254.862 138.725C255.24 137.727 255.438 136.648 255.52 135.584C255.602 134.554 255.29 133.556 254.287 133.032C252.726 132.214 251.149 132.656 249.555 133.065C248.224 133.409 247.781 134.341 247.419 135.486C246.565 138.316 245.201 140.901 243.295 143.174C242.572 144.041 241.668 144.827 240.732 145.465C239.746 146.119 238.563 146.397 237.478 145.612C236.443 144.876 236.394 143.714 236.69 142.684C237.051 141.457 237.561 140.214 238.251 139.118C239.877 136.549 242.03 134.406 244.642 132.852C245.908 132.1 246.285 131.086 246.285 129.826C246.285 128.239 245.825 126.784 244.544 125.72C243.525 124.886 242.26 124.379 241.11 124.968C239.779 125.655 238.612 126.702 237.462 127.7C236.525 128.518 237.265 129.581 237.281 130.546C237.281 131.315 237.446 132.084 237.446 132.852C237.446 135.339 237.15 137.76 235.819 139.952C234.784 141.653 233.535 142.487 232.385 142.209C231.136 141.915 230.528 140.77 230.594 138.611C230.627 137.613 230.692 136.582 231.005 135.65C231.695 133.54 232.483 131.446 233.371 129.417C234.242 127.438 234.192 126.653 232.615 125.197C231.35 124.019 230.134 123.97 229.016 125.295C228.178 126.277 227.505 127.438 226.995 128.632C225.369 132.427 224.794 136.451 224.843 140.573L224.81 140.541ZM239.335 142.962C241.734 141.555 243.706 138.709 243.936 136.451C242.013 138.332 240.19 140.099 239.335 142.962ZM232.911 139.527C234.784 136.762 235.293 134.357 234.57 132.231C233.65 134.521 232.549 136.566 232.911 139.527Z" fill="black"/>
<path d="M359.051 330.099C358.788 330.966 358.575 331.849 358.279 332.7C357.671 334.483 356.735 336.053 355.206 337.214C352.545 339.227 349.571 338.523 348.552 335.366C347.665 332.618 347.024 329.706 346.81 326.827C346.514 322.934 346.745 318.992 346.745 314.869C346.12 315.017 345.775 315.066 345.446 315.18C342.39 316.358 340.024 314.886 339.794 311.63C339.728 310.796 339.778 309.929 339.926 309.111C340.156 307.835 340.369 306.51 340.862 305.316C344.001 297.579 347.845 290.25 353.547 284.034C353.859 283.691 354.056 283.249 354.401 282.971C354.779 282.66 355.453 282.169 355.65 282.3C356.077 282.562 356.34 283.167 356.554 283.674C356.685 284.002 356.603 284.427 356.587 284.819C356.537 292.066 358.542 298.789 361.877 305.153C363.553 308.359 365.328 311.516 366.971 314.738C369.255 319.204 370.997 323.883 371.966 328.823C372.426 331.178 372.541 333.55 371.753 335.889C371.112 337.771 369.962 339.161 367.908 339.456C365.969 339.734 364.375 338.883 363.307 337.345C362.255 335.84 361.45 334.172 360.579 332.552C360.152 331.751 359.84 330.884 359.462 330.05C359.331 330.082 359.183 330.099 359.051 330.131V330.099ZM353.695 288.14C353.531 288.107 353.383 288.075 353.218 288.042C349.735 293.08 345.939 297.939 343.475 303.631C342.932 304.891 342.538 306.232 342.226 307.574C341.98 308.604 341.815 309.716 341.897 310.763C341.947 311.45 342.357 312.432 342.867 312.645C343.31 312.841 344.231 312.252 344.773 311.81C345.479 311.238 345.939 310.354 346.662 309.798C347.139 309.438 348.01 309.144 348.503 309.34C348.979 309.537 349.341 310.354 349.439 310.96C349.554 311.696 349.357 312.481 349.242 313.25C348.601 318.075 348.355 322.901 349.061 327.743C349.39 330.017 349.899 332.274 350.557 334.483C351.049 336.135 352.249 336.38 353.268 335.022C354.253 333.697 355.059 332.111 355.42 330.524C355.88 328.528 355.798 326.402 355.946 324.341C356.012 323.343 355.929 322.181 357.244 321.952C358.641 321.723 358.723 323.016 359.117 323.883C360.53 326.958 361.877 330.05 363.389 333.076C363.931 334.156 364.72 335.17 365.607 336.004C366.873 337.198 368.351 336.92 368.926 335.284C369.386 333.943 369.633 332.422 369.518 331.015C369.173 326.418 367.579 322.165 365.525 318.092C363.619 314.313 361.565 310.616 359.495 306.919C357.063 302.584 355.272 298.037 354.369 293.146C354.073 291.494 353.925 289.809 353.711 288.156L353.695 288.14Z" fill="black"/>
<path d="M484.915 206.546C483.059 211.862 478.671 214.692 474.153 217.391C473.512 217.767 472.822 217.8 472.263 217.162C471.162 215.919 470.062 214.659 468.961 213.4C468.501 212.876 468.073 212.336 467.646 211.797C466.397 210.243 464.968 208.787 463.949 207.086C463.029 205.532 462.405 203.748 461.994 201.998C461.583 200.248 462.29 198.661 463.834 197.598C465.461 196.469 467.17 196.518 468.862 197.402C471.015 198.514 472.346 200.395 473.331 202.522C474.038 204.027 474.564 205.63 475.254 207.364C475.927 206.595 476.486 205.891 477.11 205.27C477.768 204.615 478.441 203.977 479.181 203.438C481.76 201.573 483.436 201.965 484.915 204.714V206.562V206.546Z" fill="black"/>
<path d="M465.245 153.66C465.163 149.718 464.95 146.103 465.048 142.487C465.114 140.05 465.508 137.596 465.968 135.192C466.198 134.014 466.79 132.852 467.464 131.838C469.353 128.976 472.738 128.648 475.219 131.02C476.616 132.362 477.306 134.063 477.503 135.944C477.733 138.12 477.503 140.263 476.632 142.291C474.381 147.542 471.44 152.4 467.924 156.932C467.283 157.766 466.576 158.109 465.574 158.109C459.856 158.109 454.138 158.208 448.42 158.093C446.941 158.06 445.347 157.57 444.017 156.899C441.996 155.885 441.7 154.004 443.195 152.286C445.249 149.93 447.878 148.556 451.049 148.311C455.6 147.951 459.544 149.505 463.175 152.09C463.487 152.319 463.783 152.564 464.095 152.793C464.391 153.022 464.687 153.235 465.262 153.66H465.245Z" fill="black"/>
<path d="M443.935 130.317C443.573 129.81 443.327 129.401 443.031 129.041C441.914 127.667 440.632 126.407 439.696 124.919C438.94 123.708 438.348 122.285 438.151 120.895C437.724 117.787 440.254 115.955 443.195 117.083C443.902 117.361 444.592 117.77 445.167 118.261C449.472 121.909 451.247 126.669 451 132.182C450.967 133 450.409 133.916 449.833 134.537C449.012 135.421 448.042 136.288 446.974 136.811C443.606 138.496 440.172 140.066 436.705 141.571C435.67 142.013 434.47 142.209 433.337 142.242C431.973 142.291 430.757 141.784 430.067 140.475C429.41 139.199 429.837 138.071 430.576 137.024C433.008 133.589 436.327 131.511 440.484 130.808C441.552 130.628 442.62 130.513 443.935 130.333V130.317Z" fill="black"/>
<path d="M464.884 153.545C462.912 150.617 461.187 147.493 458.903 144.827C455.649 141.032 452.002 137.58 448.535 133.981C447.615 133.032 446.662 132.869 445.413 133.392C442.784 134.505 440.106 135.502 437.444 136.533C436.787 136.795 436.096 136.975 435.324 136.958C436.573 135.486 438.331 134.946 439.908 134.112C441.469 133.294 443.063 132.525 444.986 131.577C442.62 130.137 440.5 128.861 438.38 127.569C439.695 127.356 440.697 128.06 441.765 128.485C442.915 128.927 444.033 129.434 445.577 130.072C444.986 127.552 444.476 125.377 443.967 123.201C444.066 123.152 444.164 123.103 444.263 123.07C444.575 123.463 444.903 123.839 445.166 124.248C445.38 124.575 445.511 124.935 445.659 125.295C446.547 127.422 447.089 129.777 448.387 131.593C449.652 133.36 451.706 134.554 453.398 135.993C458.246 140.115 462.583 144.679 465.722 150.274C465.837 150.47 466.017 150.617 466.297 150.912C468.071 148.115 468.63 144.794 470.372 142.078C470.552 142.128 470.749 142.16 470.93 142.209C470.897 142.749 470.98 143.322 470.832 143.812C470.043 146.381 469.254 148.965 468.318 151.484C467.825 152.809 467.825 153.856 468.581 155.149C471.752 160.629 474.479 166.354 475.794 172.57C478.242 184.07 479.474 195.668 477.158 207.364C477.125 207.511 477.174 207.658 477.223 208.116C478.669 206.742 479.984 205.483 481.315 204.239C481.479 204.354 481.643 204.452 481.808 204.566C481.545 205.204 481.413 205.941 481.019 206.464C479.819 208.067 478.456 209.556 477.256 211.159C476.632 211.993 476.04 212.925 475.745 213.907C474.414 218.242 473.378 222.691 471.012 226.634C469.797 228.678 468.334 230.576 466.872 232.457C466.297 233.193 465.541 233.946 464.21 233.504C464.341 233.144 464.374 232.833 464.555 232.637C469.238 227.255 471.456 220.712 473.411 214.038C473.658 213.204 473.444 212.631 472.902 211.96C471.21 209.866 469.616 207.691 468.006 205.532C467.693 205.123 467.513 204.632 466.987 203.634C467.923 203.994 468.433 204.059 468.728 204.337C469.944 205.515 471.078 206.791 472.245 208.002C472.82 208.591 473.411 209.163 474.315 210.046C474.627 208.214 474.907 206.808 475.104 205.368C476.024 198.465 475.81 191.562 475.038 184.659C474.249 177.592 473.001 170.656 470.125 164.096C469.139 161.839 467.956 159.68 466.954 157.439C466.412 156.261 465.656 155.787 464.309 155.672C460.628 155.329 456.947 154.772 453.283 154.282C452.856 154.216 452.445 153.987 451.788 153.758C453.283 152.515 454.713 153.415 456.027 153.398C457.408 153.382 458.804 153.595 460.184 153.709C461.63 153.824 463.093 153.938 464.539 154.053C464.654 153.889 464.769 153.725 464.867 153.562L464.884 153.545Z" fill="black"/>
<path d="M167.796 133.572C168.569 133.769 169.127 133.916 169.719 134.047C172.545 134.636 175.207 135.633 177.556 137.318C179.643 138.823 180.333 140.59 179.61 142.438C178.871 144.303 176.801 145.432 174.467 145.105C173.564 144.99 172.66 144.696 171.806 144.336C167.944 142.7 164.855 140.066 162.308 136.795C161.963 136.337 161.585 135.65 161.668 135.143C162.358 130.742 162.867 126.293 164.921 122.252C165.644 120.813 166.482 119.422 167.369 118.081C167.78 117.46 168.371 116.903 168.979 116.462C171.625 114.548 174.402 115.627 175.158 118.801C175.585 120.617 175.158 122.334 174.451 123.97C173.087 127.193 171.28 130.121 168.7 132.542C168.421 132.803 168.207 133.098 167.796 133.572Z" fill="black"/>
<path d="M136.378 146.266C139.154 146.512 141.701 146.593 144.199 147.002C145.513 147.215 146.893 147.82 147.978 148.605C150.59 150.47 150.114 153.955 147.041 154.936C145.579 155.41 143.804 155.378 142.276 155.067C138.53 154.331 135.096 152.76 132.056 150.388C131.169 149.701 130.643 149.211 131.153 147.771C131.695 146.283 131.202 144.434 131.284 142.766C131.399 140.312 131.465 137.842 131.859 135.437C132.073 134.128 132.697 132.771 133.469 131.658C135.227 129.172 138.136 129.532 139.237 132.378C139.746 133.687 139.927 135.224 139.861 136.648C139.73 139.854 138.744 142.831 136.854 145.481C136.69 145.71 136.558 145.972 136.378 146.283V146.266Z" fill="black"/>
<path d="M196.698 132.509C198.127 133.867 199.474 134.914 200.559 136.189C201.528 137.351 202.416 138.66 203.007 140.05C203.796 141.866 203.073 143.829 201.545 144.974C200.132 146.037 198.226 146.053 196.599 144.827C195.81 144.238 195.104 143.485 194.562 142.667C193.97 141.784 193.543 140.77 193.116 139.788C190.914 134.619 191.144 129.744 195.153 125.475C196.878 123.626 198.636 121.762 200.641 120.257C202.826 118.604 205.242 118.703 206.605 120.044C207.871 121.287 207.871 123.463 206.573 125.851C205.275 128.256 203.188 129.793 200.74 130.906C199.491 131.478 198.193 131.92 196.714 132.493L196.698 132.509Z" fill="black"/>
<path d="M195.81 131.593C198.077 132.607 200.706 132.509 202.859 134.227C200.854 135.486 199.211 133.932 197.174 134.259C198.028 135.682 198.833 137.007 199.589 138.349C199.967 139.019 200.279 139.706 200.526 140.426C200.608 140.655 200.444 141.13 200.246 141.228C199.951 141.375 199.425 141.424 199.195 141.261C198.702 140.901 198.307 140.41 197.946 139.919C196.747 138.316 195.465 136.746 194.397 135.061C193.592 133.769 192.524 133.343 191.111 133.441C187.874 133.67 184.637 133.785 181.4 134.112C177.785 134.472 174.187 134.979 170.588 135.437C170.309 135.47 170.046 135.552 169.619 135.666C170.835 137.547 173.382 137.858 173.99 140.099C173.168 140.966 172.379 140.59 171.656 140.165C169.931 139.134 168.272 138.005 166.53 137.024C165.905 136.68 165.051 136.353 164.41 136.5C156.408 138.283 148.456 140.197 141.045 143.845C139.813 144.45 138.614 145.17 137.135 145.972C137.792 146.544 138.252 146.986 138.761 147.378C139.731 148.147 140.733 148.867 141.67 149.669C142.113 150.045 142.754 150.552 142.163 151.174C141.933 151.403 141.177 151.288 140.75 151.108C140.109 150.863 139.55 150.421 138.942 150.061C137.562 149.227 136.182 148.376 134.654 147.444C128.525 150.748 123.201 155.067 118.765 160.498L118.223 160.056C118.535 159.336 118.716 158.535 119.159 157.913C121.279 154.969 123.563 152.155 126.537 149.996C128.278 148.72 129.987 147.395 131.795 146.201C132.879 145.481 133.602 144.63 134.029 143.403C134.621 141.653 135.36 139.968 136.083 138.267C136.264 137.825 136.642 137.465 136.938 137.056C137.102 137.122 137.266 137.171 137.447 137.236C137.036 139.183 136.642 141.13 136.198 143.273C136.691 143.093 136.987 143.011 137.25 142.88C145.202 138.414 153.878 135.895 162.685 133.785C164.18 133.425 164.887 132.787 165.363 131.397C166.037 129.434 166.908 127.536 167.762 125.639C168.058 124.984 168.518 124.412 169.11 123.463C170.112 125.491 168.945 126.784 168.6 128.141C168.222 129.614 167.631 131.037 167.039 132.771C175.945 131.74 184.62 130.955 193.411 131.478C195.448 129.025 197.354 126.456 199.901 123.757C199.983 125.917 198.768 126.882 198.094 128.06C197.42 129.254 196.599 130.382 195.794 131.609L195.81 131.593Z" fill="black"/>
<path d="M38.6959 163.001C37.1678 162.363 36.5927 161.299 36.3463 160.056C33.668 146.201 34.6374 132.803 41.4399 120.142C43.1323 117.002 45.219 114.139 47.7987 111.669C49.8854 109.673 52.2679 108.135 55.1269 107.432C60.0562 106.222 65.7907 109.166 66.1686 115.251C66.4315 119.455 65.2649 123.169 62.603 126.391C60.4013 129.074 58.1831 131.74 55.8499 134.308C50.2305 140.459 45.7777 147.329 42.5736 155.018C41.7192 157.079 40.7826 159.107 39.8461 161.136C39.5339 161.79 39.0902 162.379 38.6959 163.001ZM38.7288 158.895C39.4024 157.357 39.9118 156.245 40.3719 155.132C42.4422 150.143 44.7425 145.268 47.8808 140.852C49.7047 138.283 51.5943 135.748 53.5496 133.261C55.6856 130.53 57.9366 127.896 60.1384 125.197C62.3566 122.481 63.6711 119.406 63.5396 115.856C63.4082 111.865 60.3356 109.379 56.3757 109.886C54.1411 110.18 52.2844 111.243 50.592 112.634C47.7987 114.908 45.6134 117.705 43.9538 120.862C40.0268 128.256 37.8579 136.157 37.7593 144.532C37.71 148.687 38.088 152.826 38.2851 156.981C38.3016 157.472 38.4987 157.962 38.7288 158.895Z" fill="black"/>
<path d="M256.421 276.346C257.193 275.266 257.785 274.268 258.54 273.418C260.939 270.768 264.324 271.193 265.934 274.399C267.594 277.72 267.824 281.352 267.676 284.983C267.364 292.786 264.965 300.049 261.777 307.116C261.186 308.441 259.789 309.062 258.08 308.817C256.224 308.555 254.712 307.606 253.595 306.2C252.395 304.711 251.196 303.141 250.44 301.407C247.86 295.55 246.496 289.449 247.4 283.02C247.564 281.81 247.877 280.599 248.287 279.454C249.799 275.217 252.379 274.236 256.454 276.362L256.421 276.346ZM265.507 284.051C265.392 283.02 265.31 281.155 264.916 279.372C264.62 278.047 264.028 276.755 263.371 275.561C262.895 274.694 262.04 274.612 261.202 275.266C259.477 276.608 258.672 279.536 259.461 281.662C260.611 284.738 261.104 287.911 260.824 291.166C260.742 292.132 260.496 293.162 260.052 294.013C259.181 295.665 257.407 295.845 256.289 294.356C255.616 293.457 255.041 292.328 254.893 291.248C254.613 288.974 254.548 286.668 254.597 284.378C254.63 282.938 255.024 281.499 255.32 280.059C255.534 279.012 254.991 278.489 254.17 278.064C253.233 277.589 252.477 277.9 251.968 278.685C251.557 279.323 251.245 280.043 251.015 280.763C249.98 284.132 249.865 287.551 250.538 291.019C251.344 295.191 252.165 299.362 254.663 302.895C255.566 304.171 256.799 305.333 258.113 306.2C259.641 307.214 260.414 306.805 261.005 305.022C261.761 302.764 262.484 300.491 263.141 298.2C264.423 293.833 265.376 289.416 265.507 284.034V284.051ZM258.047 283.773C256.667 288.287 256.848 291.445 258.475 293.08C259.986 289.841 259.247 286.815 258.047 283.773Z" fill="black"/>
<path d="M114.295 148.916C112.537 147.951 110.992 147.117 109.447 146.266C103.204 142.831 99.8518 137.253 98.0772 130.644C97.42 128.223 97.2392 125.639 97.1735 123.119C97.0913 120.044 97.3214 116.969 97.4693 113.893C97.5678 111.751 98.0608 111.505 100.049 112.323C104.863 114.319 109.25 117.034 113.407 120.126C118.731 124.085 121.574 129.532 122.428 135.944C123.052 140.606 121.327 144.761 118.271 148.278C117.236 149.472 116.841 150.683 116.644 152.188C116.299 154.691 115.79 157.177 115.165 159.631C114.903 160.629 114.245 161.577 113.588 162.412C113.292 162.772 112.537 162.772 111.994 162.919C111.961 162.428 111.814 161.888 111.912 161.43C112.586 158.518 113.374 155.623 113.982 152.695C114.245 151.435 114.212 150.127 114.295 148.916ZM105.307 123.316C105.438 123.218 105.586 123.103 105.718 123.005C107.41 123.79 110.663 128.125 113.259 132.902C115.33 136.697 116.562 140.737 117.022 145.072C117.499 144.663 117.762 144.303 117.959 143.894C120.966 138.153 119.947 132.574 117.285 127.062C116.365 125.164 115.133 123.463 113.358 122.285C109.431 119.684 105.455 117.165 101.495 114.646C100.936 114.286 100.279 114.106 99.3917 113.73C99.5396 117.999 99.5067 121.991 99.8353 125.949C100.197 130.284 101.561 134.374 103.713 138.185C106.03 142.291 109.727 144.614 114.18 146.364C114.278 142.782 113.95 139.412 112.471 136.337C110.713 132.673 108.61 129.156 106.654 125.59C106.227 124.821 105.751 124.068 105.29 123.299L105.307 123.316Z" fill="black"/>
<path d="M284.965 118.703C284.883 120.895 284.226 122.94 283.158 124.837C280.989 128.763 277.867 131.822 274.17 134.292C273.299 134.881 272.248 135.274 271.212 135.535C270.555 135.699 269.635 135.65 269.126 135.29C268.83 135.094 269.011 134.014 269.191 133.409C270.062 130.301 271.048 127.225 271.919 124.134C272.461 122.22 272.773 120.208 273.447 118.343C274.055 116.707 274.827 115.055 275.879 113.681C278.179 110.687 281.695 110.949 283.749 114.106C284.653 115.513 285.031 117.051 284.965 118.719V118.703Z" fill="black"/>
<path d="M32.0742 325.273C32.2878 325.044 32.5179 324.848 32.6986 324.602C34.4896 322.214 36.6585 321.854 38.9917 323.719C39.879 324.422 40.5691 325.388 41.292 326.271C41.7685 326.843 42.1793 327.465 42.738 328.25C43.198 327.612 43.5266 327.105 43.9046 326.663C44.6604 325.796 45.3833 324.88 46.2378 324.128C47.3551 323.163 48.8667 323.081 49.8855 323.735C50.9535 324.439 51.3642 325.666 50.8713 327.22C49.984 330.066 48.2916 332.503 46.1227 334.466C44.7425 335.709 42.738 335.988 40.947 335.006C37.5293 333.158 34.3253 331.064 32.6986 327.285C32.5836 327.023 32.2878 326.86 32.0742 326.631V325.24V325.273Z" fill="black"/>
<path d="M43.5753 305.741C44.2325 304.989 44.6598 304.384 45.202 303.877C46.5493 302.633 47.8967 301.358 49.359 300.245C50.0656 299.705 51.0021 299.411 51.8894 299.149C52.9246 298.855 53.894 299.149 54.6334 299.967C55.3892 300.801 55.4714 301.799 54.9784 302.764C54.5677 303.582 54.1405 304.466 53.4832 305.071C51.2322 307.165 49.014 309.34 46.5165 311.091C45.317 311.925 43.5096 311.974 41.9651 312.219C41.5707 312.285 40.9628 311.81 40.6342 311.434C38.5803 309.029 36.5593 306.576 35.4419 303.566C35.0312 302.437 34.8997 301.178 34.8504 299.967C34.8011 298.724 35.4091 297.726 36.6743 297.301C37.8573 296.908 38.8925 297.399 39.5333 298.315C40.667 299.951 41.6364 301.701 42.6223 303.435C42.9838 304.073 43.1974 304.793 43.5917 305.725L43.5753 305.741Z" fill="black"/>
<path d="M48.4545 286.243C50.0155 285.277 51.4121 284.329 52.8909 283.527C53.6139 283.135 54.4683 282.906 55.2899 282.775C56.5057 282.578 57.6231 282.906 58.231 284.083C58.8554 285.261 58.4282 286.308 57.6559 287.257C57.3602 287.617 57.0644 287.993 56.6865 288.238C54.2876 289.743 51.9051 291.297 49.424 292.671C47.9287 293.489 47.2879 293.326 46.2035 292.001C43.9196 289.187 42.0464 286.112 40.7155 282.742C40.6662 282.595 40.6005 282.448 40.5676 282.3C40.2062 280.763 40.5676 279.568 41.5042 278.996C42.4736 278.407 43.7388 278.587 44.7904 279.83C45.8584 281.106 46.6964 282.595 47.5508 284.034C47.9452 284.689 48.1424 285.441 48.471 286.243H48.4545Z" fill="black"/>
<path d="M53.2854 279.863C52.9404 280.992 52.6282 282.12 52.2338 283.233C50.4429 288.304 48.5861 293.342 46.8609 298.446C45.0535 303.811 44.3469 309.389 44.1498 315C43.6404 328.97 45.0206 342.776 48.2575 356.386C48.3725 356.828 48.5533 357.319 48.4711 357.744C48.3725 358.3 48.1918 359.036 47.7975 359.282C47.0745 359.707 46.4665 359.118 46.1215 358.497C45.7107 357.76 45.3164 356.992 45.1028 356.19C44.6427 354.489 44.2319 352.755 43.9526 351.021C42.5067 341.909 41.0114 332.765 41.4715 323.507C41.8001 316.685 42.3259 309.831 43.4432 303.108C44.3962 297.284 46.2201 291.608 49.2598 286.423C50.1964 284.836 50.8536 283.102 51.6587 281.433C51.9545 280.828 52.2831 280.256 52.6117 279.667C52.8418 279.732 53.0554 279.798 53.2854 279.863Z" fill="black"/>
<path d="M373.543 231.116C374.2 231.067 374.496 231.034 374.792 231.018C378.078 230.821 379.787 232.375 379.475 235.68C379.261 237.806 378.785 239.949 378.078 241.961C374.825 251.253 369.271 259.006 361.713 265.337C360.661 266.22 359.462 266.956 358.246 267.627C356.192 268.756 354.105 268.216 352.873 266.188C352.248 265.141 351.739 263.979 351.411 262.818C349.291 255.309 348.091 247.654 348.059 239.835C348.059 236.825 348.42 233.831 349.488 231.001C349.965 229.742 350.655 228.449 351.558 227.468C353.563 225.325 356.406 225.636 358.114 228.024C358.607 228.711 358.952 229.48 359.527 230.478C359.79 229.856 360.004 229.431 360.152 228.989C361.499 224.736 362.781 220.467 364.21 216.263C364.703 214.823 365.475 213.449 366.297 212.157C366.954 211.126 367.759 210.145 368.663 209.343C371.456 206.873 374.71 207.74 375.991 211.273C376.747 213.334 376.911 215.51 376.534 217.653C375.876 221.35 375.038 225.031 374.266 228.711C374.102 229.447 373.822 230.167 373.527 231.148L373.543 231.116Z" fill="black"/>
<path d="M362.304 247.114C365.985 244.186 368.532 240.309 372.212 237.512C373.083 238.591 372.376 239.18 371.933 239.737C370.668 241.291 369.353 242.812 368.039 244.317C366.018 246.64 364.013 248.979 361.926 251.253C361.055 252.185 360.464 253.199 360.185 254.443C359.593 257.06 358.985 259.693 358.311 262.294C358.098 263.129 357.671 263.914 357.342 264.683C355.797 264.421 355.945 263.505 356.077 262.671C356.34 261.084 356.751 259.514 356.964 257.91C357.161 256.553 357.309 255.179 357.227 253.821C356.866 248.063 356.422 242.321 356.011 236.579C356.011 236.367 356.093 236.154 356.175 235.811C357.194 236.399 357.145 237.397 357.26 238.232C357.687 241.127 358.016 244.022 358.377 246.918C358.492 247.899 358.607 248.864 359.051 249.879C360.004 247.147 360.94 244.399 361.893 241.667C362.879 238.837 363.849 235.991 364.884 233.177C365.886 230.429 366.938 227.713 368.022 224.998C369.074 222.332 369.912 219.567 371.522 217.13C371.144 220.663 369.747 223.886 368.729 227.206C367.71 230.511 366.609 233.799 365.541 237.087C364.457 240.44 363.356 243.777 362.271 247.13L362.304 247.114Z" fill="black"/>
<path d="M84.6352 122.465C84.1258 124.003 83.7808 125.77 82.9921 127.307C80.4946 132.149 76.8633 136.157 72.9363 139.887C72.5913 140.214 71.9997 140.426 71.5068 140.476C70.258 140.574 69.8144 140.083 70.028 138.807C70.3238 136.909 70.7838 135.028 71.0796 133.131C71.5725 129.941 71.934 126.718 72.4927 123.545C72.7556 122.056 73.2321 120.551 73.8893 119.177C74.3658 118.179 75.1874 117.231 76.0746 116.544C78.9665 114.27 82.4663 115.219 83.7972 118.654C84.2408 119.783 84.3559 121.026 84.6681 122.465H84.6352ZM73.5114 135.584C76.6004 132.525 79.3115 129.336 81.1847 125.524C81.9569 123.954 82.0227 122.269 81.694 120.584C81.4969 119.586 81.0204 118.654 79.9524 118.327C78.8679 117.983 78.0299 118.572 77.2905 119.292C76.0746 120.47 75.4995 121.975 75.2531 123.578C74.6451 127.585 74.0865 131.593 73.5114 135.601V135.584Z" fill="black"/>
<path d="M151.956 208.705C152.596 199.316 154.93 187.914 159.218 176.938C160.795 172.897 162.915 169.151 165.495 165.683C167.861 162.494 170.72 159.827 174.137 157.766C176.421 156.392 178.853 155.509 181.597 155.656C184.095 155.787 185.82 156.981 186.773 159.255C187.759 161.61 187.89 164.08 187.2 166.485C186.609 168.546 185.886 170.607 184.834 172.456C182.369 176.807 179.74 181.06 177.029 185.264C174.121 189.795 171.065 194.228 168.058 198.71C162.422 207.118 158.282 216.132 156.951 226.274C156.901 226.65 156.885 227.059 156.753 227.403C156.343 228.417 155.209 228.613 154.552 227.713C154.108 227.108 153.862 226.356 153.632 225.62C152.169 220.876 151.66 216.573 151.956 208.689V208.705Z" fill="black"/>
<path d="M175.976 167.548C175.648 168.203 175.401 168.808 175.056 169.348C173.495 171.818 172.016 174.353 170.324 176.742C164.557 184.855 161.172 193.918 159.167 203.585C157.951 209.409 157.311 215.265 157.343 221.203C157.343 223.035 157.672 224.883 157.738 226.716C157.754 227.239 157.36 227.779 157.163 228.302C156.637 227.926 155.897 227.681 155.651 227.174C155.257 226.372 155.092 225.423 154.994 224.507C154.369 219.109 154.961 213.744 155.996 208.46C157.688 199.757 160.137 191.284 164.228 183.35C167.071 177.838 170.883 173.012 174.629 168.121C174.81 167.875 175.056 167.679 175.302 167.499C175.385 167.434 175.565 167.499 175.976 167.548Z" fill="black"/>
<path d="M479.836 307.345C479.573 318.141 478.406 328.741 474.2 338.785C472.787 342.171 470.914 345.394 469.024 348.551C467.644 350.874 465.672 352.788 463.388 354.292C461.532 355.503 459.511 356.255 457.276 356.043C453.513 355.683 451.312 353.393 450.244 349.941C449.274 346.784 449.389 343.545 449.866 340.339C450.589 335.513 452.117 330.917 454.154 326.484C456.504 321.38 458.936 316.309 461.449 311.287C465.081 304.024 467.151 296.368 467.907 288.32C468.466 282.415 467.677 276.657 466.182 270.964C465.968 270.146 465.672 269.345 465.574 268.511C465.524 268.134 465.771 267.545 466.067 267.365C466.362 267.185 466.921 267.349 467.315 267.48C467.578 267.562 467.825 267.84 467.989 268.085C469.829 270.637 471.801 273.123 473.461 275.79C476.369 280.452 477.7 285.703 478.373 291.068C479.047 296.483 479.359 301.93 479.836 307.377V307.345Z" fill="black"/>
<path d="M463.125 333.829C463.371 333.043 463.618 332.258 463.848 331.473C465.968 324.341 468.514 317.29 470.125 310.027C473.049 296.876 471.702 283.904 467.068 271.275C466.017 268.429 465.968 268.445 466.148 266.842C467.216 266.744 467.644 267.562 467.972 268.265C468.859 270.13 469.895 271.995 470.42 273.974C473.739 286.504 474.561 299.182 471.439 311.827C469.796 318.452 467.381 324.881 465.245 331.375C464.932 332.34 464.275 333.191 463.782 334.107C463.569 334.008 463.339 333.927 463.125 333.829Z" fill="black"/>
<path d="M268.517 147.886C267.778 146.79 268.057 145.857 268.731 145.056C269.519 144.123 270.341 143.175 271.294 142.406C280.692 134.816 291.159 129.417 303.17 127.307C308.51 126.358 313.867 125.704 319.305 126.146C323.824 126.522 327.915 127.896 331.349 130.939C333.058 132.444 334.389 134.21 335.194 136.353C337.116 141.457 334.652 145.808 329.197 146.495C326.781 146.79 324.267 146.561 321.819 146.332C313.439 145.53 305.076 144.516 296.68 143.813C291.044 143.338 285.375 143.616 279.822 144.696C276.65 145.317 273.578 146.413 270.472 147.313C269.815 147.493 269.174 147.706 268.501 147.918L268.517 147.886Z" fill="black"/>
<path d="M318.108 135.208C316.76 135.356 315.429 135.535 314.082 135.634C309.235 135.961 304.371 136.223 299.524 136.582C298.374 136.664 297.224 136.91 296.123 137.253C287.201 140.034 278.197 142.602 269.833 146.855C269.62 146.953 269.422 147.15 269.225 147.15C268.88 147.15 268.371 147.15 268.223 146.937C268.059 146.708 268.075 146.086 268.256 145.906C268.979 145.219 269.735 144.549 270.589 144.042C274.533 141.719 278.739 139.969 283.093 138.578C290.241 136.288 297.487 134.341 305.045 134.031C308.906 133.867 312.768 133.9 316.645 133.9C317.171 133.9 317.697 134.21 318.223 134.374C318.206 134.652 318.173 134.93 318.157 135.225L318.108 135.208Z" fill="black"/>
<path d="M432.548 164.865C432.811 168.055 430.724 170.852 427.718 171.425C424.267 172.079 420.718 170.214 419.584 167.172C418.598 164.505 419.354 161.43 421.457 159.598C423.626 157.7 427.011 157.226 429.459 158.469C431.332 159.418 432.368 160.939 432.515 163.033C432.565 163.638 432.515 164.26 432.515 164.865H432.548ZM430.248 164.08C430.264 161.79 429.131 160.514 426.995 160.465C424.612 160.4 422.394 162.313 422.41 164.44C422.41 166.403 424.283 168.153 426.387 168.186C428.375 168.219 430.231 166.256 430.248 164.08Z" fill="black"/>
<path d="M145.398 246.231C145.546 244.039 146.154 242.01 147.715 240.375C150.821 237.119 155.323 238.052 156.834 242.256C157.147 243.123 157.656 243.941 157.771 244.824C158.1 247.474 156.736 249.404 154.731 250.876C152.809 252.283 150.689 252.709 148.438 251.547C146.269 250.435 145.53 248.521 145.398 246.214V246.231ZM148.241 245.985C148.34 246.967 148.602 247.997 149.687 248.554C150.673 249.077 151.626 248.832 152.53 248.292C154.633 247.049 155.471 244.84 154.666 242.616C154.14 241.143 153.4 240.734 151.872 241.078C149.884 241.52 148.241 243.679 148.241 245.985Z" fill="black"/>
<path d="M372.917 167.565C373.772 157.406 375.185 147.755 378.274 138.414C379.407 134.996 380.886 131.675 382.414 128.403C383.762 125.524 385.766 123.054 388.215 120.977C391.451 118.229 395.181 116.74 399.47 116.887C404.974 117.083 408.408 121.206 407.652 126.653C407.307 129.156 406.371 131.462 404.859 133.409C401.934 137.171 399.059 141.032 395.756 144.451C389.792 150.618 384.287 157.145 379.161 163.999C377.83 165.782 376.401 167.516 376.138 169.871C376.088 170.313 375.908 170.836 375.595 171.114C375.168 171.474 374.527 171.9 374.067 171.818C373.624 171.736 373.049 171.065 372.983 170.591C372.819 169.462 372.934 168.301 372.934 167.532L372.917 167.565Z" fill="black"/>
<path d="M396.184 124.248C395.756 124.87 395.346 125.508 394.919 126.129C390.893 132.149 386.736 138.071 382.891 144.189C378.833 150.65 376.253 157.701 375.546 165.34C375.415 166.714 375.415 168.104 375.349 169.479C375.333 169.937 375.366 170.427 375.218 170.853C375.07 171.229 374.708 171.523 374.445 171.85C374.1 171.507 373.607 171.212 373.476 170.787C373.279 170.231 373.328 169.577 373.312 168.955C373.213 164.751 374.166 160.711 375.546 156.768C378.241 149.031 381.905 141.768 386.687 135.094C389.02 131.838 391.402 128.632 393.785 125.41C394.311 124.706 394.853 123.954 395.789 123.823C395.921 123.954 396.052 124.101 396.184 124.232V124.248Z" fill="black"/>
<path d="M164.112 298.184C164.03 303.484 163.488 308.211 162.009 312.792C161.072 315.671 159.692 318.321 157.737 320.66C157.096 321.429 156.39 322.149 155.617 322.77C150.557 326.827 145.562 323.588 144.017 319.728C142.998 317.176 142.719 314.477 143.08 311.778C143.639 307.508 144.181 303.222 145.069 299.018C146.268 293.375 147.977 287.846 149.16 282.202C150.129 277.622 150.655 272.96 151.378 268.314C151.526 267.398 151.559 266.466 151.74 265.566C151.953 264.535 152.709 264.11 153.629 264.65C154.467 265.141 155.305 265.811 155.847 266.596C156.751 267.921 157.54 269.361 158.164 270.833C161.894 279.732 163.849 289.023 164.129 298.151L164.112 298.184Z" fill="black"/>
<path d="M152.825 264.306C154.468 264.339 154.633 265.468 154.896 266.351C155.914 269.819 156.456 273.385 156.604 277C156.818 282.186 155.865 287.257 154.912 292.295C154.123 296.516 153.121 300.703 152.135 304.875C151.872 305.987 151.576 307.214 150.098 308.293C151.067 303.026 151.971 298.249 152.842 293.457C153.696 288.696 154.501 283.903 154.205 279.045C153.91 274.187 153.318 269.328 152.825 264.29V264.306Z" fill="black"/>
<path d="M416.18 148.442C412.762 148.475 410.495 146.495 410.528 143.845C410.577 140.917 412.959 138.627 415.901 138.66C416.213 138.66 416.525 138.66 416.821 138.709C419.663 138.987 421.405 140.508 421.586 142.864C421.766 145.268 420.156 147.477 417.659 148.197C417.067 148.36 416.443 148.409 416.18 148.458V148.442Z" fill="black"/>
<path d="M43.0977 251.531C42.2597 252.43 41.5039 253.412 40.5509 254.181C38.152 256.127 35.6051 255.097 35.1615 252.054C34.8657 250.026 35.3587 248.079 36.0816 246.198C37.8891 241.487 40.6495 237.332 43.8042 233.406C44.2314 232.866 44.7079 232.359 45.1844 231.852C46.1374 230.838 48.257 227.762 48.9636 228.253C49.9494 228.973 50.9846 229.709 51.7568 230.641C56.7683 236.579 60.0545 243.384 61.5497 250.991C61.8126 252.332 61.7962 253.755 61.7305 255.129C61.6648 256.716 61.2211 258.221 59.4959 258.843C57.7377 259.464 56.489 258.516 55.4703 257.289C54.583 256.242 53.8764 255.031 53.0878 253.886C52.8742 253.592 52.6606 253.314 52.2333 252.741C51.839 254.426 51.5761 255.833 51.1653 257.174C50.7874 258.417 50.3273 259.644 49.7523 260.806C49.21 261.902 48.3063 262.605 46.9754 262.507C45.6116 262.392 44.823 261.509 44.5929 260.331C44.1821 258.303 43.9685 256.242 43.7056 254.197C43.6071 253.379 43.6071 252.561 43.5742 251.727L43.0977 251.531Z" fill="black"/>
<path d="M41.8485 246.427C42.2592 245.822 42.6372 245.184 43.0972 244.611C44.4939 242.877 45.8412 241.078 47.3693 239.458C48.3387 238.428 48.7824 237.332 48.8152 235.958C48.8481 234.764 48.996 233.553 49.7354 232.457C50.8691 232.85 50.8198 233.717 50.7541 234.404C50.5733 236.71 51.247 238.689 52.4629 240.669C53.6952 242.681 54.4675 244.987 55.4041 247.163C55.6998 247.834 56.127 248.553 55.3055 249.388C53.8267 248.848 53.6295 247.343 52.9887 246.231C52.2986 245.053 51.7399 243.81 50.9513 242.239C49.8339 246.149 50.5405 250.107 48.503 253.346C48.3059 253.346 48.1087 253.314 47.8951 253.314C47.8129 252.856 47.6486 252.398 47.6815 251.956C47.8787 249.044 48.1415 246.132 48.3552 243.221C48.4044 242.632 48.3059 242.027 48.273 240.98C45.9234 242.926 44.3624 245.151 42.3907 246.934L41.832 246.394L41.8485 246.427Z" fill="black"/>
<path d="M427.731 297.448C414.931 297.137 401.064 296.385 387.294 294.291C383.795 293.751 380.311 293.015 376.877 292.132C373.903 291.379 373.427 290.496 373.476 287.535C373.575 282.742 374.33 278.047 375.612 273.434C375.694 273.14 375.76 272.829 375.891 272.551C377.107 269.999 378.75 268.314 381.806 269.001C384.731 269.656 387.705 270.195 390.597 270.997C394.639 272.126 398.747 272.731 402.904 273.009C411.612 273.582 420.304 274.187 429.029 274.629C432.792 274.825 436.588 274.629 440.367 274.612C441.747 274.612 443.16 274.481 444.524 274.678C447.087 275.037 448.007 276.199 447.793 278.767C447.481 282.366 447.021 285.948 446.66 289.547C446.479 291.379 446.413 293.228 446.183 295.06C445.904 297.219 445.641 297.432 443.406 297.432C438.543 297.448 433.679 297.432 427.715 297.432L427.731 297.448Z" fill="black"/>
<path d="M381.478 393.176C380.935 385.193 380.278 377.21 379.9 369.211C379.177 354.227 377.863 339.243 378.372 324.226C378.652 315.687 378.914 307.148 379.21 298.609C379.259 297.382 379.457 296.156 379.67 294.945C379.752 294.471 380.081 294.045 380.475 293.228C380.82 293.931 381.116 294.291 381.149 294.667C381.281 296.434 381.428 298.2 381.428 299.967C381.412 311.892 381.149 323.834 381.346 335.759C381.527 346.293 382.118 356.828 382.661 367.363C383.104 375.967 383.712 384.571 384.255 393.176H381.478Z" fill="black"/>
<path d="M448.301 393.176C447.381 388.824 446.329 384.506 445.557 380.138C443.881 370.683 442.813 361.147 441.975 351.577C440.694 336.937 439.954 322.296 440.513 307.606C440.644 304.237 441.072 300.883 441.351 297.513L441.285 297.579C441.597 297.383 441.91 297.186 442.255 296.957C443.175 297.726 442.846 298.724 442.846 299.575C442.994 308.49 442.912 317.405 443.257 326.32C443.618 336.07 444.44 345.803 444.9 355.552C445.393 366.021 447.003 376.343 448.761 386.632C449.139 388.824 449.681 390.984 450.141 393.159H448.285L448.301 393.176Z" fill="black"/>
<path d="M445.426 215.87C445.459 215.739 445.639 215.396 445.672 215.02C446.576 207.38 449.369 200.264 451.932 193.1C453.559 188.536 455.235 183.988 456.829 179.408C457.305 178.034 457.683 176.611 457.897 175.171C458.078 173.928 457.766 172.652 456.648 171.883C455.498 171.082 454.397 171.769 453.411 172.341C451.078 173.65 449.139 175.482 447.825 177.772C445.574 181.714 443.487 185.738 441.466 189.812C440.201 192.364 439.198 195.03 438.081 197.647C437.983 197.86 437.983 198.154 437.818 198.285C437.375 198.629 436.898 199.038 436.389 199.119C436.192 199.152 435.682 198.367 435.633 197.925C435.419 195.717 435.222 193.492 435.189 191.268C435.156 188.797 434.121 186.769 432.577 185.019C430.211 182.369 427.483 182.532 425.396 185.411C422.242 189.73 420.204 194.506 419.826 199.872C419.744 201.131 419.908 202.522 420.418 203.667C421.223 205.45 422.735 205.744 424.164 204.403C425.331 203.323 426.316 201.982 427.187 200.641C428.107 199.234 428.798 197.664 429.619 196.175C429.882 195.701 430.112 195.177 430.49 194.834C430.769 194.572 431.295 194.457 431.673 194.506C431.854 194.539 431.985 195.112 432.067 195.472C432.117 195.684 432.018 195.93 431.919 196.142C430.605 198.841 429.34 201.557 427.943 204.207C427.483 205.074 426.727 205.81 425.988 206.481C422.965 209.278 419.251 208.542 417.46 204.812C417.049 203.945 416.836 202.98 416.441 201.818C415.801 202.702 415.275 203.438 414.716 204.158C411.923 207.773 407.306 207.56 404.94 203.618C404.282 202.522 403.806 201.213 403.675 199.954C403.05 193.95 403.691 188.012 406.583 182.68C407.947 180.16 408.44 177.821 408.275 175.089C408.045 171.098 408.078 167.09 407.93 163.099C407.864 161.643 407.667 160.187 407.355 158.764C407.158 157.832 406.665 156.965 406.123 155.672C405.137 156.605 404.365 157.194 403.773 157.93C402.015 160.122 400.865 162.641 399.994 165.291C397.792 171.965 396.346 178.819 395.426 185.771C394.046 196.142 392.994 206.562 391.696 216.95C390.825 223.967 389.708 230.969 388.788 237.986C387.851 245.233 387.03 252.496 386.11 259.743C385.798 262.262 385.37 264.765 384.877 267.251C384.697 268.167 384.549 269.59 383.251 269.378C381.903 269.149 382.38 267.742 382.479 266.842C383.086 261.411 383.777 255.997 384.467 250.582C385.847 239.737 387.326 228.924 388.64 218.062C389.478 211.11 389.955 204.125 390.776 197.156C392.009 186.524 393.767 175.973 396.773 165.667C397.726 162.395 399.025 159.271 401.128 156.539C401.916 155.509 402.82 154.511 403.872 153.758C405.745 152.401 407.864 152.859 409.031 154.871C409.639 155.918 410.033 157.128 410.247 158.322C411.101 163.066 410.707 167.843 410.526 172.603C410.461 174.19 410.378 175.76 410.28 177.461C416.737 174.091 420.401 177.347 422.866 183.138C423.392 182.663 423.885 182.205 424.394 181.78C426.201 180.275 428.239 179.915 430.474 180.667C434.663 182.091 436.29 185.444 437.112 189.403C437.26 190.122 437.375 190.842 437.9 191.595C438.245 190.842 438.558 190.09 438.936 189.354C440.809 185.64 442.55 181.862 444.621 178.263C445.837 176.153 447.513 174.271 449.188 172.472C450.224 171.36 451.538 170.444 452.902 169.757C456.582 167.859 459.639 169.429 460.559 173.47C460.97 175.286 460.592 177.003 460.017 178.688C458.554 182.909 457.043 187.113 455.498 191.284C452.557 199.234 449.747 207.217 448.055 215.527C447.808 216.721 447.808 217.588 448.728 218.635C450.881 221.072 451.407 224.18 451.177 227.304C450.963 230.445 450.536 233.586 449.895 236.661C448.679 242.616 447.085 248.488 445.935 254.459C444.834 260.184 444.078 265.991 443.191 271.766C443.043 272.698 443.273 273.794 442.09 274.269C440.989 273.614 441.351 272.6 441.334 271.733C441.302 265.173 442.107 258.679 443.421 252.251C444.949 244.791 446.592 237.348 448.055 229.873C448.416 228.024 448.449 226.061 448.318 224.164C448.153 221.906 446.822 220.369 444.654 219.551C441.449 218.34 438.163 217.571 434.713 217.522C431.279 217.473 428.469 219.076 425.758 220.892C424.788 221.546 424.739 222.479 425.429 223.28C425.955 223.886 426.678 224.507 427.434 224.72C428.978 225.145 430.605 225.374 432.199 225.538C434.203 225.75 436.208 225.799 438.213 225.947C438.673 225.979 439.198 225.963 439.56 226.192C440.036 226.487 440.365 226.994 440.759 227.403C440.316 227.746 439.889 228.384 439.445 228.384C435.666 228.433 431.87 228.548 428.107 228.27C425.462 228.073 423.227 226.814 422.209 224.098C421.387 221.939 421.683 220.14 423.474 218.667C427.154 215.625 431.279 213.596 436.224 214.283C439.264 214.709 442.287 215.379 445.426 215.952V215.87ZM421.239 185.542C420.779 184.43 420.483 183.465 420.007 182.598C419.53 181.747 418.955 180.88 418.249 180.209C416.326 178.443 414.749 178.475 412.695 180.111C410.97 181.502 409.721 183.219 408.949 185.28C407.355 189.419 406.714 193.738 406.78 198.154C406.78 198.989 406.928 199.839 407.109 200.657C407.437 202.097 408.275 203.193 409.721 203.634C411.233 204.109 412.219 203.111 413.073 202.113C414.322 200.657 415.505 199.136 416.671 197.598C416.934 197.255 417.082 196.78 417.164 196.339C417.871 192.527 419.235 188.961 421.239 185.542Z" fill="black"/>
<path d="M388.722 282.579C391.466 282.971 394.21 283.364 396.954 283.789C397.414 283.855 397.874 283.969 398.285 284.149C399.369 284.607 399.764 285.359 399.074 286.341C396.823 289.531 394.522 292.721 392.041 295.731C390.891 297.121 389.149 296.925 388.41 295.305C386.98 292.181 385.699 288.958 384.729 285.654C384.121 283.609 385.173 282.644 387.309 282.595C387.769 282.595 388.229 282.628 388.689 282.66C388.689 282.628 388.689 282.595 388.689 282.579H388.722ZM387.342 284.754C388.624 287.895 389.708 290.529 390.957 293.62C393.06 291.003 394.9 288.697 397.003 286.079C393.684 285.621 390.776 285.229 387.342 284.771V284.754Z" fill="black"/>
<path d="M423.983 289.138C422.504 291.624 421.321 293.686 420.072 295.698C419.267 297.006 418.446 298.315 417.46 299.476C416.129 301.063 414.436 301.129 413.434 299.411C411.906 296.777 410.559 293.996 409.491 291.134C408.784 289.253 409.819 287.928 411.906 287.895C415.291 287.846 418.676 288.058 422.06 288.271C422.718 288.304 423.342 288.827 423.999 289.154L423.983 289.138ZM412.005 290.512C413.155 292.77 414.288 294.962 415.603 297.513C417.591 295.305 418.758 293.015 420.45 290.512H412.005Z" fill="black"/>
<path d="M441.353 297.497C439.382 299.346 438.577 299.411 436.802 297.383C435.142 295.469 433.549 293.473 432.152 291.363C430.525 288.893 431.068 287.584 433.877 286.783C435.882 286.21 437.903 285.752 439.94 285.278C440.466 285.163 441.008 285.098 441.551 285.147C443.391 285.278 443.867 285.834 443.473 287.682C442.783 290.987 442.027 294.275 441.288 297.563L441.353 297.497ZM441.123 287.421C438.938 287.977 436.753 288.533 434.518 289.106C435.603 291.265 437.706 293.8 439.25 294.864C439.94 292.573 440.63 290.316 441.304 288.042C441.337 287.928 441.238 287.764 441.123 287.421Z" fill="black"/>
<path d="M376.796 276.739C377.141 279.863 375.925 282.448 374.972 285.098C374.791 285.605 374.463 286.047 374.298 286.554C373.674 288.435 373.625 288.566 371.834 287.78C369.879 286.913 367.94 285.948 366.149 284.771C364.489 283.691 364.374 282.186 365.836 280.926C368.679 278.473 372.015 276.935 375.777 276.428C376.04 276.395 376.352 276.592 376.812 276.722L376.796 276.739ZM368.778 282.628C369.961 283.985 371.341 284.607 372.918 285.229C373.214 284.214 373.493 283.347 373.707 282.464C373.937 281.564 374.644 280.746 374.315 279.536C372.442 280.583 370.7 281.548 368.778 282.611V282.628Z" fill="black"/>
<path d="M447.862 280.795C451.345 281.515 454.451 282.431 457.408 283.773C459.347 284.656 459.495 286.324 457.671 287.486C455.01 289.187 452.249 290.758 449.439 292.197C447.763 293.064 446.564 292.377 446.548 290.594C446.498 287.371 446.843 284.182 447.862 280.795ZM448.47 289.547C448.634 289.645 448.799 289.727 448.963 289.825C450.935 288.598 452.956 287.453 455.092 285.85C452.857 285.032 451.033 284.345 449.012 283.609C448.815 285.785 448.651 287.666 448.47 289.547Z" fill="black"/>
<path d="M45.1017 218.455C45.0524 221.023 44.0994 222.855 41.9798 223.967C40.0902 224.949 38.25 224.769 36.5247 223.509C34.2408 221.841 33.7807 218.847 35.3417 216.034C36.8205 213.384 39.9424 212.124 42.4399 213.204C43.5408 213.678 44.3787 214.447 44.5923 215.723C44.7567 216.704 44.9538 217.686 45.0853 218.455H45.1017ZM43.2614 217.669C43.2614 215.51 42.1113 214.79 40.1231 215.706C38.6936 216.361 37.8228 217.457 37.5434 218.994C37.2312 220.794 38.7758 222.086 40.5339 221.53C42.062 221.056 43.2614 219.354 43.2614 217.669Z" fill="black"/>
<path d="M62.6681 161.806C63.4896 160.334 64.2454 158.829 65.1163 157.39C66.1514 155.688 67.2359 153.987 68.4189 152.368C69.0433 151.517 69.8484 150.748 70.7028 150.094C73.4468 148.033 76.1086 148.9 76.7823 152.27C77.1767 154.265 77.0123 156.392 76.8316 158.453C76.7002 160.04 76.1415 161.594 75.6814 163.589C76.3551 162.984 76.7659 162.673 77.1274 162.297C79.7728 159.598 82.2867 156.752 85.0964 154.249C87.1996 152.368 89.6314 150.797 92.0632 149.325C94.0349 148.131 96.3024 147.64 98.4055 149.129C100.492 150.601 100.64 152.875 100.492 155.165C100.312 157.815 99.375 160.269 98.1755 162.608C96.2859 166.338 93.9199 169.756 91.0773 172.832C88.6784 175.433 86.2794 178.083 83.6833 180.487C75.0735 188.437 66.7922 196.764 57.5251 204.01C56.6214 204.714 55.9149 205.532 55.3891 206.644C53.9925 209.621 49.9997 210.079 47.8144 207.609C46.3028 205.892 45.5305 203.781 45.0047 201.589C43.1316 193.77 43.0823 185.886 44.2817 177.968C45.169 172.096 46.4342 166.305 48.7181 160.792C49.6875 158.453 50.8377 156.179 52.1193 153.987C52.7602 152.891 53.7132 151.877 54.7483 151.125C56.7693 149.652 59.1354 150.143 60.2363 152.384C61.0085 153.938 61.3371 155.721 61.6986 157.439C61.9944 158.846 62.0273 160.318 62.1751 161.757C62.323 161.757 62.4709 161.757 62.6188 161.774L62.6681 161.806Z" fill="black"/>
<path d="M62.8179 159.713C62.9165 159.991 63.0808 160.252 63.0808 160.531C63.0479 165.454 62.9 170.378 61.2241 175.073C60.6983 176.562 59.7453 177.919 58.858 179.244C58.2665 180.111 57.3135 180.537 56.2126 180.258C55.046 179.964 54.5859 178.95 54.5859 177.985C54.5859 176.398 54.701 174.762 55.0953 173.224C55.8183 170.378 57.182 167.794 58.9073 165.389C60.2218 163.573 62.1606 162.134 62.2921 159.565C62.4728 159.615 62.6536 159.647 62.8343 159.696L62.8179 159.713ZM56.3276 178.639C59.2359 176.529 62.0456 167.761 60.8626 165.34C58.0857 169.233 55.884 173.241 56.3276 178.639Z" fill="black"/>
<path d="M75.6819 160.563C75.5504 162.33 76.2898 163.998 75.649 165.896C75.1068 167.466 75.1889 169.233 74.7453 170.852C74.2031 172.832 73.5458 174.795 72.6914 176.66C72.2642 177.576 71.3605 178.344 70.5554 179.015C69.8488 179.604 68.9451 179.931 67.9757 179.473C66.9077 178.966 66.5298 178.001 66.6284 177.003C66.7598 175.727 67.0391 174.419 67.5321 173.241C68.6987 170.444 70.4239 167.957 72.7571 166.027C74.1538 164.865 74.7124 163.573 74.7946 161.888C74.811 161.447 74.9589 161.005 75.041 160.563C75.2546 160.563 75.4682 160.563 75.6819 160.563ZM73.6444 167.941C70.3253 171.016 68.5508 174.697 69.0601 177.428C72.2313 174.893 72.9379 171.409 73.6444 167.941Z" fill="black"/>
<path d="M271.488 393.633C271.373 388.17 271.209 382.706 271.176 377.243C271.012 346.768 269.336 316.292 270.634 285.817C271.061 275.593 271.998 265.402 272.754 255.195C273.033 251.432 273.427 247.686 273.822 243.94C274.134 240.98 274.397 240.276 275.547 238.837C282.629 241.209 289.924 242.141 297.367 242.141C307.9 242.141 318.366 241.519 328.783 239.933C330.081 239.736 331.396 239.622 332.71 239.622C335.274 239.622 336.21 240.571 336.062 243.139C335.734 248.897 335.29 254.655 334.978 260.413C334.501 269.165 334.041 277.933 333.713 286.701C333.499 292.622 333.581 298.56 333.433 304.482C333.17 315.344 333.746 326.173 334.419 337.018C335.076 347.471 335.668 357.907 336.457 368.344C337.098 376.785 337.985 385.193 338.757 393.633H271.472H271.488Z" fill="black"/>
<path d="M262.83 221.775C261.236 221.824 259.922 220.646 259.922 219.174C259.922 217.751 261.039 216.688 262.6 216.606C264.44 216.508 265.804 217.604 265.788 219.125C265.771 220.499 264.391 221.726 262.83 221.775Z" fill="black"/>
<path d="M292.687 178.099C293.196 175.531 293.558 172.93 294.264 170.427C294.905 168.153 295.891 165.961 296.844 163.786C297.173 163.033 297.731 162.33 298.306 161.725C300.426 159.484 303.104 159.762 304.583 162.493C305.224 163.688 305.585 165.078 305.832 166.419C306.16 168.153 306.259 169.92 306.522 172.128C306.867 171.278 307.081 170.771 307.278 170.247C307.902 168.513 308.444 166.747 309.134 165.029C309.529 164.031 310.071 163.082 310.663 162.183C311.714 160.596 312.996 159.173 315.148 159.5C317.284 159.827 318.122 161.545 318.697 163.36C319.026 164.375 319.289 165.454 319.338 166.518C319.519 169.74 319.601 172.946 319.716 176.414C319.979 175.858 320.176 175.433 320.357 175.024C321.573 172.21 322.707 169.347 324.07 166.583C324.629 165.438 325.549 164.407 326.519 163.54C328.852 161.43 331.399 161.855 332.746 164.718C333.518 166.354 334.06 168.235 334.126 170.018C334.258 174.239 334.159 178.475 333.945 182.696C333.715 187.145 333.239 191.595 332.877 196.044C332.844 196.42 332.877 196.813 332.877 197.5C333.387 197.009 333.732 196.682 334.06 196.355C335.063 195.39 335.95 194.277 337.067 193.508C339.515 191.856 342.013 192.756 342.933 195.57C343.278 196.649 343.41 197.827 343.459 198.972C343.623 203.012 342.835 206.938 341.997 210.864C340.041 220.041 338.02 229.202 336.016 238.379C335.868 239.049 335.703 239.736 335.457 240.374C335.194 241.045 334.734 241.748 333.945 241.372C333.584 241.209 333.337 240.342 333.403 239.851C333.83 236.808 334.29 233.766 334.882 230.739C336.525 222.446 338.3 214.169 339.926 205.859C340.337 203.749 340.468 201.573 340.551 199.43C340.6 198.089 340.879 196.207 339.483 195.684C337.938 195.111 336.87 196.747 336.032 197.876C334.948 199.348 334.126 201.017 333.239 202.62C332.713 203.585 332.647 205.204 331.119 204.926C329.558 204.665 329.936 203.16 330.002 202.047C330.347 196.371 330.84 190.695 331.103 185.002C331.316 180.324 331.399 175.613 331.316 170.934C331.284 168.906 331.053 166.779 329.46 165.127C328.194 165.225 327.389 166.027 326.864 166.91C325.5 169.217 324.037 171.523 323.068 174.01C321.606 177.723 320.521 181.6 319.256 185.395C318.96 186.294 318.895 187.636 317.531 187.456C316.151 187.26 316.446 185.967 316.463 185.019C316.463 179.555 316.561 174.091 316.528 168.628C316.528 167.335 316.282 166.027 315.97 164.751C315.756 163.9 315.247 163.115 314.836 162.248C313.144 162.559 312.486 163.704 311.829 164.8C310.022 167.81 308.954 171.114 308.247 174.517C307.508 178.132 307.031 181.796 306.44 185.427C306.292 186.294 306.555 187.57 305.224 187.521C304.008 187.472 304.074 186.278 304.008 185.362C303.679 180.373 303.4 175.367 303.055 170.378C302.956 169.004 302.776 167.614 302.48 166.272C302.283 165.34 301.823 164.456 301.313 163.115C300.426 164.064 299.736 164.636 299.243 165.34C297.551 167.793 296.68 170.591 296.121 173.486C295.25 178.017 294.511 182.581 293.722 187.129C293.574 187.963 293.541 188.83 293.229 189.615C293.049 190.09 292.457 190.744 292.063 190.744C291.652 190.744 291.11 190.106 290.863 189.615C290.6 189.092 290.6 188.421 290.518 187.816C289.746 182.254 289.072 176.676 288.168 171.13C287.889 169.429 287.068 167.793 286.361 166.19C286.115 165.618 285.441 165.242 285.014 164.816C283.617 165.193 283.354 166.256 283.173 167.172C282.779 169.2 282.434 171.261 282.303 173.339C281.58 184.479 281.037 195.619 280.232 206.758C279.493 216.884 278.523 226.993 277.62 237.119C277.538 237.986 277.57 238.984 276.585 239.475C275.615 239.164 275.664 238.411 275.664 237.757C275.681 235.222 275.664 232.67 275.829 230.151C276.683 217.866 277.603 205.581 278.507 193.312C279.082 185.493 279.641 177.657 280.314 169.838C280.462 168.186 280.89 166.485 281.53 164.947C282.894 161.676 285.885 161.25 288.333 163.851C289.746 165.356 290.584 167.188 290.945 169.184C291.422 171.752 291.701 174.353 292.063 176.938C292.128 177.379 292.276 177.805 292.375 178.23C292.457 178.197 292.556 178.181 292.638 178.148L292.687 178.099Z" fill="black"/>
<path d="M335.72 251.318C334.718 251.858 333.978 252.316 333.173 252.676C327.62 255.179 321.721 256.356 315.691 256.798C310.926 257.158 306.144 257.42 301.363 257.387C294.971 257.338 288.859 255.555 282.746 253.919C281.103 253.477 279.477 252.987 277.866 252.496C277.357 252.332 276.766 252.218 276.388 251.891C275.928 251.482 275.369 250.876 275.352 250.32C275.32 249.437 276.207 249.322 276.897 249.371C277.965 249.437 279.049 249.568 280.101 249.78C285.014 250.778 289.894 251.923 294.84 252.823C301.79 254.083 308.806 254.132 315.855 253.559C321.474 253.101 327.077 252.594 332.516 250.909C333.387 250.631 334.406 250.058 335.753 251.302L335.72 251.318Z" fill="black"/>
<path d="M307.574 199.872C308.971 199.217 309.907 199.708 310.483 200.51C311.551 201.982 312.734 203.503 313.276 205.188C314.672 209.523 315.313 214.005 315.231 218.569C315.231 219.24 315.1 219.959 314.837 220.581C314.705 220.908 314.163 221.186 313.785 221.235C313.555 221.252 313.194 220.81 313.046 220.499C312.881 220.172 312.914 219.747 312.865 219.371C312.389 216.181 311.961 212.991 311.435 209.817C310.975 206.987 309.99 204.337 308.461 201.884C308.084 201.278 307.886 200.575 307.574 199.855V199.872Z" fill="black"/>
<path d="M86.1983 223.869C86.7898 222.675 87.3978 221.71 87.7593 220.663C88.5973 218.193 89.3038 215.674 90.1089 213.187C90.4047 212.271 90.5526 210.979 91.9328 211.241C93.313 211.502 93.0501 212.811 92.8529 213.727C92.1957 216.884 91.5713 220.058 90.6183 223.133C89.961 225.309 88.6958 227.288 86.034 227.452C83.4379 227.615 81.9427 225.979 80.809 223.902C80.6939 223.706 80.5625 223.509 80.4146 223.329C80.3653 223.28 80.2832 223.248 80.1681 223.182C79.0508 224.785 77.8842 226.356 76.8162 228.008C76.5533 228.417 76.619 229.038 76.5533 229.578C75.3539 239.737 74.1544 249.895 72.9385 260.053C72.8399 260.888 72.7249 261.787 72.3305 262.491C72.0512 262.981 71.279 263.407 70.7203 263.423C70.326 263.423 69.7016 262.736 69.5701 262.262C69.3565 261.46 69.3565 260.577 69.4551 259.743C70.0302 254.312 70.6217 248.881 71.2954 243.466C71.9033 238.591 72.5934 233.717 73.2507 228.793C67.0233 223.395 67.1383 216.361 68.5514 209.131C68.9129 207.282 69.7509 205.45 70.7367 203.83C72.8235 200.412 76.3069 199.97 79.4123 202.505C79.6916 202.734 79.971 202.98 80.3817 203.323C80.8911 202.375 81.2855 201.573 81.7455 200.788C83.1422 198.4 85.2289 197.369 87.9729 197.745C90.8976 198.154 93.3951 199.496 95.5147 201.524C96.172 202.162 96.7471 202.865 97.7165 203.945C98.0122 202.571 98.2258 201.655 98.423 200.722C99.8032 194.326 101.134 187.93 102.613 181.567C103.04 179.702 103.829 177.919 104.585 176.153C104.979 175.253 105.571 174.386 106.228 173.666C108.117 171.572 110.73 171.654 112.307 174.01C113.195 175.318 113.967 176.872 114.197 178.41C114.838 182.745 115.248 187.112 115.577 191.464C115.791 194.375 115.692 197.304 115.758 200.232C115.758 200.837 115.906 201.426 116.382 202.195C116.711 201.589 117.089 201.001 117.368 200.363C119.586 195.193 121.755 190.024 123.973 184.855C124.91 182.663 125.846 180.471 126.947 178.345C127.506 177.265 128.278 176.251 129.149 175.4C130.776 173.846 132.846 174.124 133.668 176.202C134.571 178.459 135.179 180.88 135.524 183.301C136.576 190.45 135.886 197.582 134.851 204.681C134.193 209.163 133.553 213.629 132.912 218.013C133.076 218.177 133.109 218.275 133.175 218.291C138.022 219.894 139.451 222.888 139.123 227.975C138.663 234.796 137.956 241.618 137.217 248.423C136.674 253.396 135.902 258.336 135.179 263.276C135.064 264.11 134.653 264.912 134.325 265.877C132.78 264.961 132.879 263.718 132.912 262.638C132.994 260.102 133.158 257.567 133.438 255.048C134.341 246.869 135.36 238.706 136.264 230.527C136.444 228.858 136.494 227.141 136.329 225.456C136.116 223.133 134.982 221.824 132.78 221.497C127.835 220.761 122.905 220.745 118.124 222.43C116.76 222.92 115.38 223.477 114.542 224.965C115.823 226.454 117.614 226.601 119.323 226.846C121.459 227.141 123.628 227.272 125.781 227.55C126.717 227.681 127.933 227.599 128.048 229.006C128.13 229.905 127.227 230.641 125.699 230.756C121.985 231.001 118.272 231.165 114.723 229.742C112.8 228.973 110.96 228.024 110.73 225.701C110.483 223.329 111.995 221.841 113.819 220.663C116.054 219.207 118.551 218.34 121.196 218.095C124.187 217.817 127.194 217.8 130.414 217.653C130.464 217.375 130.579 216.884 130.628 216.377C131.285 210.717 131.893 205.057 132.6 199.414C133.29 193.738 133.717 188.078 132.813 182.385C132.583 180.913 132.139 179.457 131.778 178.001C131.581 177.968 131.4 177.936 131.203 177.903C130.776 178.574 130.283 179.212 129.954 179.931C128.87 182.401 127.9 184.904 126.816 187.374C124.565 192.511 122.281 197.647 119.948 202.767C119.438 203.88 118.732 204.91 118.042 205.924C117.368 206.922 116.464 207.691 115.15 207.462C113.687 207.217 113.195 206.039 112.932 204.796C112.702 203.749 112.587 202.669 112.554 201.589C112.455 198.121 112.521 194.654 112.324 191.202C112.126 187.669 111.814 184.152 111.371 180.635C111.157 178.999 110.746 177.314 109.35 176.038C108.068 177.036 107.608 178.459 107.23 179.833C106.096 183.988 104.995 188.159 104.042 192.347C103.04 196.698 102.219 201.082 101.298 205.45C101.183 205.973 101.085 206.513 100.888 207.004C100.066 209.049 98.3244 209.539 96.6649 208.084C95.679 207.233 94.8739 206.17 94.0359 205.172C92.5571 203.389 90.7497 202.146 88.4987 201.557C86.4941 201.033 85.6397 201.409 84.8017 203.307C84.243 204.567 83.783 205.892 83.4708 207.233C82.4849 211.584 82.6164 215.952 83.6022 220.27C83.898 221.595 84.3252 222.953 86.1819 223.853L86.1983 223.869ZM74.8116 225.031C76.0768 223.64 77.1448 222.315 78.3607 221.17C79.1987 220.385 79.3302 219.583 79.3137 218.504C79.2316 215.069 79.3137 211.617 79.2644 208.182C79.2644 207.56 79.1001 206.791 78.7222 206.317C76.504 203.552 74.4994 203.863 73.0864 207.102C72.9878 207.315 72.9221 207.527 72.8563 207.756C71.3283 211.928 71.2625 216.181 72.232 220.45C72.6099 222.086 73.2343 223.673 74.8281 225.014L74.8116 225.031Z" fill="black"/>
<path d="M94.5273 243.695C95.2503 240.473 95.809 237.217 96.7291 234.044C97.4685 231.476 99.1445 229.415 101.33 227.828C101.921 227.402 102.694 227.108 103.417 226.961C103.745 226.895 104.353 227.223 104.517 227.55C104.682 227.861 104.55 228.449 104.337 228.777C104.008 229.284 103.482 229.66 103.055 230.085C100.689 232.408 99.0623 235.14 98.3886 238.428C98.0272 240.227 97.5671 242.027 97.1399 243.826C97.0413 244.268 96.992 244.775 96.7455 245.135C96.5155 245.462 96.0226 245.838 95.7104 245.789C95.3818 245.74 95.0203 245.266 94.856 244.906C94.7081 244.579 94.8231 244.153 94.8231 243.761C94.7409 243.744 94.6424 243.728 94.5602 243.712L94.5273 243.695Z" fill="black"/>
<path d="M349.489 124.232C349.604 121.664 351.33 119.815 353.597 119.848C355.865 119.864 357.836 121.974 357.688 124.248C357.541 126.555 355.306 128.469 352.923 128.321C350.771 128.19 349.391 126.538 349.489 124.232Z" fill="black"/>
<path d="M35.4925 191.398C37.6778 191.398 39.8632 193.737 39.8139 195.864C39.7646 198.236 37.6778 200.641 35.3118 201.049C32.8964 201.458 31.0068 199.937 30.6947 197.353C30.4318 195.079 32.4856 192.102 34.7367 191.545C35.0324 191.464 35.3446 191.431 35.4925 191.398ZM33.2415 196.142C33.0607 198.318 34.1123 199.119 35.4596 198.285C36.3141 197.761 37.0042 196.862 37.5957 196.011C38.0558 195.34 37.9736 194.539 37.2671 193.95C36.5112 193.328 35.5911 193.296 34.9503 193.901C34.1616 194.653 33.6029 195.668 33.2415 196.158V196.142Z" fill="black"/>
<path d="M63.8008 304.973C64.2116 305.104 64.4745 305.12 64.6388 305.234C70.6032 309.324 77.3892 311.385 84.3067 313.119C91.8321 315 99.4725 315.982 107.244 315.998C112.617 315.998 117.842 315.066 122.952 313.381C125.45 312.563 127.915 311.696 130.412 310.845C130.774 310.714 131.135 310.485 131.497 310.469C132.055 310.469 132.926 310.404 133.123 310.714C133.633 311.483 132.86 311.958 132.269 312.301C131.086 313.005 129.87 313.708 128.621 314.313C119.173 318.812 109.216 320.169 98.8153 319.172C91.0106 318.419 83.3701 317.045 76.0583 314.15C71.9999 312.546 68.2536 310.436 64.9509 307.59C63.8008 306.592 63.8172 306.576 63.8008 304.956V304.973Z" fill="black"/>
<path d="M112.928 272.583C112.862 273.614 112.895 274.661 112.731 275.659C111.071 285.654 109.379 295.648 107.686 305.643C107.522 306.625 107.275 307.606 106.98 308.555C106.717 309.406 106.52 310.649 105.353 310.403C104.104 310.142 104.581 308.948 104.729 308.081C105.123 305.807 105.517 303.533 105.961 301.276C107.637 292.835 109.297 284.41 111.022 275.986C111.268 274.775 111.17 273.369 112.303 272.485C112.517 272.518 112.714 272.551 112.928 272.583Z" fill="black"/>
<path d="M88.5132 272.42C88.5625 273.074 88.7104 273.729 88.6282 274.35C87.4452 284.656 86.2293 294.978 85.0134 305.283C84.9641 305.741 84.9312 306.249 84.6848 306.608C84.4219 307.001 83.9125 307.508 83.5346 307.475C83.1895 307.459 82.6802 306.821 82.6309 306.412C82.5159 305.512 82.5652 304.564 82.6966 303.664C83.3703 298.626 84.0604 293.604 84.7669 288.582C85.4242 283.936 86.0978 279.29 86.8372 274.661C86.9687 273.827 87.4287 273.042 87.7245 272.24C87.9874 272.305 88.2503 272.354 88.5132 272.42Z" fill="black"/>
<path d="M120.077 306.87C118.598 305.905 118.91 304.858 119.075 303.909C119.995 298.299 120.931 292.704 121.868 287.093C122.312 284.443 122.673 281.777 123.15 279.127C123.297 278.293 123.182 277.246 124.283 276.771C125.269 277.327 124.99 278.26 124.924 279.029C124.678 281.777 124.365 284.525 124.004 287.273C123.412 291.772 122.805 296.254 122.147 300.736C121.95 302.094 121.605 303.451 121.211 304.776C120.997 305.463 120.537 306.069 120.093 306.87H120.077Z" fill="black"/>
<path d="M100.935 279.29C101.017 279.781 101.198 280.288 101.133 280.763C100.097 289.4 99.0458 298.02 97.9777 306.641C97.8627 307.59 97.7313 308.588 96.3511 309.471C96.2361 308.293 96.0389 307.508 96.121 306.739C96.5975 302.224 97.074 297.71 97.6656 293.211C98.1749 289.318 98.7829 285.441 99.4072 281.58C99.5387 280.73 99.9659 279.945 100.245 279.127C100.475 279.176 100.705 279.241 100.935 279.29Z" fill="black"/>
<path d="M77.6368 275.053C77.5875 275.806 77.6039 276.558 77.4889 277.295C76.273 285.179 75.0735 293.064 73.8083 300.948C73.6605 301.864 73.8905 303.239 72.231 303.222C71.8202 301.554 73.1347 292.066 75.4021 280.991C75.8129 278.963 75.8129 276.787 77.0288 274.972L77.6368 275.053Z" fill="black"/>
<path d="M379.475 187.816C381.348 187.816 382.86 189.501 382.827 191.513C382.794 193.607 381.052 195.439 379.064 195.488C377.207 195.52 375.597 193.885 375.548 191.905C375.498 189.844 377.47 187.799 379.475 187.816Z" fill="black"/>
<path d="M424.218 130.759C422.214 130.742 420.554 129.041 420.57 127.029C420.587 124.788 422.279 122.923 424.185 123.005C426.124 123.087 428.293 125.213 428.277 127.062C428.277 128.878 426.173 130.775 424.202 130.759H424.218ZM425.155 124.854C423.725 124.87 422.904 125.77 422.92 126.816C422.937 127.634 423.594 128.256 424.382 128.191C425.335 128.109 426.453 127.029 426.19 126.244C425.993 125.639 425.401 125.181 425.138 124.854H425.155Z" fill="black"/>
<path d="M168.154 234.289C166.446 234.289 164.918 232.817 164.868 231.099C164.819 229.333 166.561 227.435 168.286 227.402C169.978 227.37 171.441 228.842 171.473 230.658C171.523 232.653 170.028 234.306 168.154 234.306V234.289Z" fill="black"/>
<path d="M38.6311 178.754C38.6639 180.864 37.0865 182.418 34.8519 182.5C32.8145 182.565 31.5164 181.322 31.5 179.293C31.5 177.15 32.9624 175.531 34.9505 175.482C36.9387 175.433 38.5982 176.905 38.6311 178.754ZM36.8072 178.345C36.495 178.132 36.0843 177.658 35.5913 177.527C34.7698 177.314 33.6032 178.165 33.5703 178.999C33.5703 179.359 34.0139 179.98 34.359 180.079C35.2298 180.324 36.6593 179.391 36.7908 178.328L36.8072 178.345Z" fill="black"/>
<path d="M368.975 140.394C368.269 144.009 367.562 147.624 366.888 151.239C366.067 155.688 365.245 160.154 364.506 164.62C364.292 165.945 363.997 167.319 364.769 168.66C365.015 169.086 364.999 170.051 364.72 170.28C364.276 170.623 363.306 170.836 362.896 170.574C361.154 169.462 359.1 168.464 357.966 166.877C353.103 160.072 350.704 152.499 352.199 144.074C352.84 140.459 354.959 137.613 357.802 135.306C359.215 134.161 360.825 133.474 362.666 133.409C365.968 133.294 368.104 135.028 368.597 138.283C368.696 138.97 368.729 139.657 368.778 140.344C368.844 140.344 368.909 140.377 368.975 140.394Z" fill="black"/>
<path d="M359.789 146.282C360.495 151.746 361.07 157.21 361.941 162.641C362.27 164.636 363.256 166.534 363.962 168.464C364.094 168.824 364.422 169.151 364.422 169.495C364.422 169.887 364.241 170.378 363.962 170.623C363.798 170.771 363.124 170.689 362.96 170.476C362.467 169.904 361.974 169.266 361.744 168.579C361.284 167.123 360.873 165.618 360.709 164.113C360.183 159.467 359.739 154.821 359.361 150.159C359.263 148.834 359.476 147.493 359.559 146.152L359.772 146.25L359.789 146.282Z" fill="black"/>
<path d="M141.242 207.462C141.242 205.81 142.672 204.37 144.348 204.354C145.991 204.338 147.437 205.597 147.502 207.118C147.568 208.754 146.007 210.472 144.364 210.537C142.754 210.619 141.259 209.13 141.242 207.462Z" fill="black"/>
<path d="M60.8282 218.994C60.861 221.17 59.9245 222.495 58.4293 222.724C57.0326 222.937 55.3402 221.988 54.8802 220.728C54.3379 219.207 55.0773 217.457 56.6054 216.655C56.934 216.492 57.3284 216.41 57.6899 216.295C59.4315 215.756 60.0231 216.034 60.5653 217.751C60.7296 218.258 60.7789 218.798 60.8282 218.994ZM57.9692 220.418C58.3964 219.796 58.8072 219.42 58.8729 219.011C58.9058 218.749 58.3964 218.422 58.1335 218.127C57.8049 218.471 57.3612 218.765 57.2298 219.174C57.1476 219.403 57.6077 219.812 57.9856 220.401L57.9692 220.418Z" fill="black"/>
<path d="M368.303 188.029C369.93 188.012 370.998 188.961 371.047 190.499C371.097 192.183 369.717 193.672 368.057 193.688C366.463 193.705 365.001 192.363 364.984 190.842C364.984 189.223 366.348 188.045 368.303 188.029Z" fill="black"/>
<path d="M240.599 271.341C237.822 271.373 235.933 269.934 234.684 267.611C232.121 262.9 234.536 256.275 239.498 254.214C241.076 253.559 242.686 253.477 244.198 254.295C247.352 255.997 250.409 259.595 249.258 264.65C248.388 268.412 244.641 271.308 240.599 271.341Z" fill="black"/>
<path d="M223.362 261.084C223.379 265.272 220.651 268.92 216.659 270.016C212.354 271.21 208.246 268.527 207.72 264.11C207.375 261.231 208.098 258.614 209.955 256.34C212.074 253.739 215.213 252.79 218.269 253.821C221.325 254.835 223.346 257.731 223.362 261.068V261.084Z" fill="black"/>
<path d="M179.674 258.107C179.493 261.215 178.852 263.489 177.357 265.452C175.714 267.594 173.972 267.856 171.442 267.022C163.769 264.486 165.494 255.244 169.553 251.989C172.477 249.65 176.897 250.844 178.672 254.557C179.28 255.833 179.46 257.322 179.674 258.107Z" fill="black"/>
<path d="M198.685 260.675C198.669 263.538 197.65 265.713 195.596 267.316C192.261 269.917 187.167 268.314 185.803 264.176C184.653 260.675 185.261 257.321 187.611 254.426C189.73 251.825 192.737 251.531 195.366 253.641C197.683 255.489 198.587 258.041 198.702 260.675H198.685Z" fill="black"/>
<path d="M170.373 393.176C170.077 388.334 169.749 383.508 169.486 378.666C168.599 362.815 168.878 346.964 169.502 331.113C170.045 317.421 170.866 303.746 171.671 290.07C172.016 284.23 172.608 278.407 173.183 272.6C173.331 271.16 173.758 269.737 174.169 268.347C174.267 268.003 174.826 267.578 175.155 267.578C175.467 267.578 175.96 268.085 176.025 268.429C176.19 269.328 176.272 270.261 176.206 271.16C175.22 285.212 173.857 299.247 173.281 313.315C172.443 334.237 171.868 355.176 172.263 376.114C172.361 381.12 172.345 386.125 172.361 391.131C172.361 391.818 172.263 392.505 172.213 393.192H170.357L170.373 393.176Z" fill="black"/>
<path d="M244.607 393.176C242.915 382.216 241.748 371.19 241.452 360.116C240.779 335.431 240.319 310.747 239.859 286.063C239.793 282.088 240.204 278.08 240.417 274.105C240.45 273.369 240.549 272.584 241.633 272.109C241.715 272.714 241.83 273.205 241.83 273.68C241.88 279.601 241.83 285.523 241.962 291.444C242.192 301.586 242.455 311.745 242.833 321.887C243.375 336.413 243.786 350.955 244.739 365.449C245.33 374.724 246.776 383.933 247.844 393.176H244.591H244.607Z" fill="black"/>
<path d="M247.334 202.178C248.337 201.655 249.043 201.213 249.815 200.902C251.672 200.166 253.381 200.821 253.857 202.734C254.235 204.256 254.367 205.973 254.071 207.495C253.151 212.484 251.919 217.424 250.933 222.397C249.06 231.835 247.269 241.274 245.445 250.713C245.264 251.612 245.149 252.561 244.804 253.395C244.623 253.87 244.015 254.164 243.604 254.541C243.342 254.05 242.816 253.526 242.849 253.052C242.964 250.745 243.029 248.423 243.489 246.165C245.872 234.486 248.402 222.822 250.801 211.142C251.245 208.967 251.36 206.742 251.606 204.534C251.639 204.256 251.459 203.961 251.376 203.618C250.325 203.438 249.733 204.108 249.24 204.746C248.287 205.941 247.351 207.184 246.529 208.492C244.541 211.617 242.651 214.79 240.663 217.915C240.154 218.716 239.694 219.763 238.363 219.42C237.591 218.405 238.182 217.489 238.642 216.639C240.335 213.531 242.027 210.406 243.818 207.364C244.426 206.317 244.689 205.303 244.689 204.108C244.722 199.103 244.853 194.097 244.886 189.108C244.886 187.112 244.788 185.117 244.574 183.121C244.475 182.172 244.015 181.273 243.703 180.324C242.126 180.798 241.419 181.845 240.877 182.925C239.562 185.542 238.297 188.176 237.196 190.875C236.112 193.508 235.29 196.24 234.272 198.907C233.861 199.986 233.647 201.638 232.021 201.377C230.263 201.099 230.624 199.397 230.575 198.171C230.427 194.408 230.427 190.629 230.23 186.867C230.131 185.035 229.835 183.203 229.457 181.387C229.26 180.487 228.685 179.669 228.241 178.737C226.631 179.391 226.138 180.569 225.826 181.731C225.054 184.544 224.397 187.39 223.707 190.237C223.115 192.625 222.54 195.013 221.932 197.402C221.801 197.925 221.686 198.514 221.34 198.89C220.913 199.365 220.256 199.97 219.747 199.937C219.221 199.904 218.449 199.266 218.284 198.727C217.791 197.189 217.594 195.586 217.216 194.016C216.313 190.286 215.425 186.54 214.407 182.843C214.012 181.387 213.339 179.997 212.106 178.786C211.005 179.719 210.792 180.945 210.512 182.107C209.625 185.853 208.836 189.615 207.966 193.361C207.604 194.932 207.111 196.469 206.635 198.023C206.454 198.612 206.24 199.201 205.879 199.692C205.107 200.771 203.891 200.722 203.283 199.528C202.839 198.645 202.626 197.647 202.395 196.682C201.574 193.165 200.867 189.615 199.98 186.115C199.224 183.137 198.666 182.156 197.203 180.586C196.48 181.731 195.675 182.745 195.117 183.873C191.535 191.153 188.577 198.661 186.802 206.595C184.141 218.455 181.577 230.331 179.014 242.207C178.488 244.611 178.193 247.065 177.749 249.486C177.585 250.353 177.601 251.367 176.434 251.809C175.498 251.285 175.596 250.435 175.728 249.617C176.418 245.216 177.01 240.8 177.848 236.416C179.622 227.043 181.429 217.669 183.418 208.345C185.324 199.365 188.643 190.809 192.241 182.369C192.849 180.929 193.851 179.522 195.002 178.459C196.776 176.823 198.83 177.167 200.128 179.195C200.9 180.406 201.508 181.796 201.903 183.186C202.856 186.491 203.644 189.844 204.581 193.492C204.844 192.658 205.057 192.102 205.189 191.529C205.977 188.159 206.7 184.773 207.555 181.42C207.867 180.16 208.36 178.901 209.017 177.805C210.66 175.056 213.141 175.007 214.834 177.723C215.639 179.015 216.313 180.438 216.773 181.894C217.66 184.675 218.366 187.521 219.122 190.335C219.336 191.137 219.517 191.971 220.01 192.805C220.322 191.235 220.601 189.664 220.963 188.11C221.538 185.64 222.063 183.154 222.869 180.749C223.296 179.473 224.068 178.197 225.005 177.248C227.042 175.171 229.885 175.629 231.084 178.312C231.889 180.095 232.284 182.123 232.514 184.086C232.875 187.047 232.924 190.041 233.154 193.574C233.582 192.511 233.828 191.905 234.075 191.3C235.373 188.257 236.572 185.166 238.018 182.205C238.642 180.929 239.645 179.735 240.713 178.802C242.997 176.79 245.297 177.314 246.414 180.127C247.006 181.6 247.433 183.252 247.466 184.822C247.548 189.828 247.416 194.817 247.367 199.823C247.367 200.559 247.367 201.295 247.367 202.244L247.334 202.178Z" fill="black"/>
<path d="M223.003 261.444C226.717 260.871 230.266 261.051 233.881 261.558C233.749 263.129 232.731 262.981 231.975 262.998C229.066 263.047 226.142 263.014 223.003 263.014C222.428 264.634 221.673 266.498 219.668 267.12C218.534 267.463 217.22 267.611 216.07 267.365C213.424 266.826 211.469 263.979 211.666 261.346C211.83 259.121 214.558 256.324 216.99 255.898C218.912 255.555 221.623 258.008 222.987 261.427L223.003 261.444ZM217.088 257.158C216.168 258.041 215.182 258.794 214.476 259.742C213.539 260.986 213.901 262.605 215.166 263.897C216.316 265.075 217.713 265.37 218.912 264.683C220.276 263.897 220.769 262.36 220.194 260.675C219.701 259.235 218.797 258.139 217.088 257.158Z" fill="black"/>
<path d="M252.002 263.57C251.919 266.008 251.229 268.134 248.962 269.181C247.91 269.672 246.53 269.901 245.413 269.672C242.915 269.148 240.927 267.676 239.613 265.452C238.347 263.309 238.627 260.201 240.516 259.219C243.03 257.927 245.906 257.093 248.715 258.058C251.197 258.908 251.919 261.182 252.002 263.57ZM245.084 259.841C244.558 259.972 243.523 260.282 242.488 260.495C241.519 260.675 241.272 261.329 241.206 262.131C241.026 264.519 244.411 267.529 246.793 267.071C247.155 267.006 247.532 266.826 247.828 266.613C248.995 265.795 249.406 263.93 248.847 262.196C248.321 260.544 247.319 259.808 245.084 259.824V259.841Z" fill="black"/>
<path d="M171.555 253.919C172.706 254.148 173.856 254.262 174.924 254.606C177.01 255.277 177.881 256.438 177.98 258.417C178.095 260.593 177.027 262.507 175.252 263.341C173.1 264.339 170.832 263.505 169.879 261.329C169.156 259.677 169.321 258.025 170.109 256.454C170.471 255.702 170.931 255.015 171.555 253.919ZM172.656 255.735C171.539 256.994 171.473 258.336 171.835 259.726C172.065 260.593 172.607 261.313 173.576 261.329C174.677 261.346 175.187 260.544 175.45 259.595C175.975 257.681 175.285 256.7 172.656 255.735Z" fill="black"/>
<path d="M196.94 260.642C196.94 263.358 194.755 265.664 192.208 265.631C189.908 265.599 187.936 263.456 187.969 261.018C188.018 257.665 189.448 256.193 192.685 256.144C195.1 256.111 196.94 258.058 196.924 260.642H196.94ZM194.821 260.708C194.821 259.252 193.523 257.861 192.093 257.812C190.845 257.763 189.662 259.105 189.612 260.593C189.563 262.082 190.845 263.636 192.175 263.652C193.523 263.685 194.821 262.245 194.837 260.691L194.821 260.708Z" fill="black"/>
<path d="M213.684 208.067C213.076 208.542 212.583 208.967 212.057 209.327C210.398 210.439 209.231 211.928 208.771 213.891C208.212 216.279 207.687 218.667 207.161 221.056C207.046 221.563 206.964 222.086 206.783 223.035C206.257 222.43 205.83 222.135 205.682 221.743C205.501 221.252 205.435 220.663 205.534 220.156C206.076 217.31 206.569 214.431 207.292 211.617C207.769 209.752 209.198 208.493 210.956 207.691C211.942 207.233 212.123 207.282 213.684 208.067Z" fill="black"/>
<path d="M223.035 259.595C225.056 258.09 233.255 258.074 235.243 259.448C233.633 260.511 225.73 260.659 223.035 259.595Z" fill="black"/>
<path d="M198.027 258.188C198.882 258.058 199.72 257.796 200.574 257.796C205.158 257.78 208.05 258.205 209.644 259.284C205.52 260.021 201.839 259.415 198.159 259.121C198.126 258.81 198.077 258.499 198.044 258.188H198.027Z" fill="black"/>
<path d="M208.163 262.491C204.942 262.981 202.182 263.227 199.438 262.409C198.78 262.212 198.813 261.313 199.438 260.953C199.684 260.806 200.029 260.658 200.309 260.691C202.527 260.904 204.745 261.149 206.963 261.444C207.259 261.476 207.489 261.902 208.163 262.507V262.491Z" fill="black"/>
<path d="M179.328 257.092C181.267 256.062 185.555 256.536 187.034 257.845C185.128 258.875 181.004 258.532 179.328 257.092Z" fill="black"/>
<path d="M179.277 260.724C181.397 259.186 183.533 260.233 185.653 260.217C185.702 260.397 185.751 260.577 185.8 260.773C185.406 261.002 184.995 261.411 184.617 261.394C182.843 261.345 180.97 261.983 179.294 260.724H179.277Z" fill="black"/>
</g>
<defs>
<clipPath id="clip0_628_3014">
<rect width="516" height="267" fill="white" transform="translate(0 57)"/>
</clipPath>
</defs>
</svg>
