<svg width="120" height="119" viewBox="0 0 120 119" fill="none" xmlns="http://www.w3.org/2000/svg">
<path d="M49.9556 65.2827C49.9298 67.6682 50.0589 67.7454 52.4951 68.1144C54.5869 68.4318 56.7476 68.4404 58.8566 68.3718C59.8036 68.3375 61.0604 68.3889 61.9212 67.9513C63.178 67.3078 62.8251 66.2781 62.8165 64.9566C62.8165 64.7764 61.5683 64.948 61.5683 65.2913V66.587C60.8538 67.5909 59.9585 68.02 58.8911 67.8913C58.0905 68.0114 57.1608 67.9084 56.3516 67.8827C55.3014 67.8484 54.1307 67.8484 53.1063 67.5909C51.2641 67.1276 51.1866 66.6985 51.2038 64.9566C51.2038 64.785 49.9642 64.948 49.9556 65.2913V65.2827Z" fill="white"/>
<path d="M51.4698 68.4061C47.7941 77.7077 44.4713 87.138 41.51 96.697C41.4498 96.8944 42.6463 96.7656 42.741 96.4653C45.7023 86.9063 49.0251 77.4846 52.7008 68.1744C52.7697 68.0028 51.599 68.0972 51.4698 68.4061Z" fill="white"/>
<path d="M56.3512 68.4662C56.2565 80.3849 56.0585 92.3036 55.7658 104.222C55.7486 104.823 57.014 104.608 57.0226 104.102C57.3153 92.1835 57.5133 80.2648 57.608 68.3461C57.608 67.7454 56.3512 67.9599 56.3512 68.4662Z" fill="white"/>
<path d="M60.388 68.389C63.5558 77.9737 66.4827 87.6271 69.1685 97.3577C69.2545 97.6581 70.5027 97.332 70.4167 97.0231C67.7309 87.2924 64.804 77.6391 61.6362 68.0543C61.5329 67.7454 60.2933 68.1058 60.388 68.389Z" fill="white"/>
<path d="M42.1791 65.0425C52.027 64.7936 61.8749 64.8193 71.7228 65.1283C72.2738 65.1454 73.0227 64.3302 72.1791 64.3045C62.2278 63.9956 52.2766 63.9784 42.3168 64.2273C41.6453 64.2444 41.3268 65.0682 42.1791 65.051V65.0425Z" fill="white"/>
<path d="M42.6806 64.4933C42.3449 55.5692 42.4137 46.6624 42.8872 37.7469C42.9216 37.1291 41.6562 37.3265 41.6304 37.8585C41.1569 46.7739 41.0881 55.6808 41.4238 64.6048C41.4496 65.2312 42.7064 65.0167 42.6806 64.4933Z" fill="white"/>
<path d="M42.0513 38.0129C48.5592 37.9529 55.0585 37.8928 61.5664 37.8242C62.2809 37.8242 62.5219 36.8974 61.6783 36.906C55.1704 36.9661 48.6711 37.0261 42.1633 37.0948C41.4488 37.0948 41.2077 38.0215 42.0513 38.0129Z" fill="white"/>
<path d="M45.4625 36.9146C45.4109 36.0222 45.4625 35.1641 45.6347 34.2889C45.342 34.4262 45.0579 34.572 44.7652 34.7093C45.9274 34.7093 47.0981 34.7093 48.2602 34.7007C48.7509 34.7007 49.3707 34.5549 49.6548 34.8981C49.9216 35.2156 49.8011 36.537 49.7925 36.8803C49.7753 37.3694 51.0235 37.112 51.0407 36.7172C51.0665 35.8677 51.3162 34.2374 50.2487 34.0314C49.5256 33.8942 48.6218 34.0314 47.89 34.0314C47.012 34.0314 46.1426 34.0314 45.2645 34.0314C45.0235 34.0314 44.4553 34.143 44.3951 34.4519C44.2143 35.3872 44.1626 36.2968 44.2143 37.2492C44.2401 37.6268 45.4883 37.378 45.4625 36.9146Z" fill="white"/>
<path d="M47.0366 34.0572C47.0108 33.6625 47.0022 32.9503 47.5703 33.0446C48.0696 33.1305 48.3451 33.6453 48.1213 34.0915C47.9922 34.3403 48.5431 34.3403 48.655 34.3232C48.9219 34.2889 49.2404 34.1687 49.3695 33.9199C49.5675 33.5252 49.4556 33.0532 49.1285 32.7529C48.7325 32.3839 48.1213 32.3324 47.6048 32.3925C47.0969 32.4526 46.546 32.6242 46.1758 32.9846C45.7884 33.3621 45.7626 33.877 45.7884 34.3918C45.8056 34.7522 47.0625 34.5034 47.0366 34.0572Z" fill="white"/>
<path d="M53.775 36.9146C53.775 36.5628 53.775 36.211 53.775 35.8591C53.775 35.5159 53.6889 35.0697 53.8525 34.7608C53.7664 34.8294 53.6803 34.8981 53.6028 34.9667C53.6459 34.9496 53.6975 34.9238 53.7406 34.8981C53.534 34.9582 53.3188 35.0096 53.1122 35.0697C53.4393 35.044 53.7664 35.0611 54.0935 35.0611C54.3517 35.0611 54.8166 34.9753 55.049 35.0611C55.3675 35.1813 55.3159 35.5846 55.3417 35.8591C55.3761 36.2281 55.402 36.5971 55.4364 36.9661C55.4622 37.2235 56.719 36.9918 56.6846 36.6314C56.6502 36.1852 56.6071 35.7476 56.5727 35.3014C56.5469 35.0525 56.5555 34.7951 56.3403 34.6407C56.0992 34.4691 55.7033 34.5291 55.4278 34.5291C55.006 34.5291 54.5756 34.5291 54.1538 34.5291C53.6889 34.5291 52.9314 34.5291 52.6301 34.9753C52.4407 35.2499 52.5354 35.6789 52.5354 35.9879C52.5354 36.4083 52.5354 36.8288 52.5354 37.2492C52.5354 37.4809 53.7836 37.2921 53.7836 36.9146H53.775Z" fill="white"/>
<path d="M65.8808 37.9185C68.5149 37.9958 70.6067 37.3093 71.2093 40.1839C71.7344 42.6895 71.261 46.036 71.2782 48.593C71.3212 53.9217 71.3729 59.2504 71.4159 64.5791C71.4159 65.2484 72.69 65.0853 72.6814 64.4933C72.6039 55.5178 72.5264 46.5508 72.4489 37.5753C72.4489 37.2407 72.1476 37.1463 71.8636 37.1377C69.9009 37.0776 67.9382 37.0175 65.9755 36.9575C65.2438 36.9317 65.0372 37.8842 65.8808 37.91V37.9185Z" fill="white"/>
<path d="M72.4309 64.4075C74.4796 60.1514 75.8914 56.2815 75.943 51.5363C76.0033 46.5594 75.7537 41.5654 75.4438 36.5971C75.4352 36.4169 74.824 36.5628 74.7723 36.5799C73.9115 36.8374 73.042 37.0948 72.1812 37.3522C71.4667 37.5667 71.5528 37.9443 72.2845 37.7298C75.0392 36.9146 74.4108 40.407 74.4969 42.4406C74.6002 44.8003 74.6604 47.1601 74.6862 49.5198C74.7465 55.0973 73.6102 59.628 71.1999 64.6477C71.1138 64.8193 72.2759 64.7421 72.4309 64.4246V64.4075Z" fill="white"/>
<path d="M43.1871 36.9489C43.4023 36.7344 43.6347 36.5628 43.9274 36.4598C44.1426 36.3912 44.53 36.211 44.4525 35.9106C44.375 35.6361 43.936 35.6275 43.7294 35.6961C43.1354 35.8935 42.6189 36.1938 42.1713 36.64C41.9733 36.8459 42.0594 37.0862 42.3176 37.1806C42.6017 37.275 42.9891 37.1549 43.1957 36.9489H43.1871Z" fill="white"/>
<path d="M50.797 36.2281H52.2345C52.4928 36.2281 52.8888 36.0308 52.9232 35.739C52.9576 35.4215 52.5875 35.3529 52.3551 35.3529H50.9175C50.6592 35.3529 50.2632 35.5502 50.2288 35.842C50.1944 36.1595 50.5645 36.2281 50.797 36.2281Z" fill="white"/>
<path d="M56.5124 36.1766C58.2254 36.0394 59.9385 35.9879 61.6601 36.0136C62.1422 36.0136 62.9772 35.3014 62.1422 35.2928C60.3172 35.2671 58.5009 35.3271 56.6759 35.473C56.0561 35.5245 55.6429 36.2539 56.5124 36.1852V36.1766Z" fill="white"/>
<path d="M62.9028 40.1925C63.1008 36.4684 63.1094 32.7529 62.9373 29.0374C62.9028 28.3595 61.646 28.5226 61.6718 29.1146C61.844 32.8387 61.8354 36.5542 61.6374 40.2697C61.603 40.9476 62.877 40.7931 62.9028 40.1925Z" fill="white"/>
<path d="M61.8006 40.1067C60.5524 40.5614 58.4778 41.5225 59.2181 43.2129C59.9756 44.9291 62.7303 44.7317 64.1593 44.3112C65.9498 43.7878 66.8795 43.0499 66.3458 41.2136C66.0703 40.2611 65.4677 40.5099 65.1406 39.0083C64.9254 37.9958 65.0459 36.5885 65.0115 35.5502C64.9254 33.242 64.8307 30.9338 64.7446 28.6255C64.7274 28.2566 63.4792 28.4968 63.4964 28.9602C63.5997 31.6546 63.703 34.3489 63.8063 37.0347C63.8494 38.176 63.9527 39.3515 63.9354 40.4928C64.0732 40.7502 64.297 40.9304 64.6069 41.042C60.4319 44.3198 59.6571 44.1654 62.274 40.5786C63.0918 40.2783 62.3429 39.9007 61.792 40.1067H61.8006Z" fill="white"/>
<path d="M64.8201 35.7734C67.3596 35.8334 69.8904 35.8849 72.4299 35.945C72.9119 35.9536 73.7556 35.2413 72.9119 35.2242C70.3725 35.1641 67.8416 35.1126 65.3022 35.0526C64.8201 35.044 63.9765 35.7562 64.8201 35.7734Z" fill="white"/>
<path d="M62.1443 28.1536C61.5073 28.1536 60.8703 28.1536 60.2333 28.1536C59.0711 28.1107 58.6493 27.5701 58.9678 26.5318C58.6924 25.5965 58.942 24.1893 58.9334 23.2368C58.9162 20.3365 58.9162 17.4362 58.9506 14.5273C58.7096 14.6646 58.4772 14.8019 58.2361 14.9392C60.6637 14.759 63.1687 14.5359 65.6048 14.656C66.6981 14.7161 67.5073 14.553 67.998 15.557C68.3853 16.3464 68.196 17.8566 68.2562 18.7405C68.3853 20.6883 68.4628 22.6361 68.4972 24.584C68.5145 25.6137 68.8674 27.1582 67.8172 27.8533C67.2921 28.2051 65.4585 27.9133 64.8645 27.9305C64.4083 27.9391 63.5388 28.6427 64.3739 28.617C65.5015 28.5912 68.635 29.1661 69.5388 28.0935C69.9779 27.5787 69.7541 26.4374 69.7541 25.8454C69.7541 23.8975 69.7024 21.9411 69.5991 20.0018C69.513 18.4315 70.107 14.656 68.3767 14.0124C67.0941 13.5405 64.7612 13.9609 63.4011 13.9953C61.7311 14.0382 60.0697 14.1411 58.4083 14.2613C58.2275 14.2784 57.7024 14.4329 57.6938 14.6732C57.6594 18.3629 57.6594 22.0612 57.6938 25.751C57.7368 29.3549 58.1931 28.8315 61.6364 28.8229C62.0926 28.8229 62.9621 28.1364 62.1271 28.1364L62.1443 28.1536Z" fill="white"/>
<path d="M56.7357 44.4314C52.423 45.7528 50.1073 47.8465 50.202 52.566C50.2881 56.7791 53.2752 59.8854 57.674 59.1474C61.8491 58.4438 64.268 55.1145 63.8548 50.9785C63.4502 46.9112 60.1618 43.7277 55.9782 44.8347C55.2034 45.0406 55.4445 45.9502 56.2192 45.7442C64.3971 43.5733 65.2752 60.6662 55.3326 58.0834C52.0442 57.2339 51.2867 54.2221 51.4847 51.2274C51.7085 47.8122 53.8003 46.302 56.9768 45.3324C57.7343 45.1007 57.5019 44.1911 56.7357 44.4228V44.4314Z" fill="white"/>
<path d="M42.1307 48.6531H51.0231C51.3933 48.6531 52.3746 48.104 51.5482 48.104H42.6558C42.2856 48.104 41.3043 48.6531 42.1307 48.6531Z" fill="white"/>
<path d="M41.9896 54.4966C44.7184 54.5653 47.4387 54.6254 50.1675 54.694C50.443 54.694 51.5879 54.1877 50.9767 54.1706C48.2479 54.1019 45.5276 54.0419 42.7988 53.9732C42.5233 53.9732 41.3784 54.4795 41.9896 54.4966Z" fill="white"/>
<path d="M62.9254 54.2821C65.5596 54.2392 68.1851 54.1963 70.8193 54.1534C71.0689 54.1534 72.2224 53.6557 71.6371 53.6643C69.0029 53.7072 66.3774 53.7501 63.7432 53.793C63.4936 53.793 62.3401 54.2907 62.9254 54.2821Z" fill="white"/>
<path d="M62.6592 48.9363C65.3364 48.9792 68.0136 49.0221 70.6994 49.0564C71.147 49.0564 72.0337 48.3957 71.1901 48.3871C68.5129 48.3442 65.8357 48.3013 63.1499 48.267C62.7023 48.267 61.8156 48.9277 62.6592 48.9363Z" fill="white"/>
<path d="M54.3366 48.2498C53.295 49.0907 52.7527 50.1805 52.7182 51.5277C52.6752 52.9349 53.0367 55.063 54.2075 55.9983C55.8603 57.3283 58.7096 56.7105 60.1558 55.3719C62.4112 53.2953 61.7311 49.6742 59.1917 48.1898C57.4872 47.1944 54.2849 47.0399 53.5618 49.3396C53.4671 49.6313 54.6895 49.4769 54.7928 49.1336C54.9908 48.5072 56.2304 48.1211 56.8588 48.1554C57.229 48.1812 57.711 48.4472 58.0209 48.6274C58.6666 48.9963 59.1917 49.5026 59.5963 50.1204C60.4571 51.4419 60.5432 53.2009 59.7254 54.5739C58.9334 55.9125 56.678 56.5818 55.3782 55.5521C54.767 55.0716 54.5432 54.3164 54.3366 53.6042C53.8115 51.7851 53.6737 49.6399 55.3093 48.3185C55.8172 47.9152 54.5862 48.0439 54.3452 48.2412L54.3366 48.2498Z" fill="white"/>
<path d="M53.8285 48.8333C54.3794 50.5066 54.9304 52.1884 55.4813 53.8617C55.576 54.1448 56.8156 53.7844 56.7295 53.527C56.1786 51.8538 55.6276 50.1719 55.0767 48.4987C54.982 48.2155 53.7424 48.5759 53.8285 48.8333Z" fill="white"/>
<path d="M59.9467 55.0801C59.3011 53.4326 58.7415 51.768 58.2595 50.069C58.182 49.7944 56.9338 50.129 57.0113 50.4036C57.4933 52.1026 58.0529 53.7759 58.6985 55.4148C58.8104 55.7065 60.0328 55.3118 59.9467 55.0801Z" fill="white"/>
<path d="M60.4116 16.9814C60.4116 18.8434 60.4116 20.6969 60.4116 22.5589C60.4116 23.3398 60.0501 25.1503 60.4805 25.7681C60.9023 26.3688 61.832 26.2058 62.4862 26.2401C63.7258 26.3001 65.0687 26.5404 66.2911 26.2744C66.5235 26.2229 66.7473 26.0685 66.8162 25.8368C67.2122 24.5754 67.0142 22.9022 67.04 21.5979C67.0658 20.0533 67.0572 18.5174 67.04 16.9728C67.04 16.7411 66.8506 16.6382 66.6354 16.621C64.974 16.5009 63.347 16.5352 61.6856 16.724C61.0314 16.8012 60.6957 17.6335 61.5479 17.5392C63.0974 17.3675 64.6211 17.3332 66.1792 17.4448C66.0414 17.3246 65.9123 17.2131 65.7746 17.093C65.8004 18.6375 65.809 20.1735 65.7746 21.718C65.7574 23.0137 65.9381 24.7127 65.5508 25.9569C65.7229 25.811 65.9037 25.6652 66.0759 25.5193C65.2064 25.7081 64.1218 25.4764 63.2437 25.4335C61.7287 25.3648 61.6512 24.4896 61.6512 23.1338C61.6512 21.0401 61.6512 18.955 61.6512 16.8613C61.6512 16.2692 60.3944 16.4923 60.3944 16.9814H60.4116Z" fill="white"/>
<path d="M62.616 19.65C62.8226 20.9114 63.0981 22.147 63.4424 23.3741C63.5457 23.7516 64.7939 23.417 64.6906 23.0394C64.3463 21.8124 64.0708 20.5767 63.8642 19.3154C63.804 18.955 62.5471 19.2381 62.616 19.65Z" fill="white"/>
<path d="M75.3607 91.4112C74.7065 88.5624 75.3779 85.7651 77.3062 83.5512C76.5056 83.6714 75.7051 83.7915 74.9131 83.903C75.3779 86.6146 74.7495 89.1974 73.0537 91.3769C73.8457 91.3083 74.6462 91.2396 75.4382 91.171C76.1441 89.8667 76.936 88.6225 77.8399 87.4383C77.9604 87.2839 79.2259 85.7822 79.2086 85.7736L78.2273 85.9109C78.4511 86.237 78.52 86.5888 78.4425 86.975C78.0982 88.8541 74.8356 89.9525 73.6649 91.3769C74.431 91.3597 75.1972 91.3426 75.9633 91.334C77.0738 89.6436 78.3306 88.0905 79.7596 86.6489C78.9934 86.666 78.2273 86.6832 77.4612 86.6918C76.4368 88.0905 75.4124 89.4891 74.3794 90.8792C73.7079 91.7888 76.0236 91.2654 76.2818 91.1452C77.4095 90.6046 80.1728 88.6739 81.2402 89.2574C82.6261 90.0126 79.794 90.2957 79.3292 90.3558C78.2531 90.4845 77.1685 90.5961 76.0838 90.6819C75.9633 91.068 75.8428 91.4455 75.7137 91.8317C77.9863 91.2139 80.233 90.5188 82.4626 89.7465C82.1527 89.472 81.8428 89.1888 81.5243 88.9142C79.4411 89.8152 77.3406 90.6561 75.223 91.4455C74.1469 91.8488 74.3794 92.6297 75.4985 92.4581C77.0307 92.2264 78.4253 92.5782 79.7338 93.3848C80.0781 93.0587 80.4138 92.7241 80.7581 92.398C79.0279 92.8356 77.5472 92.4667 75.9547 91.7802C75.1713 91.4455 74.784 91.4112 73.9317 91.6086C73.5271 91.703 72.8385 91.9776 72.8299 92.4667C72.8299 92.6983 72.8729 92.7327 73.0623 92.8614C73.7079 93.2904 74.8787 92.8957 75.3779 92.3809C75.4038 92.3551 75.4296 92.3208 75.464 92.295C76.1096 91.6257 73.6649 91.8231 73.1656 92.338C73.1398 92.3637 73.1139 92.398 73.0795 92.4238L75.3952 91.9432C75.3693 91.9003 75.3521 91.8488 75.3263 91.8059C74.9561 92.0891 74.586 92.3809 74.2244 92.664C74.3191 92.6383 74.4224 92.6211 74.5171 92.5954C74.1383 92.604 73.751 92.6125 73.3722 92.6211C76.0063 93.7109 78.2187 94.1657 81.0508 93.4535C81.1627 93.4277 82.6434 92.8185 82.0752 92.4667C80.1556 91.2739 78.1326 90.9307 75.903 91.2739C75.9977 91.6086 76.0838 91.9518 76.1785 92.2865C78.3048 91.497 80.4052 90.6561 82.4798 89.7551C84.1154 89.0515 82.5917 88.5538 81.5415 88.9228C79.5358 89.6264 77.5042 90.2442 75.4468 90.7934C74.7667 90.9736 73.6907 92.0462 75.0766 91.9432C76.8241 91.8059 84.6921 91.969 84.2187 88.631C83.728 85.2159 75.9633 90.0469 74.7926 90.6046C75.4296 90.6904 76.058 90.7762 76.695 90.8706C77.7194 89.472 78.7438 88.0733 79.7768 86.6832C80.4224 85.808 77.9002 86.3057 77.4784 86.7261C76.058 88.1677 74.8012 89.7208 73.6821 91.4112C73.0967 92.3036 75.5673 91.866 75.9805 91.3683C76.6778 90.5188 83.7022 86.3314 80.1642 84.7697C77.0393 83.3882 74.0178 89.6436 72.9762 91.5657C72.6233 92.2178 75.0336 91.7888 75.3607 91.3597C77.1943 89.0086 77.9174 86.2027 77.4181 83.2681C77.2804 82.4529 75.3005 83.311 75.025 83.6199C72.9676 85.9882 72.1756 89.0429 72.8815 92.0977C73.0451 92.8271 75.5501 92.2007 75.3779 91.4284L75.3607 91.4112Z" fill="#FBEF39"/>
<path d="M72.6659 90.6132C73.587 90.9307 74.2068 91.7201 74.3187 92.6812C74.4393 92.5954 74.5512 92.5096 74.6717 92.4238C74.4048 92.4581 74.1294 92.4838 73.8625 92.5182C73.7334 92.5353 73.4321 92.5954 73.3374 92.4495C73.2857 92.3723 73.3374 92.1749 73.3374 92.0891L73.3202 90.4159C73.3202 90.1756 72.752 90.3987 72.7004 90.536C72.4163 91.2053 72.3474 92.2264 72.9845 92.7413C73.5182 93.1703 74.3015 93.0673 74.9213 92.9558C75.0246 92.9386 75.3173 92.8614 75.2743 92.6983C75.0505 91.763 74.3962 91.0251 73.5096 90.6647C73.3718 90.6046 72.907 90.6647 72.95 90.8964C73.0705 91.497 73.2599 92.072 73.5096 92.6211C73.6043 92.8185 74.0949 92.6984 74.1294 92.501C74.1982 92.1492 74.181 91.8317 74.0691 91.4885C73.8711 91.5571 73.6645 91.6257 73.4665 91.6944C73.587 91.9003 73.7162 92.1063 73.8367 92.3122C73.9141 92.4495 74.2327 92.338 74.3187 92.2865C74.4565 92.2007 74.5684 92.0719 74.4306 91.9261C74.336 91.8231 74.1294 91.8746 74.0175 91.9175C73.8281 91.9861 73.6903 92.1149 73.8022 92.3036C73.9055 92.4838 74.5167 92.2865 74.379 92.0548C74.379 92.0462 74.3876 92.0376 74.3962 92.029C74.336 92.0891 74.2671 92.1406 74.2068 92.2007C74.224 92.2007 74.2413 92.1835 74.2671 92.1835C74.1294 92.1835 73.9916 92.1835 73.8539 92.1749C73.8797 92.1492 73.9055 92.1234 73.9314 92.0977C74.0949 92.0891 74.2499 92.0805 74.4134 92.072C74.2929 91.866 74.1638 91.6601 74.0433 91.4541C73.9486 91.2911 73.3804 91.4541 73.4407 91.6601C73.5354 91.9776 73.5612 92.2607 73.5009 92.5868C73.7075 92.5439 73.9141 92.5096 74.1207 92.4667C73.8625 91.9089 73.6817 91.3426 73.5612 90.7419C73.3718 90.8192 73.1911 90.8964 73.0017 90.9736C73.8367 91.3083 74.4306 91.9947 74.6459 92.87C74.7664 92.7842 74.8783 92.6983 74.9988 92.6125C74.4565 92.7069 73.7592 92.8271 73.3804 92.3208C72.9845 91.7974 73.0878 91.0251 73.3202 90.4673C73.1136 90.5102 72.907 90.5446 72.7004 90.5875C72.7004 90.9993 72.709 91.4112 72.7176 91.8145C72.7176 92.0548 72.6315 92.5267 72.7779 92.7498C72.8984 92.9472 73.148 92.9386 73.346 92.9214C73.7678 92.8871 74.1896 92.8185 74.6028 92.7756C74.7233 92.7584 74.973 92.6812 74.9558 92.5182C74.8352 91.497 74.138 90.6475 73.1738 90.3129C72.9845 90.2442 72.4163 90.5274 72.6746 90.6132H72.6659Z" fill="white"/>
<path d="M73.9216 91.9003C73.1641 92.0033 72.8456 92.0634 72.2602 92.6211C71.9073 92.9558 71.8298 93.4878 71.5113 93.8053C70.177 95.1353 68.2057 94.6462 66.5357 94.466C63.738 94.1571 61.0608 92.8099 58.5127 94.5089C57.8069 94.9723 58.8398 95.3756 59.3305 95.0495C61.035 93.9168 63.7036 95.0409 65.5457 95.2812C67.0091 95.4785 68.6275 95.6416 70.1081 95.4785C70.6419 95.4185 71.167 95.3841 71.649 95.1095C72.4324 94.6548 73.0866 92.8785 73.8011 92.7756C74.4812 92.6812 74.7652 91.7802 73.9216 91.8917V91.9003Z" fill="white"/>
<path d="M41.1738 85.6964C40.795 85.3703 40.4765 85.0357 40.2613 84.5809C40.1838 84.4265 39.9342 83.3367 39.7792 83.4397C39.3574 83.5512 38.9442 83.6628 38.5224 83.7743C39.1164 83.7743 39.3402 85.3189 39.323 85.6878C40.158 85.5334 40.993 85.3789 41.8194 85.2245C41.6559 84.4951 41.785 83.3796 42.5425 82.9763C41.9571 82.8905 41.3718 82.8047 40.7778 82.7189C40.9155 83.3367 40.8208 83.903 40.554 84.4779C40.4593 84.6753 40.3474 84.8727 40.2355 85.0614C40.2441 85.0443 39.8481 85.7736 39.8911 85.7393C40.313 85.6878 40.7348 85.6449 41.1566 85.5934C40.7692 85.5248 40.4163 85.2588 40.0375 85.1558C39.6071 85.0357 39.1422 85.0014 38.7032 85.0185C37.7993 85.0614 36.9557 85.3532 36.2068 85.8594C35.785 86.134 35.5439 86.5974 36.0174 86.9406C37.653 88.1505 39.7362 88.3736 41.6645 87.8502C42.0346 87.7472 42.6716 87.4641 42.7319 87.0093C42.8352 86.2027 42.9385 85.3875 43.0504 84.5809C43.1881 83.4912 40.6659 83.903 40.5454 84.8469C40.4421 85.6535 40.3388 86.4687 40.2269 87.2753C40.5798 86.9921 40.9328 86.7175 41.2943 86.4344C40.0891 86.7604 38.9615 86.3743 37.9887 85.6535C37.9285 86.0139 37.8596 86.3743 37.7993 86.7347C38.4966 86.2713 39.2025 87.0779 39.9514 87.1037C40.7003 87.1294 41.4062 86.769 41.8797 86.2198C42.8438 85.0958 43.6099 83.5426 43.2742 82.0496C43.1279 81.3889 41.8883 81.5948 41.5095 81.7922C39.96 82.6159 38.9098 84.0832 39.323 85.8852C39.5296 86.8033 41.7936 86.2456 41.8194 85.4218C41.8883 83.6713 40.6315 81.6463 38.6257 82.3585C36.5253 83.105 37.6099 85.6707 38.8495 86.7261C39.5813 87.3439 41.9227 86.3657 41.1566 85.705L41.1738 85.6964Z" fill="#FBEF39"/>
</svg>
