<svg width="120" height="120" viewBox="0 0 120 120" fill="none" xmlns="http://www.w3.org/2000/svg">
<path d="M33.375 103.998C33.814 86.8794 34.0292 69.7435 34.692 52.6334C34.9847 45.1595 35.9747 37.5741 41.0536 31.7134C45.8398 26.1874 53.0106 23.0039 60.2243 22.3346C68.781 21.5452 76.9933 24.1709 81.7624 31.6105C86.0665 38.3292 87.2028 46.5239 87.6246 54.3238C88.5285 70.9963 88.4252 87.7718 88.7867 104.461C88.804 105.114 90.0608 104.925 90.0522 104.367C89.7164 88.853 89.5184 73.3217 89.0278 57.8076C88.6748 46.6526 87.4955 32.4428 77.6045 25.2435C69.4525 19.3142 56.8671 20.4468 48.319 24.8831C38.1698 30.1517 34.1497 39.5477 33.5213 50.5569C32.5055 68.3534 32.5572 86.2701 32.1095 104.084C32.0923 104.727 33.3578 104.547 33.375 103.989V103.998Z" fill="#BBBBBB"/>
<path d="M33.0475 101.098C31.0676 94.8337 26.8582 89.9169 22.5196 85.1031C22.1925 84.7427 21.4177 84.9572 21.3144 85.4206C19.5755 93.5552 23.8539 101.175 31.6702 104.015C32.1953 104.204 33.1336 103.457 32.3933 103.191C24.8782 100.463 20.9184 93.0833 22.5798 85.3176L21.3747 85.6351C25.6616 90.3975 29.828 95.2113 31.7993 101.424C31.9801 101.982 33.2197 101.647 33.0475 101.089V101.098Z" fill="white"/>
<path d="M26.0568 96.9017C28.3896 99.1413 30.1113 101.819 31.1529 104.873C31.2993 105.302 32.5389 104.951 32.4011 104.539C31.3337 101.424 29.5948 98.6951 27.2189 96.4126C26.909 96.1123 25.7297 96.5842 26.0568 96.8931V96.9017Z" fill="white"/>
<path d="M33.7335 103.698C34.0176 94.2588 40.052 88.3209 46.8698 82.5289C46.4738 82.6061 46.0778 82.6833 45.6819 82.752C44.4078 90.3717 39.4408 100.9 31.9172 104.007C31.1682 104.316 32.3476 104.247 32.623 104.127C40.5943 100.84 45.5872 90.4575 46.9301 82.4173C46.9645 82.2028 45.8454 82.5632 45.7421 82.6404C38.8641 88.4754 32.7694 94.5163 32.4767 104.024C32.4767 104.17 33.7163 104.024 33.7249 103.689L33.7335 103.698Z" fill="white"/>
<path d="M33.2096 103.337C35.6629 98.9954 38.5295 94.9539 41.8179 91.2127C42.3258 90.6377 41.1292 90.5262 40.7935 90.9037C37.4449 94.7136 34.5266 98.8238 32.0302 103.234C31.7031 103.809 32.9685 103.766 33.2096 103.329V103.337Z" fill="white"/>
<path d="M33.5711 104.745C36.7218 101.664 40.5955 99.7162 44.9599 99.0641C44.7706 98.9354 44.5812 98.8152 44.3918 98.6865C44.366 100.463 40.871 102.127 39.5625 102.694C37.4277 103.612 35.1895 103.964 32.8739 103.869C32.2971 103.844 31.5912 104.693 32.4262 104.727C35.1981 104.839 37.927 104.401 40.4492 103.217C42.1536 102.428 45.6228 100.72 45.6486 98.575C45.6486 98.2832 45.3387 98.1631 45.0805 98.1974C40.2684 98.9182 36.0159 101.003 32.5381 104.41C31.9872 104.942 33.201 105.105 33.5711 104.745Z" fill="white"/>
<path d="M37.8233 101.123C36.5578 101.758 35.2838 102.393 34.0184 103.028C33.5363 103.269 33.9065 103.483 34.2852 103.415C36.1877 103.088 37.961 102.522 39.6999 101.698C40.3283 101.398 39.5966 101.261 39.2695 101.347C37.6167 101.793 36.1188 102.453 34.6812 103.38C34.268 103.646 34.862 103.732 35.06 103.698C37.1088 103.397 39.0542 102.84 40.9481 102.007C41.0514 101.956 41.4818 101.784 41.3096 101.604C40.3025 100.583 36.9108 102.685 35.9725 103.046C35.6367 103.174 35.3871 103.552 35.938 103.518C37.8405 103.397 39.7085 103.08 41.0083 101.57C41.3441 101.175 40.1819 101.415 40.07 101.475C38.3311 102.342 36.5406 102.968 34.6296 103.354C34.3197 103.415 33.4588 103.947 34.268 103.912C36.1705 103.826 38.5377 104.11 39.9925 102.642C40.3283 102.308 39.3039 102.445 39.192 102.488C38.5722 102.78 37.9266 102.977 37.2465 103.08C37.3756 103.183 37.4961 103.294 37.6253 103.397C39.4072 102.076 41.2752 100.952 43.2809 100.008C43.9007 99.7162 43.1862 99.5532 42.8505 99.6561C41.3268 100.128 39.9151 100.72 38.5205 101.501C38.202 101.681 38.2192 101.947 38.6324 101.904C40.4832 101.724 42.0155 101.081 43.2981 99.7076C43.4961 99.4931 43.1174 99.4416 42.9882 99.4502C41.2321 99.4931 39.7085 100.034 38.3742 101.184C37.9524 101.544 38.7013 101.527 38.9251 101.467C40.9567 100.883 42.9796 100.3 45.0112 99.7162C44.8649 99.5961 44.7271 99.4845 44.5808 99.3644C43.2035 100.197 41.8261 101.02 40.4488 101.853C39.7257 102.29 40.862 102.256 41.1891 102.093C42.6095 101.355 43.8577 100.609 44.6324 99.167C44.8132 98.8324 43.6339 99.1499 43.5306 99.2185C42.4717 99.9565 41.3785 100.566 40.2078 101.098C40.4918 101.149 40.7759 101.209 41.06 101.261C42.1963 100.549 43.3326 99.8278 44.4689 99.1156C45.0112 98.7723 43.763 98.8496 43.4961 99.0212C42.3598 99.7334 41.2235 100.454 40.0872 101.166C39.5191 101.527 40.7587 101.415 40.9395 101.329C42.2049 100.763 43.367 100.102 44.4947 99.3129C44.1245 99.3301 43.763 99.3472 43.3928 99.3644C42.7214 100.609 41.6626 101.218 40.4402 101.853C40.6898 101.93 40.9309 102.007 41.1805 102.093C42.5578 101.261 43.9352 100.437 45.3125 99.6047C45.8893 99.2529 45.2436 99.1499 44.8821 99.2529C42.8505 99.8364 40.8276 100.42 38.796 101.003L39.3469 101.287C39.6482 100.892 40.0614 100.703 40.5693 100.72C41.8433 100.36 41.6195 100.583 39.9065 101.389C40.2508 100.746 42.3857 100.325 42.9882 100.137C42.8419 100.017 42.7042 99.905 42.5578 99.7849C40.4746 100.772 38.5291 101.939 36.6697 103.32C36.291 103.603 36.8247 103.681 37.0485 103.638C37.961 103.475 38.796 103.234 39.6568 102.865C39.39 102.814 39.1231 102.762 38.8563 102.711C38.0471 103.535 35.895 103.312 34.7931 103.363C34.6726 103.552 34.5521 103.732 34.4316 103.921C36.6697 103.466 38.7788 102.754 40.8276 101.733C40.5177 101.698 40.1992 101.673 39.8893 101.638C38.8907 102.548 37.7544 102.994 36.4804 102.968C36.4717 103.123 36.4545 103.277 36.4459 103.44C36.8763 103.277 39.8979 101.819 40.1561 102.085C40.2766 101.947 40.3971 101.819 40.5177 101.681C38.8218 102.428 37.1174 102.925 35.2924 103.191C35.4215 103.294 35.542 103.406 35.6712 103.509C36.8591 102.745 38.0557 102.222 39.4158 101.853C39.2695 101.733 39.1317 101.621 38.9854 101.501C37.5392 102.187 36.093 102.642 34.5177 102.908C34.6037 103.037 34.6898 103.166 34.7845 103.294C36.0499 102.659 37.324 102.024 38.5894 101.389C39.3297 101.02 38.1848 100.986 37.8491 101.149L37.8233 101.123Z" fill="white"/>
<path d="M35.0446 89.8311C37.3602 86.5619 37.6357 82.589 35.2684 79.251C33.4693 76.7197 31.2655 74.9692 30.663 71.76C29.9915 68.1646 31.1106 64.7409 33.1077 61.7719C33.4004 61.3343 32.1608 61.4716 31.9542 61.7719C29.4578 65.4788 28.2182 70.1811 30.1465 74.4372C31.1536 76.6682 33.0905 78.1269 34.3559 80.1863C36.2842 83.3269 36.0173 86.8279 33.8911 89.8226C33.5898 90.2516 34.8294 90.1229 35.0446 89.8226V89.8311Z" fill="white"/>
<path d="M35.1307 60.3904C38.2211 56.9924 39.2283 52.2301 37.1278 48.0169C35.5095 44.7734 32.7634 42.7569 32.7634 38.8269C32.7634 33.1035 37.343 29.019 42.5339 27.4058C46.7519 26.093 51.2111 26.1702 55.5841 26.2131C57.8739 26.2389 60.3703 26.5649 62.5568 25.7326C64.7778 24.8831 68.8753 21.4422 67.0418 18.7478C65.7677 16.8686 63.2713 17.7353 62.5913 19.6574C61.1967 23.6303 66.4047 25.6897 69.3402 25.9471C76.3646 26.5649 86.488 24.66 88.1752 34.1332C88.838 37.8401 87.607 41.3668 86.0748 44.679C85.1192 46.7384 84.3617 48.6262 84.6286 50.9601C85.059 54.6585 87.4779 57.799 88.4679 61.3429C89.7591 65.9851 88.3129 69.6234 87.0819 74.0253C85.1106 81.0273 91.7476 86.2701 90.2412 93.0575C90.1121 93.6496 91.3861 93.4951 91.5066 92.9546C92.1608 90.0199 91.3344 87.583 90.1809 84.8543C88.3474 80.5124 87.2455 77.4491 88.7606 72.721C90.8696 66.131 90.1895 61.8063 87.4607 55.4908C85.4894 50.9344 85.8682 48.1285 87.8309 43.6579C89.0102 40.9635 89.8022 38.0804 89.5783 35.1028C89.1996 30.023 85.894 26.6765 81.0045 25.5867C78.3703 25.0032 75.6673 25.1148 72.9901 25.0976C71.6903 25.1319 70.3904 25.0976 69.0905 25.0032C66.6372 24.8488 64.8983 23.6818 63.8739 21.5108C67.9284 23.1755 60.3703 25.2263 58.9758 25.3465C52.0977 25.9471 45.3918 24.6085 38.9614 27.9379C34.7605 30.1088 31.3775 34.1761 31.4463 39.0929C31.4894 42.5595 33.5382 44.5331 35.2684 47.3219C37.8768 51.5265 37.4636 56.3403 34.1149 60.0215C33.5898 60.5964 34.7864 60.7766 35.1565 60.3733L35.1307 60.3904Z" fill="white"/>
<path d="M34.1306 62.4755C33.5968 62.4498 32.2195 62.6042 31.7891 62.3297C30.2568 61.3772 32.3486 61.2571 32.7274 61.1627C32.8996 61.1198 33.8723 60.6993 33.4763 60.3561C32.2109 59.2577 29.9297 56.6663 31.4878 54.8987C31.0057 55.0617 30.5237 55.2248 30.0416 55.3792C30.4118 55.4221 31.4103 56.9924 31.6341 57.2927C32.34 58.2452 32.9598 59.2406 33.5366 60.2789C33.812 60.7765 35.3874 60.5105 35.4046 59.9099C35.4476 58.065 35.5165 55.997 36.911 54.6155C36.3515 54.6498 35.792 54.6928 35.2324 54.7271C35.8006 56.6578 35.6198 58.5198 34.7331 60.3218C34.406 60.9825 36.2396 60.4762 36.4118 60.3389C36.9799 59.9013 38.0043 59.1805 37.2726 60.3647C36.9369 60.9053 36.1535 61.4201 35.6284 61.7033C35.0689 62.0122 33.8637 62.527 33.2009 62.3726C32.2884 62.158 34.8537 62.0379 35.0775 62.0551C35.3271 61.7118 35.5681 61.3772 35.8178 61.034C34.4663 60.9739 32.8823 61.1455 32.1162 62.4069C31.6427 63.1792 33.3128 62.8016 33.5624 62.6729C34.3458 62.2782 36.274 60.828 35.2927 59.8498C34.9225 59.4808 34.3113 59.5152 33.8293 59.6267C32.5897 59.9185 32.0732 60.9567 30.627 61.0854C30.0072 61.1455 28.9483 62.1237 30.1277 62.098C31.2726 62.0637 33.8895 61.6346 34.406 60.399C34.6643 59.7812 34.1392 59.335 33.7948 58.863C33.0029 57.7904 32.1679 56.7436 31.3587 55.6795C30.9885 55.199 29.198 55.7997 29.6198 56.4003C30.6097 57.8076 31.9613 59.6782 33.5624 60.459C34.845 61.0769 36.2482 60.4419 37.3759 59.7812C36.8938 59.6954 36.4118 59.601 35.9297 59.5152C35.4735 60.133 34.9828 60.6564 34.3974 61.1455C33.6313 61.7891 35.1549 61.8062 35.5079 61.6518C36.6356 61.1455 37.6255 60.5191 38.538 59.6868C39.3214 58.966 37.4792 59.0089 37.0488 59.4122C36.3515 60.0472 35.6456 60.5363 34.7848 60.931C35.1549 61.1026 35.5251 61.2656 35.8953 61.4373C36.5753 60.8709 37.1521 60.2531 37.6772 59.5495C38.2023 58.8373 36.472 59.1376 36.231 59.2835C34.4577 60.3303 32.1851 56.8723 31.3673 55.7053C30.7905 55.9455 30.2052 56.1858 29.6284 56.4261C30.2396 57.2241 30.8508 58.0135 31.4534 58.8115C31.66 59.0775 32.1851 59.5495 32.2625 59.8756C32.5724 60.0987 32.5294 60.3132 32.1334 60.5277C31.8752 60.9911 31.4534 61.1798 30.868 61.1112C30.7044 61.4458 30.5323 61.7805 30.3687 62.1237C31.1951 62.0465 31.9871 61.8749 32.736 61.5059C32.8565 61.4458 33.9153 60.8538 33.8723 60.7765C34.0531 61.0511 32.5552 62.1237 32.4175 62.1924C32.8996 62.2782 33.3816 62.3726 33.8637 62.4584C34.2339 62.1237 34.6384 62.0036 35.0947 62.0894C35.7834 62.1237 37.0918 61.1284 35.835 61.0683C34.845 61.0168 30.7561 60.7508 30.7217 62.527C30.6872 64.329 34.8192 63.1448 35.6714 62.8016C36.7217 62.3811 40.208 60.5105 39.5538 58.9917C38.8307 57.3099 35.637 59.5752 34.9397 60.1072C35.4993 60.1072 36.0588 60.1158 36.6184 60.1244C37.5481 58.2538 37.7116 56.2802 37.1262 54.2809C36.9627 53.706 35.7145 54.1264 35.4476 54.3924C33.8465 55.997 33.6227 58.0307 33.571 60.2102C34.1908 60.0901 34.8192 59.9614 35.439 59.8412C34.5782 58.2881 33.6054 56.8036 32.4605 55.4393C31.8493 54.7099 31.2984 54.135 30.2912 54.5898C29.4218 54.9845 29.2066 56.0485 29.241 56.9238C29.3099 58.6828 30.5064 60.0386 31.7719 61.1369C32.0215 60.8709 32.2712 60.5963 32.5208 60.3303C31.6169 60.562 28.957 60.6307 29.1463 62.2524C29.3357 63.8141 32.4519 63.5052 33.4247 63.5567C34.1133 63.591 35.4218 62.6043 34.165 62.5356L34.1306 62.4755Z" fill="#FBEF39"/>
<path d="M87.7173 39.7794C85.9354 39.1615 83.7575 38.8011 82.1219 40.0711C79.5566 42.0618 82.7589 44.1556 84.7646 44.4216C84.9971 44.2156 85.2295 44.0097 85.4619 43.8123C83.6542 44.2843 81.373 46.9272 83.8522 48.3773C85.9956 49.6215 87.9669 47.1588 88.3629 45.4169C87.7517 45.5285 87.1319 45.6486 86.5207 45.7602C85.9612 48.6948 89.3701 48.9007 91.3672 48.1714C92.3227 47.8196 93.1405 47.3648 93.3643 46.3093C93.5279 45.5371 93.3127 44.782 93.5365 43.9839C93.7603 43.2031 94.0444 42.6968 94.0186 41.8387C93.9669 40.3199 93.0631 38.9728 91.6943 38.3206C91.1348 38.046 90.5494 38.0031 89.9555 37.8487C89.0688 37.6256 88.2338 37.1365 87.3127 37.0678C85.4361 36.9305 83.4476 38.1662 83.7833 40.1998C83.8435 40.543 85.7288 40.1397 85.6513 39.7021C85.2725 37.4454 87.0975 38.2348 88.406 38.5523C90.0415 38.947 91.4705 39.5563 91.9956 41.3153C92.3744 42.5939 91.8321 43.5721 91.5394 44.7905C91.3758 45.4684 91.7546 46.6612 91.35 47.2618C89.8952 49.407 88.1305 46.6354 88.3629 45.4255C88.4318 45.048 86.6154 45.3311 86.5207 45.7688C86.3658 46.4724 86.0903 48.6605 84.9282 46.9615C84.4892 46.3179 84.756 44.5846 85.5996 44.3615C85.6943 44.3358 86.8737 43.8209 86.2969 43.7523C85.1348 43.5978 83.8349 43.3146 83.2926 42.1305C82.3887 40.1569 84.5322 39.951 85.944 40.4315C86.4605 40.6117 87.8292 39.848 87.7087 39.8051L87.7173 39.7794Z" fill="#FBEF39"/>
<path d="M85.0728 39.539C83.9451 39.6849 82.1374 40.1225 82.1804 41.6156C82.2235 42.9628 83.9021 43.5463 84.9954 43.6492C85.3913 43.6922 86.5018 43.3661 86.2608 42.7483C85.9423 41.9502 85.7185 41.1694 85.5635 40.3199C84.9437 40.4829 84.3153 40.6545 83.6955 40.8176C83.971 41.7615 84.2464 42.7054 84.5219 43.6492C84.7371 44.3958 86.0886 44.0096 86.3469 43.4862C86.9322 42.2849 87.1302 41.1437 87.0441 39.8136C86.4932 40.0711 85.9337 40.3285 85.3827 40.5859C86.8548 41.4697 81.5262 46.4723 84.4875 47.4248C86.8375 48.1799 87.311 43.5549 88.4301 42.508C87.8619 42.508 87.2852 42.508 86.717 42.508C86.8892 44.3529 84.5822 45.5456 84.4014 47.4248C84.3411 48.1027 85.3569 48.0684 85.7529 47.8624C87.5951 46.8756 88.9982 45.5199 89.9538 43.6492C89.3426 43.6492 88.7314 43.6492 88.1202 43.6407C87.5693 45.5628 87.9997 47.502 90.2206 47.8195C90.5994 47.871 91.5033 47.6136 91.4946 47.0901C91.486 45.803 91.1589 44.7647 90.3756 43.7351C89.971 43.203 88.2665 43.6407 88.585 44.3872C89.1704 45.7601 91.9853 46.6697 92.9495 45.1251C94.103 43.2717 90.5477 41.1522 89.3598 40.4486C88.8088 40.1225 87.8619 40.4057 87.6898 41.0493C87.2421 42.7311 89.1618 45.9403 91.0126 44.1212C93.1474 42.0275 87.466 39.6763 87.354 38.0717C86.7601 38.2862 86.1575 38.5093 85.5635 38.7239C86.0972 39.3331 85.8992 40.114 86.037 40.8433C86.1661 41.5555 86.4674 42.1476 86.8203 42.774C87.1733 43.3918 88.5334 42.9027 88.6281 42.2935C88.7916 41.2037 88.8605 40.1397 88.8347 39.0414C88.4129 39.2816 87.9825 39.5305 87.5606 39.7707C88.9121 39.8823 90.4186 40.174 90.5736 41.7357C91.1245 41.4783 91.684 41.2209 92.235 40.9635C90.8404 40.2255 89.2134 39.2645 88.3354 37.9173C88.3096 38.1318 88.2837 38.3549 88.2493 38.5694C88.3096 38.4922 88.3698 38.415 88.4215 38.3377C87.9222 38.4235 87.4229 38.5179 86.9236 38.6037C86.915 38.5523 86.9064 38.5008 86.8892 38.4493C86.3555 39.2902 88.2579 39.2816 88.6711 38.6295C88.938 38.209 88.8347 37.78 88.3698 37.5655C87.9136 37.3509 87.1991 37.3938 86.872 37.8315C86.8117 37.9087 86.7515 37.9859 86.6998 38.0631C86.5449 38.2691 86.4588 38.475 86.6137 38.7153C87.5434 40.1397 89.3167 41.2209 90.7802 41.9932C91.3483 42.2935 92.519 42.0189 92.4416 41.2209C92.2264 39.0671 90.0226 38.6123 88.2235 38.4579C87.8447 38.4235 86.9322 38.6466 86.9495 39.1872C86.9753 40.2856 86.9064 41.3496 86.7428 42.4394C87.3454 42.2763 87.948 42.1219 88.5506 41.9588C87.8361 40.6803 88.2407 38.9813 87.3024 37.9087C86.7945 37.3424 85.4516 37.7628 85.5119 38.5608C85.5807 39.539 86.0972 40.0539 86.8806 40.5945C87.1561 40.7833 90.1862 43.0572 89.5664 43.4948L90.7285 43.2889C89.5319 43.0314 89.3512 41.8473 89.6094 40.8776C89.0499 41.075 88.499 41.2809 87.9394 41.4783C88.5334 41.8301 92.08 43.9753 91.1417 44.8935C91.4344 44.7648 91.7185 44.6275 92.0111 44.4987C91.3483 44.6446 90.8404 44.4387 90.4875 43.8809C89.8935 44.0954 89.2909 44.3185 88.6969 44.5331C89.334 45.374 89.6352 46.1806 89.6439 47.2446C90.0657 47.0043 90.4961 46.7555 90.9179 46.5152C89.4545 46.3093 89.7644 44.4558 90.0398 43.4691C90.2895 42.6024 88.4731 42.9285 88.2063 43.4605C87.4573 44.9278 86.433 46.0347 84.9781 46.8241C85.4258 46.97 85.882 47.1159 86.3297 47.2618C86.5276 45.168 88.8347 44.2842 88.6195 42.0103C88.5506 41.238 87.1991 41.7357 86.9064 42.0103C86.3038 42.5766 85.9595 43.1773 85.6496 43.941C85.5205 44.2499 85.047 46.172 84.9007 46.2235C85.1934 46.2492 85.4946 46.275 85.7873 46.3093C84.1862 45.1595 89.4028 41.0836 86.8634 39.5562C86.2866 39.213 85.1503 39.5562 85.202 40.3285C85.2794 41.4182 85.0814 42.345 84.5994 43.3232C85.2106 43.2717 85.8132 43.2202 86.4243 43.1601C86.1489 42.2163 85.8734 41.2724 85.5979 40.3285C85.3569 39.5133 83.575 39.9938 83.7299 40.8262C83.8849 41.6671 84.1087 42.4565 84.4272 43.2545C84.849 42.9542 85.2708 42.6539 85.6926 42.3535C84.169 42.2077 83.9107 41.7014 84.9179 40.8347C85.9251 40.706 86.3813 39.376 85.0987 39.539H85.0728Z" fill="#FBEF39"/>
<path d="M61.7833 19.992C61.086 19.9234 60.4232 19.7947 59.769 19.5458C59.2267 19.3399 58.3056 19.0138 57.9612 18.5247C57.8924 18.4646 57.8235 18.396 57.7546 18.3359C57.9698 18.0099 58.2195 17.9841 58.4949 18.2759C58.779 18.4475 59.0287 18.6706 59.2869 18.8851C59.8809 19.3742 60.4662 19.8719 61.0516 20.3696C61.5337 20.0006 62.0071 19.6316 62.4892 19.2712C61.1549 18.4904 59.8292 17.7095 58.4949 16.9287C57.9612 16.6198 56.2482 17.126 56.9196 17.8983C58.0129 19.1511 59.8981 19.2884 60.8967 20.5755C61.4304 21.262 63.066 20.6442 62.6097 19.7432C62.2051 18.9538 60.7417 16.9201 61.6886 16.0963L60.208 16.0706C60.9483 17.5208 61.1807 19.0996 60.9483 20.7042C60.8106 21.6739 62.7216 21.4508 62.8508 20.5755C63.1176 18.7049 62.7733 16.9115 61.9211 15.2383C61.6714 14.7577 60.7503 14.9465 60.4404 15.2125C58.6069 16.7828 60.0358 18.8851 60.8967 20.5841C61.4648 20.3095 62.033 20.0264 62.6097 19.7518C61.5595 18.4132 59.7087 18.3102 58.6327 17.0746C58.1076 17.4006 57.5825 17.7181 57.0574 18.0442C58.3916 18.825 59.7173 19.6059 61.0516 20.3867C61.7403 20.79 63.3672 20.0264 62.4892 19.2884C61.4218 18.3874 60.2941 17.0917 58.8995 16.7313C57.8838 16.4653 56.5495 16.7571 56.0071 17.7353C54.7331 20.0349 59.7173 21.2706 61.1463 21.3993C62.0932 21.4851 63.0401 20.1207 61.7833 20.0006V19.992Z" fill="#FBEF39"/>
<path d="M32.2544 104.384C35.3362 103.775 38.2286 102.702 40.9661 101.166C41.3276 100.96 41.0005 100.411 40.6389 100.609C37.9531 102.119 35.1038 103.166 32.0823 103.766C31.6777 103.844 31.8498 104.47 32.2544 104.384Z" fill="#CFCFCF"/>
<path d="M31.6711 98.8496C31.2234 95.1942 31.3784 91.6246 32.1359 88.0121H31.5161C32.5319 91.9935 33.2206 95.9836 32.4458 100.077C32.6438 100.051 32.8418 100.025 33.0398 99.9994C32.5663 99.2443 32.0843 98.4892 31.6108 97.7255C31.4214 97.4252 30.9221 97.614 31.0168 97.9744C31.2665 98.8925 31.5936 99.6305 32.1015 100.437C32.2736 100.703 32.7041 100.6 32.7041 100.274C32.7299 97.1763 32.7471 94.0701 32.7729 90.9724C32.7729 90.6206 32.2048 90.5262 32.1359 90.8866C31.6452 93.4952 31.6711 96.0866 31.8174 98.7295C31.8346 99.0984 32.3339 99.1585 32.4544 98.8153C33.2722 96.4899 33.2378 94.2417 32.3511 91.9421C32.2306 91.6417 31.8432 91.6331 31.7313 91.9421C30.948 94.01 31.0685 96.0351 31.3956 98.1889C31.4559 98.5664 32.0154 98.4463 32.0326 98.1031C32.1617 95.6833 32.2995 93.2721 32.3683 90.8523C32.3855 90.1916 32.5921 89.4279 31.8346 89.2391C31.6194 89.1876 31.4386 89.3421 31.43 89.548C31.3095 91.2985 31.2148 93.049 31.1459 94.7995H31.7916C31.826 94.2846 31.8604 93.7612 31.8949 93.2463H31.2751C31.6538 95.3744 31.1804 97.4853 31.9035 99.5532C31.9982 99.8364 32.4458 99.8793 32.5233 99.5532C33.0226 97.4767 32.1962 95.5031 32.4028 93.4094C32.4458 92.9975 31.8002 92.9975 31.7571 93.4094C31.5505 95.4173 32.3855 97.3909 31.8949 99.3816H32.5147C31.8002 97.3394 32.2564 95.177 31.8863 93.0747C31.8346 92.7744 31.3095 92.7658 31.2665 93.0747C31.1115 94.0615 31.1287 93.7955 31.1373 94.7995C31.1373 95.2113 31.7657 95.2113 31.783 94.7995C31.826 93.6925 32.0843 92.3883 31.9465 91.2985C31.7916 90.02 31.826 90.6549 31.6797 91.7533C31.3956 93.8212 31.4903 96.0094 31.3784 98.0945C31.5936 98.0687 31.8002 98.0344 32.0154 98.0087C31.7055 95.975 31.6108 94.0615 32.3511 92.1051H31.7313C32.5835 94.3189 32.618 96.3955 31.8346 98.6351C32.0498 98.6608 32.2564 98.6951 32.4716 98.7209C32.3339 96.1381 32.2822 93.6067 32.7729 91.0497C32.5577 91.0239 32.3511 90.9896 32.1359 90.9638C32.1101 94.0615 32.0929 97.1678 32.067 100.265C32.265 100.214 32.4716 100.154 32.6696 100.102C32.2048 99.373 31.8777 98.6351 31.6538 97.7942C31.4558 97.88 31.2579 97.9572 31.0599 98.043C31.5333 98.7981 32.0154 99.5532 32.4888 100.317C32.6266 100.531 33.0226 100.523 33.0828 100.24C33.8748 96.0265 33.1947 91.9421 32.1531 87.8319C32.0756 87.5315 31.5936 87.5144 31.5333 87.8319C30.7586 91.4873 30.5864 95.1255 31.0427 98.8324C31.0943 99.2357 31.7399 99.2443 31.6883 98.8324L31.6711 98.8496Z" fill="#CFCFCF"/>
<path d="M34.3143 63.0848C34.3401 62.3554 35.1751 61.5403 35.9412 61.8663C36.3803 62.0551 36.0962 62.3554 35.7863 62.5185C35.6313 62.6043 35.4075 62.6386 35.2354 62.6729C34.7619 62.7759 34.2884 62.7931 33.8064 62.7501C33.858 62.9475 33.9183 63.1534 33.9699 63.3508C34.5553 63.0762 35.089 62.7416 35.5969 62.3469C35.7346 62.2439 35.7088 62.0036 35.5969 61.8921C35.1493 61.4373 34.3487 61.6432 34.2024 62.2782C34.1507 62.4927 34.297 62.6729 34.5123 62.6815C35.0115 62.7158 36.5352 62.5699 36.3458 61.7462C36.1651 60.9825 35.0374 61.3515 34.6672 61.7119C34.5467 61.832 34.5381 62.0465 34.6672 62.1667C35.2267 62.6901 36.1306 62.6729 36.6299 62.0637C36.8882 61.7462 36.4405 61.2914 36.1737 61.6089C35.9068 61.935 35.4506 62.0122 35.1234 61.7119V62.1667C35.1751 62.1238 35.2354 62.0808 35.287 62.0294C35.3903 61.9607 35.5022 61.9435 35.6141 61.9607C35.7519 62.0036 35.7863 61.9779 35.7002 61.9006C35.6486 61.7719 35.5539 61.7891 35.4247 61.935C35.1321 62.0379 34.8222 62.0637 34.5123 62.0379C34.6156 62.1752 34.7189 62.3125 34.8222 62.4412C34.8824 62.2696 34.9857 62.2353 35.1321 62.3383V61.8835C34.6672 62.2439 34.1679 62.5356 33.6342 62.7845C33.3157 62.9303 33.5051 63.3594 33.7978 63.3851C34.6758 63.4538 35.7691 63.3594 36.5352 62.8703C37.112 62.5099 36.9656 61.8234 36.5008 61.4373C35.33 60.4848 33.7031 61.7977 33.66 63.0591C33.6428 63.4709 34.2884 63.4709 34.3057 63.0591L34.3143 63.0848Z" fill="#CFCFCF"/>
<path d="M62.4558 20.198C61.7241 20.1208 61.0096 20.5241 60.7083 21.1934C60.6481 21.3392 60.6481 21.5623 60.8203 21.631C61.836 22.06 63.0068 21.3736 63.0842 20.2581C63.0842 20.1465 63.0154 20.035 62.9207 19.9835C62.1718 19.5544 61.1732 20.3181 61.4573 21.159C61.5175 21.3307 61.6725 21.425 61.8533 21.3821C62.43 21.2449 62.9293 20.9274 63.2995 20.464C63.5491 20.1379 63.1015 19.6831 62.8432 20.0092C62.5419 20.3954 62.1632 20.6528 61.6811 20.7643C61.8102 20.8416 61.9479 20.9102 62.0771 20.9874C61.9824 20.7043 62.3095 20.3782 62.5936 20.5412C62.5419 20.4468 62.4903 20.3524 62.43 20.2666C62.3956 20.8501 61.6983 21.3135 61.1388 21.0818C61.1732 21.2277 61.2162 21.3736 61.2507 21.5194C61.4659 21.0303 61.9049 20.7815 62.4386 20.8416C62.8518 20.8845 62.8518 20.2409 62.4386 20.198H62.4558Z" fill="#CFCFCF"/>
<path d="M89.4159 102.496C87.7717 97.9571 83.3728 96.0522 79.1547 94.439C78.9395 94.3532 78.6727 94.6192 78.7588 94.8337C80.6182 99.4416 84.6985 102.677 89.6397 103.372C90.0443 103.432 90.225 102.805 89.8118 102.754C85.1117 102.093 81.1605 99.0726 79.3786 94.6707C79.2494 94.7994 79.1117 94.9367 78.9826 95.0654C82.9596 96.5842 87.2293 98.3604 88.7875 102.677C88.9252 103.063 89.5536 102.9 89.4073 102.505L89.4159 102.496Z" fill="#CFCFCF"/>
<path d="M32.4186 81.1731C31.3512 79.8774 31.0843 78.1956 31.6266 76.6167C31.7644 76.222 31.136 76.059 31.0068 76.4451C30.3784 78.2471 30.7572 80.152 31.9624 81.6279C32.2292 81.9454 32.6768 81.4906 32.4186 81.1731Z" fill="#CFCFCF"/>
<path d="M32.3915 75.218C33.7688 73.2273 35.7573 71.1765 36.0586 68.6966C36.3169 66.5686 36.1017 64.2089 35.5852 62.1409C35.4819 61.7376 34.8621 61.9092 34.9654 62.3125C35.4647 64.2947 35.8262 67.1607 35.3441 69.2286C34.8621 71.2795 33.0113 73.2101 31.8406 74.9005C31.6081 75.2438 32.1677 75.5613 32.4001 75.2266L32.3915 75.218Z" fill="#CFCFCF"/>
<path d="M88.4495 36.4757C86.5471 34.3563 85.5141 31.7649 85.4194 28.9246C85.4022 28.5128 84.7566 28.5128 84.7738 28.9246C84.8685 31.9365 85.9789 34.6823 87.9933 36.9305C88.2688 37.2394 88.725 36.7846 88.4495 36.4757Z" fill="#CFCFCF"/>
<path d="M85.2047 26.7794C84.8517 24.0936 82.7255 22.5405 80.0999 22.2402C78.6709 22.0771 77.0698 22.1801 75.6752 22.5148C74.0655 22.9009 73.11 24.1451 71.5605 24.6085C71.1645 24.7286 71.3366 25.3464 71.7326 25.2263C73.2477 24.7629 74.2807 23.5273 75.8474 23.1326C79.0239 22.326 84.0167 22.6606 84.559 26.7794C84.6107 27.1827 85.2563 27.1913 85.2047 26.7794Z" fill="#CFCFCF"/>
<path d="M43.2143 28.4355C40.3219 30.8467 40.3735 35.0685 43.3606 37.3853C43.5931 37.5655 43.8771 37.4454 43.9116 37.1536C44.2301 34.2533 44.0579 31.4045 43.3951 28.5642C43.3004 28.1609 42.6806 28.3325 42.7753 28.7358C43.4209 31.5246 43.5844 34.3134 43.2659 37.1536C43.4467 37.0764 43.6361 36.9992 43.8169 36.9219C41.1053 34.8111 41.0192 31.087 43.6705 28.8817C43.989 28.6157 43.5328 28.1609 43.2143 28.4269V28.4355Z" fill="#CFCFCF"/>
<path d="M60.6634 21.4937C59.2947 21.9914 58.2014 22.8323 57.375 24.025C57.2545 24.2052 57.3837 24.4369 57.5644 24.4969C60.19 25.3722 62.7725 23.5187 62.8327 20.7729C62.8327 20.361 62.1957 20.361 62.1871 20.7729C62.1354 23.1154 59.9489 24.6085 57.7366 23.8791C57.7968 24.0336 57.8657 24.1966 57.926 24.3511C58.6491 23.3042 59.6304 22.5491 60.827 22.1201C61.2144 21.9828 61.0508 21.3564 60.6548 21.5023L60.6634 21.4937Z" fill="#CFCFCF"/>
<path d="M84.0413 99.2185C85.6425 100.48 87.1662 101.819 88.621 103.234C88.9136 103.526 89.3785 103.071 89.0772 102.78C87.6224 101.355 86.0987 100.017 84.4976 98.7638C84.1791 98.5063 83.7142 98.9611 84.0413 99.2185Z" fill="#CFCFCF"/>
<path d="M90.3121 103.312C91.4828 98.9268 95.1672 96.3354 98.7483 93.9242C98.4211 93.7354 98.1026 93.5552 97.7755 93.3664C97.3709 98.0344 94.3408 102.076 89.9592 103.775C89.193 104.075 89.5287 105.319 90.3035 105.019C95.2705 103.097 98.6105 98.6694 99.0668 93.375C99.1098 92.8945 98.4814 92.5598 98.094 92.8173C94.2203 95.4172 90.3207 98.2489 89.0639 102.968C88.8487 103.766 90.0969 104.11 90.3121 103.312Z" fill="white"/>
<path d="M89.1827 100.669C87.9603 99.27 86.6949 97.8113 86.23 95.9664C85.7566 94.0872 86.0062 91.8733 85.989 89.9427C85.6188 90.0971 85.2573 90.243 84.8871 90.3975C87.9 93.4351 89.2688 97.5281 88.6059 101.767H89.8541C88.9761 98.5835 87.9345 95.4687 86.7121 92.3968C86.4452 91.7361 85.4897 91.8047 85.4467 92.5684C85.3176 94.8852 85.8168 96.9532 86.9703 98.9611C87.1597 99.2872 87.7193 99.4245 87.9861 99.0898C89.527 97.1505 87.5385 93.0575 86.8326 91.1354C86.4366 91.2984 86.0493 91.4701 85.6533 91.6331C87.2114 94.4304 87.9 97.3822 87.7623 100.574C87.7279 101.407 89.0191 101.398 89.0536 100.574C89.1999 97.1505 88.4424 93.9756 86.7724 90.9809C86.428 90.3545 85.3348 90.775 85.593 91.4786C86.0062 92.6113 87.9345 97.1076 87.0736 98.1802C87.4094 98.2231 87.7537 98.266 88.0894 98.3089C87.0478 96.4984 86.6174 94.6535 86.7379 92.5684C86.3161 92.6285 85.8943 92.6799 85.4725 92.74C86.6949 95.8119 87.7365 98.9268 88.6145 102.11C88.7695 102.685 89.7594 102.762 89.8627 102.11C90.6031 97.4165 89.1741 92.8773 85.8168 89.4879C85.4295 89.0932 84.7064 89.3849 84.715 89.9427C84.7408 92.2337 84.4567 94.7994 85.2142 97.0133C85.8168 98.7637 87.0909 100.205 88.2874 101.578C88.8384 102.205 89.7422 101.286 89.1999 100.669H89.1827Z" fill="white"/>
</svg>
