<svg width="120" height="120" viewBox="0 0 120 120" fill="none" xmlns="http://www.w3.org/2000/svg">
<path d="M23.9837 42.918C25.2649 48.7808 27.0203 53.8894 32.9322 56.3935C36.7457 58.0125 41.2654 58.4148 45.321 57.5399C56.9833 54.9956 58.5874 44.4466 56.5999 34.2797C56.5293 33.9277 55.0564 34.2797 55.1371 34.6719C57.2557 45.5126 55.5003 58.093 40.3675 57.2885C31.1466 56.7957 27.2423 50.7217 25.4465 42.5359C25.3658 42.1839 23.903 42.5359 23.9837 42.9281V42.918Z" fill="white"/>
<path d="M25.4361 41.681C33.9004 35.4964 43.9586 32.8918 54.3801 34.169C54.713 34.2092 55.9236 33.6762 55.5907 33.636C44.3218 32.2482 33.2749 35.1344 24.1246 41.8218C23.8623 42.0129 25.1637 41.8821 25.4361 41.681Z" fill="white"/>
<path d="M27.495 41.9927C36.4132 42.576 47.3391 42.1033 54.5524 36.15C55.3192 35.5165 54.159 34.9533 53.5738 35.436C46.8145 41.0173 36.3729 41.4296 27.9994 40.8865C27.2528 40.8363 26.5164 41.9223 27.5051 41.9927H27.495Z" fill="white"/>
<path d="M43.7461 57.7912C45.7134 63.5233 47.3377 69.3459 48.6189 75.269C48.74 75.8221 50.2028 75.4601 50.0817 74.8768C48.8106 68.9537 47.1863 63.1311 45.209 57.399C45.0173 56.8359 43.5645 57.2482 43.7461 57.7912Z" fill="white"/>
<path d="M47.5597 59.8225C49.0629 64.8004 50.7477 69.7079 52.6342 74.555C52.7754 74.917 54.208 74.4544 54.097 74.1628C52.2105 69.3157 50.5257 64.4082 49.0225 59.4303C48.9216 59.0884 47.4588 59.4907 47.5597 59.8225Z" fill="white"/>
<path d="M48.9935 74.6958C47.8131 75.4501 42.6982 78.4569 44.4032 80.3977C45.0589 81.1419 46.7236 80.7899 47.5004 80.6994C49.3768 80.4782 51.2634 80.1262 53.0491 79.4826C54.6733 78.8994 60.0707 76.2244 59.2031 73.7908C58.4464 71.6588 53.382 73.4488 52.0806 74.1126C51.1827 74.5651 51.9999 75.1182 52.6758 74.7763C53.3517 74.4344 54.6431 73.7204 55.3694 73.8712C58.9105 74.5651 56.6507 76.2948 55.5813 77.1395C54.0478 78.3563 52.2218 78.9899 50.3252 79.4122C49.4273 79.6134 45.8055 80.6894 45.745 78.8189C45.7046 77.5216 48.9228 75.8221 49.9014 75.1986C50.7388 74.6657 49.4777 74.3941 48.9834 74.7159L48.9935 74.6958Z" fill="white"/>
<path d="M85.0104 47.1819C83.1137 47.0813 80.9043 47.6344 79.8854 49.4244C78.695 51.5061 80.0367 53.2156 82.2663 52.8838C84.3849 52.572 85.2525 50.8725 85.7368 48.9719C87.0886 43.6622 88.3497 38.443 90.0647 33.2237C89.5805 33.3243 89.0962 33.4249 88.6019 33.5254C89.6612 36.492 91.6991 38.4631 94.6954 39.4385C95.0989 39.5693 96.4205 38.9558 95.8656 38.7748C92.9601 37.8295 91.0837 36.0194 90.0546 33.1332C89.8932 32.6706 88.7129 33.0729 88.5918 33.4349C87.5022 36.7535 86.4026 40.0721 85.5249 43.451C85.1113 45.0298 84.7985 46.6187 84.4454 48.2076C84.3445 48.8613 84.1932 49.5049 84.0116 50.1485C79.724 50.5909 79.8551 49.8568 84.395 47.9461C84.9095 47.9763 85.9587 47.2422 84.9801 47.1919L85.0104 47.1819Z" fill="white"/>
<path d="M84.756 33.6863C86.1886 36.673 88.1659 39.2877 90.6477 41.5C90.9605 41.7816 92.3022 41.2285 92.0198 40.9771C89.5783 38.8049 87.6312 36.2406 86.2188 33.2941C86.0272 32.8919 84.6148 33.3846 84.756 33.6863Z" fill="white"/>
<path d="M78.864 61.6327C74.7681 59.8929 70.3795 61.4114 67.8271 65.0317C63.7715 70.7738 65.5269 78.3864 63.6707 84.8124C63.3176 86.0393 58.2531 94.7279 64.0036 93.2496C65.0629 92.9781 65.6682 92.3043 66.213 91.3993C66.9091 90.2528 67.01 88.493 67.3933 87.2762C68.2811 84.4403 69.5926 82.0067 71.2371 79.5731C70.7629 79.5731 70.2787 79.5731 69.8045 79.5731C69.8247 84.1386 69.5321 88.8249 69.865 93.3803C70.1172 96.9101 71.3178 97.604 74.2838 99.2331C77.6433 101.073 81.7998 103.557 85.5628 104.472C86.5716 104.714 87.6511 105.146 88.6499 104.603C90.1026 103.809 89.7697 102.954 89.5276 101.586C88.7003 96.9101 86.0269 92.3647 84.9978 87.6282C83.2424 79.4926 85.1794 70.4017 80.115 63.2718C79.7619 62.7791 78.3596 63.3121 78.7732 63.8953C82.4051 69.0039 82.163 74.6455 82.5463 80.6491C82.9196 86.532 84.453 92.1535 86.4506 97.6744C86.7936 98.6197 87.7217 100.128 87.7419 101.114C87.7823 103.396 86.8239 103.246 84.8062 102.873C81.9914 102.361 78.7429 100.168 76.2107 98.8308C74.6571 98.0163 73.7895 97.5436 72.6595 96.0855C70.9546 93.8932 71.348 91.8417 71.3279 89.1969C71.2976 85.9387 71.2976 82.6805 71.2875 79.4222C71.2875 78.668 70.1071 79.0501 69.8549 79.4222C67.9583 82.2279 66.667 85.0236 65.6985 88.2416C65.4362 89.2573 65.1537 90.2629 64.8409 91.2585C62.8232 90.635 62.4903 89.6294 63.8422 88.2215C63.9027 87.3566 64.9317 85.456 65.1537 84.6716C66.0919 81.4033 66.102 78.0345 66.4248 74.6757C66.9393 69.2855 69.1891 58.8069 78.0166 62.5679C78.5815 62.8093 79.7114 61.9947 78.8741 61.6427L78.864 61.6327Z" fill="white"/>
<path d="M79.6922 66.4196C79.1978 64.3178 76.9985 63.7245 75.3137 65.1826C73.9921 66.319 74.0022 68.1392 73.9316 69.6979C73.7702 73.4791 74.0022 77.3206 74.0325 81.1017C74.0829 86.2003 73.5281 91.1882 78.5017 94.0643C80.9734 95.4923 83.7074 96.6387 86.2598 95.0397C87.0871 94.5168 85.9067 93.9134 85.2711 94.3056C82.9407 95.7738 77.9973 92.5961 76.7967 90.8463C74.9405 88.1512 75.5559 84.1086 75.5256 81.0112L75.455 73.4087C75.4449 72.1416 75.4348 70.8745 75.4247 69.6074C75.0312 67.8174 75.9695 66.8821 78.2394 66.8118C78.4109 67.5257 79.8738 67.1436 79.7022 66.4196H79.6922Z" fill="white"/>
<path d="M28.9086 47.8858C36.7776 58.2639 55.2598 56.2526 54.6242 41.1079C54.6041 40.6352 53.1412 40.9269 53.1614 41.5001C53.4741 49.0725 47.31 55.3073 39.33 53.5576C35.5569 52.7329 32.5404 50.3094 30.2705 47.3126C29.9679 46.9104 28.5555 47.4132 28.9186 47.8858H28.9086Z" fill="white"/>
<path d="M32.1635 47.6745C38.2368 45.5828 44.4412 44.1046 50.797 43.1995C51.3922 43.119 52.0883 42.4855 51.0593 42.6363C44.4311 43.5816 37.9745 45.1404 31.649 47.3226C30.6704 47.6645 31.5884 47.8757 32.1635 47.6745Z" fill="white"/>
<path d="M61.0675 60.7477C60.8657 56.8962 60.6841 52.9038 61.7132 49.1428C61.7838 48.8914 62.3992 46.4276 62.7523 46.3873C63.7309 46.2667 63.3071 48.1472 63.287 48.6198C63.176 50.9127 62.8935 53.1753 62.5303 55.438C62.3084 56.8258 64.9718 56.0816 65.3854 55.3877C66.5254 53.4167 68.9971 50.1987 71.5495 49.897C71.156 49.7864 70.7626 49.6757 70.3691 49.5651C72.861 53.296 61.35 59.2694 59.1002 60.7779C59.9073 60.9086 60.7043 61.0494 61.5114 61.1801C62.268 56.2827 63.0247 51.3954 63.7813 46.498C62.8027 46.5985 61.8241 46.689 60.8354 46.7896C60.8354 50.6009 60.8355 54.4223 60.8455 58.2336C60.8455 59.5108 62.9742 59.018 63.519 58.4247C65.1231 56.6649 66.8785 55.086 68.8861 53.7988C70.3893 52.8334 71.9429 52.23 73.1536 50.8926C74.2532 49.6757 72.0741 49.535 71.3477 49.8266C68.6036 50.9328 67.9882 53.9899 65.5064 55.2369C63.7208 56.1419 65.3349 57.399 66.7272 56.695C69.1686 55.4581 70.1573 52.2502 72.5684 51.2847C71.9631 50.9328 71.3578 50.5808 70.7626 50.2188C69.3199 51.8077 66.9693 52.6323 65.2643 53.9195C63.751 55.0659 62.3992 56.3632 61.1179 57.761C62.0057 57.8213 62.8935 57.8817 63.7914 57.9521C63.7914 54.1407 63.7914 50.3193 63.7813 46.508C63.7813 45.1303 61.007 45.6834 60.8354 46.7996C60.0788 51.6971 59.3222 56.5844 58.5655 61.4818C58.3839 62.6785 60.4723 62.226 60.9767 61.8841C63.9932 59.8628 76.5938 53.648 73.0628 48.3684C72.8408 48.0366 72.2254 47.9963 71.8824 48.0366C67.9378 48.4992 64.5279 51.9485 62.6312 55.1966C63.5795 55.1765 64.5279 55.1665 65.4863 55.1464C65.8898 52.6625 68.3817 40.1826 61.7636 44.1649C59.6349 45.4421 58.8682 48.7506 58.4445 51.0032C57.7887 54.4726 57.9804 58.0325 58.162 61.5321C58.2225 62.6584 61.1482 62.0148 61.0877 60.7477H61.0675Z" fill="#FBEF39"/>
<path d="M45.6756 36.9647C45.5041 32.0371 45.2519 26.7475 46.1901 21.8803C46.402 20.764 46.5231 18.7829 47.6429 18.2801C48.9544 17.6969 48.1574 20.3517 48.0868 21.3071C47.8749 24.0826 47.3402 26.7978 46.6441 29.4929C46.4423 30.2471 47.8547 29.9756 48.0868 29.5432C48.793 28.2359 49.7615 25.9933 50.7905 25.038C51.5371 24.3441 53.5749 22.5239 53.4337 24.5955C53.3025 26.5866 49.933 29.6739 48.8333 31.3633C48.3491 32.0975 49.4588 32.3288 49.9431 31.9466C54.9369 27.9543 51.3756 33.3444 50.5786 34.2294C49.1763 35.7881 47.3907 36.8842 45.5041 37.739C45.8572 37.8698 46.2204 38.0106 46.5735 38.1413C47.1889 31.7254 47.8043 25.2994 48.4197 18.8835C48.4903 18.1796 47.3402 18.3204 47.0577 18.7025C45.6756 20.583 45.9581 22.7552 45.7967 25.048C45.5848 28.1252 45.2216 31.1119 45.7462 34.1691C45.8572 34.8127 46.9972 34.511 47.1788 34.0685C48.9544 29.7644 51.3454 25.9732 54.4526 22.5138C54.039 22.363 53.6355 22.2021 53.2218 22.0512C50.6493 26.0034 46.1498 30.7901 45.6453 35.6473C45.5747 36.3513 46.7248 36.2205 47.0073 35.8283C48.8636 33.2338 50.4475 30.5689 51.8296 27.7029C51.3655 27.6425 50.8914 27.5721 50.4273 27.5118C49.59 30.4181 48.6316 33.274 47.542 36.1099C47.2494 36.8742 48.5307 36.8943 48.8636 36.4418C49.9733 34.8931 51.0932 33.3444 52.2029 31.7958C52.5762 31.2829 51.9406 30.8706 51.4463 31.0416C48.8636 31.9366 47.1586 33.3746 45.9682 35.8585C45.6353 36.5524 46.8055 36.6027 47.1586 36.311C49.4084 34.3903 51.3252 32.3388 53.0806 29.9555C53.6355 29.2013 52.2634 28.9297 51.8498 29.4929C50.1751 31.7656 48.339 33.7668 46.18 35.6071L47.3705 36.0596C48.1473 34.0987 49.6001 32.7813 51.7287 32.0975C51.4765 31.8461 51.2243 31.5946 50.9721 31.3432C49.8624 32.8919 48.7425 34.4406 47.6328 35.9892C48.0767 36.0999 48.5105 36.2105 48.9544 36.3211C50.044 33.4953 51.0024 30.6393 51.8397 27.723C52.0818 26.8783 50.7199 26.9386 50.4374 27.5319C49.1057 30.2974 47.5723 32.8818 45.7866 35.3859C46.2406 35.4462 46.6946 35.5065 47.1485 35.5669C47.6227 30.951 51.991 26.3453 54.4728 22.5339C54.9974 21.7294 53.6859 21.5685 53.242 22.0713C50.044 25.6313 47.6126 29.4828 45.7967 33.8975C46.2708 33.8674 46.7551 33.8271 47.2292 33.797C46.7652 31.0818 47.0577 28.4772 47.2494 25.7721C47.3907 23.7709 47.0577 20.8948 48.3188 19.1953C47.8648 19.1349 47.4108 19.0746 46.9569 19.0142C46.3415 25.4301 45.7261 31.8561 45.1107 38.272C45.0602 38.8352 45.837 38.8352 46.18 38.6743C50.1146 36.8843 52.9192 34.0886 54.7049 30.1465C54.9066 29.694 54.4123 29.5029 54.0592 29.4929C51.9709 29.4728 50.6089 29.9555 48.9746 31.2527C49.3478 31.4438 49.711 31.6449 50.0843 31.836C51.8902 29.0806 56.6217 24.7966 55.4918 21.0657C55.4111 20.7942 55.0781 20.6836 54.8158 20.7037C50.8813 21.0154 48.2986 26.4056 46.7046 29.3622C47.1889 29.3823 47.6631 29.3923 48.1473 29.4124C49.1662 25.5005 50.8409 19.4969 49.4689 15.5147C49.368 15.223 49.0755 15.1627 48.793 15.1526C42.5784 14.9616 44.0917 33.8271 44.2128 37.0753C44.243 37.8597 45.7261 37.6586 45.6958 36.9748L45.6756 36.9647Z" fill="#FBEF39"/>
<path d="M44.6776 36.1299C44.4153 36.9747 44.3851 37.4976 44.5969 38.3926C44.6978 38.815 45.8277 38.3122 45.9992 38.1613C48.4306 35.8584 50.7005 33.4148 52.8292 30.8202C53.1722 30.3979 51.7295 30.6493 51.4975 30.8906C50.6097 31.7756 49.732 32.6605 48.8442 33.5455C49.3083 33.4952 49.7723 33.4449 50.2364 33.3946C50.8014 29.8649 52.2339 26.8078 54.6148 24.1227C54.9478 23.7507 53.5354 23.9015 53.2832 24.1931C50.872 26.9184 49.3688 30.0358 48.7938 33.636C48.713 34.1287 50.0346 33.636 50.186 33.4851C51.0738 32.6002 51.9515 31.7152 52.8393 30.8303C52.3954 30.8504 51.9515 30.8806 51.5076 30.9007C49.389 33.4952 47.1191 35.9389 44.6776 38.2418C45.1417 38.1613 45.6058 38.0909 46.0799 38.0105C45.8176 37.3166 45.8378 36.6126 46.1405 35.8987C46.2514 35.5467 44.8189 35.7277 44.6978 36.14L44.6776 36.1299Z" fill="#FBEF39"/>
<path d="M85.2933 62.1054C84.8696 62.6383 85.031 63.3523 85.5455 63.7747C86.1508 64.2775 86.9983 64.2071 87.6843 63.8954C88.33 63.5937 88.8243 62.9903 88.9353 62.2763C89.0462 61.5321 88.7739 60.7176 87.9769 60.5165C86.2517 60.084 84.7485 61.8238 85.4043 63.463C85.7069 64.2272 86.4938 64.4887 87.2505 64.1669C87.9365 63.8753 88.2593 62.6987 87.8861 62.0651C87.422 61.2707 86.2114 61.3612 85.5859 61.9344C84.7788 62.6685 85.4346 63.5836 86.0802 64.1267C86.4232 64.4183 87.0386 64.1769 87.3413 63.9557C88.0172 63.4529 88.1988 62.5679 87.6843 61.8841C87.4018 61.502 85.9894 61.9947 86.3223 62.4473C86.6149 62.8495 86.5746 63.4428 86.171 63.7445C86.5947 63.6842 87.0084 63.6339 87.4321 63.5736C87.2101 63.3926 86.9781 63.2015 86.8167 62.9501C86.7259 62.7992 86.6553 62.6082 86.6654 62.4272C86.6855 62.1758 86.9377 62.1054 86.4737 62.226C86.0298 62.3366 86.282 62.2864 86.4333 62.5076C86.5241 62.6484 86.5443 62.8093 86.5443 62.9702C86.5443 63.3322 86.3728 63.6741 86.2215 63.9859C86.5039 63.825 86.7763 63.6641 87.0588 63.5032C87.2505 63.4831 87.0689 63.4328 86.9781 63.3121C86.8873 63.1914 86.8268 63.0305 86.7864 62.8797C86.7158 62.5981 86.6956 62.2864 86.7461 61.9947C86.7763 61.8238 86.8167 61.6227 86.9176 61.4718C86.9478 61.4014 86.9983 61.3411 87.0588 61.2908C87.1294 61.2305 87.1193 61.2305 87.0084 61.2807C87.3211 61.3411 87.4422 61.8338 87.4724 62.0852C87.5027 62.3568 87.4623 62.6383 87.3615 62.8897C87.3009 63.0305 87.2303 63.1512 87.1294 63.2719C87.0588 63.3624 86.9579 63.3624 87.0386 63.3724C87.1698 63.3926 86.8873 63.2216 86.857 63.1914C86.7562 63.1009 86.6553 62.9803 86.6048 62.8596C86.4838 62.6082 86.4838 62.3668 86.6553 62.1456C86.8772 61.8741 86.4636 61.7534 86.2618 61.7433C85.9289 61.7333 85.5052 61.864 85.2933 62.1355V62.1054Z" fill="#FBEF39"/>
<path d="M34.3747 73.3785C32.932 72.9662 30.8033 72.9058 29.8954 74.374C28.8058 76.1339 30.7428 77.6926 32.3771 77.8032C33.8602 77.9038 35.6458 77.049 35.3129 75.3193C34.9901 73.6098 32.8311 73.7103 31.7214 74.5651C30.42 75.5607 30.7125 77.6524 32.6193 77.2803C33.3961 77.1295 34.1225 76.6568 34.415 75.8925C34.6874 75.1886 34.5159 74.2835 33.8097 73.9014C32.7403 73.3282 30.2585 74.0623 30.8739 75.621C31.5902 77.4211 34.3948 76.4255 35.1111 75.1584C35.4642 74.5349 35.4239 73.7103 34.6067 73.5494C33.7492 73.3885 32.6495 73.8913 32.0846 74.5249C30.5915 76.2143 33.3961 77.4211 34.5361 75.9931C34.7479 75.7216 34.3545 75.621 34.1527 75.621C33.8299 75.621 33.3961 75.7417 33.1842 76.0032C33.5373 75.9529 33.618 75.8724 33.4263 75.7819C33.3456 75.7316 33.2851 75.6713 33.2347 75.6009C33.1035 75.3998 33.0934 75.1584 33.164 74.9372C33.2548 74.6355 33.7088 74.0623 33.8501 74.5651C33.9509 74.9372 33.6281 75.5406 33.2952 75.7015C32.8009 75.9428 32.2863 75.4098 32.246 74.9472C32.1855 74.2433 32.7 74.5048 32.9219 74.897C33.0934 75.1987 33.1035 75.5908 33.0127 75.9126C32.9925 75.9931 32.8009 76.5563 32.6596 76.5361C32.4982 76.516 32.367 76.1238 32.3368 76.0032C32.246 75.621 32.3872 75.2288 32.6394 74.9472C33.2347 74.3036 33.8097 75.3193 33.8501 75.8724C33.8803 76.1741 33.8299 76.5965 33.6281 76.8378C33.3255 77.1999 32.7605 77.039 32.367 76.8881C31.5196 76.5563 30.9042 75.6914 31.0959 74.7662C31.3178 73.6802 32.3469 73.8109 33.1842 74.0522C33.5171 74.1427 33.9207 74.0824 34.2132 73.9014C34.3545 73.8109 34.7076 73.4891 34.3545 73.3885L34.3747 73.3785Z" fill="#FBEF39"/>
<path d="M67.604 34.2796C66.8978 34.2796 66.1714 34.3601 65.5964 34.7925C65.1121 35.1445 64.8801 35.7479 65.2635 36.2708C65.667 36.8138 66.4943 36.7434 67.0088 36.4015C67.5132 36.0697 67.6847 35.3858 67.6544 34.8227C67.5838 33.3746 65.7376 33.2941 64.9709 34.2897C64.1638 35.3356 64.9608 36.6328 66.1916 36.7535C66.9079 36.8239 67.7755 36.5323 68.0983 35.8484C68.3506 35.3154 68.1992 34.6517 67.6444 34.3903C67.3215 34.2394 66.8978 34.3199 66.6052 34.5109C66.4136 34.6417 66.1613 34.9836 66.4943 35.1344C66.7162 35.235 66.7767 35.4562 66.7465 35.6875C66.7364 35.778 66.6859 35.8384 66.6557 35.9289C66.8171 35.9088 66.8675 35.8887 66.7868 35.8585C66.7061 35.8384 66.6355 35.8082 66.5649 35.7579C66.353 35.6272 66.1815 35.416 66.1311 35.1747C66.1008 35.0238 66.1109 34.873 66.1513 34.7322C66.1714 34.6417 66.2723 34.521 66.2824 34.4506C66.3833 34.3601 66.3228 34.3702 66.1109 34.4506C65.8789 34.4506 65.8385 34.4908 65.9797 34.5612C66.01 34.6718 66.121 34.7724 66.1513 34.9132C66.2219 35.1747 66.1815 35.4763 66.1008 35.7277C66.0806 35.8082 66.0504 35.8786 66.01 35.949C66.6153 36.0093 66.8272 35.9289 66.6456 35.7277C66.6456 35.6071 66.4943 35.5166 66.5346 35.3657C66.5951 35.1445 66.8575 35.1847 67.0491 35.1847C67.372 35.1847 67.8461 35.0842 68.0075 34.7724C68.1589 34.4808 67.8764 34.2897 67.5939 34.2897L67.604 34.2796Z" fill="#FBEF39"/>
<path d="M52.8579 90.6049C52.1618 90.6049 51.4253 90.6854 50.8503 91.1178C50.366 91.4697 50.134 92.0731 50.5174 92.596C50.9209 93.1391 51.7482 93.0687 52.2627 92.7268C52.7671 92.3949 52.9386 91.7111 52.9083 91.1479C52.8377 89.6998 50.9915 89.6194 50.2248 90.615C49.4177 91.6608 50.2147 92.9581 51.4455 93.0787C52.1618 93.1491 53.0294 92.8575 53.3522 92.1737C53.6045 91.6407 53.4531 90.977 52.8983 90.7155C52.5754 90.5647 52.1517 90.6451 51.8591 90.8362C51.6675 90.9669 51.4152 91.3088 51.7482 91.4597C51.9701 91.5602 52.0306 91.7815 52.0004 92.0128C51.9903 92.1033 51.9399 92.1636 51.9096 92.2541C52.071 92.234 52.1214 92.2139 52.0407 92.1837C51.96 92.1636 51.8894 92.1335 51.8188 92.0832C51.6069 91.9524 51.4354 91.7413 51.385 91.4999C51.3547 91.3491 51.3648 91.1982 51.4052 91.0574C51.4253 90.9669 51.5262 90.8462 51.5363 90.7759C51.6372 90.6853 51.5767 90.6954 51.3648 90.7759C51.1328 90.7759 51.0924 90.8161 51.2337 90.8865C51.2639 90.9971 51.3749 91.0977 51.4052 91.2385C51.4758 91.4999 51.4354 91.8016 51.3547 92.053C51.3345 92.1335 51.3043 92.2039 51.2639 92.2742C51.8692 92.3346 52.0811 92.2541 51.8995 92.053C51.8995 91.9323 51.7482 91.8418 51.7885 91.691C51.8491 91.4697 52.1114 91.51 52.303 91.51C52.6259 91.51 53.1 91.4195 53.2614 91.0977C53.4128 90.806 53.1303 90.615 52.8478 90.615L52.8579 90.6049Z" fill="#FBEF39"/>
<path d="M75.6879 35.778C74.5176 36.8541 73.1556 37.8798 72.1165 39.0865C71.3397 39.9916 72.056 40.8967 73.1052 40.9771C74.2049 41.0576 75.1128 40.3939 75.8392 39.6598C76.8178 38.6742 77.7762 37.5681 77.8973 36.13C77.9477 35.5669 76.7875 36.0194 76.5958 36.1501C74.9716 37.2261 73.6197 38.6038 72.6008 40.2631C72.2578 40.8263 73.7105 40.5045 73.9526 40.243C74.9817 39.1067 75.7988 37.8396 76.4042 36.4317C76.5656 36.0596 75.1431 36.2105 74.9514 36.6429C74.3663 37.9804 73.5895 39.1871 72.6008 40.2631C73.0548 40.2631 73.4987 40.2531 73.9526 40.243C74.9312 38.6642 76.2024 37.3468 77.756 36.3211L76.4546 36.3412C76.384 37.2462 75.9905 37.9804 75.4256 38.6742C75.0624 39.1167 74.1645 40.4341 73.5087 40.0922C72.51 39.5793 74.2755 38.3323 74.6689 37.9703C75.3953 37.3066 76.1217 36.6328 76.8481 35.9691C77.4433 35.416 76.0006 35.5166 75.698 35.8082L75.6879 35.778Z" fill="#FBEF39"/>
<path d="M42.1136 92.1938C40.5297 92.6966 38.7441 93.0385 37.2409 93.7726C36.3127 94.2252 35.9495 95.2811 36.9887 95.9046C38.0177 96.518 39.4604 95.9046 40.449 95.4922C41.6597 94.9894 42.8602 94.376 43.5361 93.1994C43.748 92.8374 43.2133 92.8273 42.9712 92.8575C40.8929 93.1692 38.9357 93.8732 37.1703 95.0196C36.4035 95.5224 37.4729 95.6129 37.8865 95.442C39.3796 94.8185 40.7315 93.9939 41.9522 92.9279C42.5575 92.3949 41.1149 92.4854 40.8021 92.767C39.763 93.6821 38.623 94.4062 37.3418 94.9492C37.5839 95.09 37.8159 95.2308 38.058 95.3716C39.5007 94.4363 41.0443 93.8229 42.7492 93.5715C42.5575 93.4609 42.3759 93.3402 42.1843 93.2296C41.811 93.8732 41.3066 94.3157 40.6407 94.6576C39.995 94.9894 38.1287 95.7939 37.8361 94.7883C37.6041 94.014 39.1678 93.7927 39.7227 93.6218C40.5701 93.3503 41.4175 93.0888 42.265 92.8173C43.1124 92.5458 42.9611 91.9223 42.0935 92.1938H42.1136Z" fill="#FBEF39"/>
<path d="M37.6745 63.9255C36.6455 63.0908 35.5156 62.2964 34.1133 62.4774C33.054 62.6182 31.8837 63.2517 31.7324 64.3881C31.7122 64.5691 31.8535 64.6395 32.0149 64.6697C33.7703 65.0317 35.3945 65.7256 36.8574 66.7614C37.1802 66.9826 38.1891 66.8619 38.2698 66.3893C38.6935 63.8048 35.5862 63.3624 33.7299 63.3724C33.4878 63.3724 32.4285 63.6339 32.7614 64.0462C33.5685 65.0418 34.7388 65.4943 36.0099 65.4239C36.2722 65.4038 36.8574 65.3334 36.9784 65.0317C37.0793 64.7501 36.8876 64.6093 36.585 64.6295C35.566 64.6898 34.7489 64.2674 34.1234 63.4931C33.8005 63.7143 33.4777 63.9456 33.1549 64.1669C34.6581 64.1669 37.16 64.4887 36.817 66.5904C37.2912 66.4698 37.7553 66.339 38.2294 66.2183C36.6152 65.082 34.8598 64.3177 32.9228 63.9255C33.0136 64.016 33.1044 64.1166 33.2053 64.2071C33.4676 62.3065 35.556 63.8652 36.3328 64.4987C36.7161 64.8105 38.068 64.2473 37.6947 63.9356L37.6745 63.9255Z" fill="#FBEF39"/>
<path d="M93.09 77.8132C93.5238 76.7171 94.0181 75.4098 93.3826 74.2835C92.8781 73.3985 91.9903 73.0969 91.0218 73.2376C90.7595 73.2779 90.1441 73.4488 90.1845 73.8209C90.3661 75.6612 90.1744 77.4512 89.6095 79.2111C89.5086 79.5228 90.0836 79.5228 90.2349 79.5027C91.2034 79.3619 92.0711 78.8993 92.5553 78.0244C93.2312 76.8177 92.8277 75.4299 92.4443 74.203C92.293 73.7203 91.2135 74.1226 91.0319 74.3941C90.356 75.4098 90.1946 76.5462 90.6284 77.6926C90.81 78.1753 92.2627 77.7529 92.0912 77.3004C91.7079 76.2948 91.7886 75.3092 92.3838 74.4042C91.9096 74.4645 91.4456 74.5349 90.9714 74.5952C91.2135 75.3595 91.4557 76.1238 91.4254 76.9384C91.4052 77.5417 91.1732 78.6278 90.4367 78.7284C90.6486 78.8289 90.8503 78.9194 91.0622 79.02C91.6473 77.1898 91.8289 75.3394 91.6372 73.4388C91.3548 73.6298 91.0824 73.8209 90.7999 74.022C91.6877 73.8913 92.1518 75.0377 92.182 75.7215C92.2123 76.526 91.9096 77.2803 91.6171 78.0144C91.4456 78.4569 92.8882 78.2859 93.0799 77.8233L93.09 77.8132Z" fill="#FBEF39"/>
<path d="M32.4183 31.5745C31.5709 29.8247 30.33 28.0649 28.1408 28.5073C25.881 28.9599 25.0033 31.0817 25.2353 33.2137C25.4472 35.1646 26.6275 37.3066 28.7865 37.4675C30.6327 37.6083 32.5999 36.3714 33.0741 34.5612C33.6491 32.4092 32.0552 29.6739 29.9063 29.0403C28.05 28.4973 26.4056 29.6538 26.1029 31.4941C25.8003 33.3243 26.4459 37.0652 28.9781 36.844C30.8647 36.673 32.0249 34.8529 32.0047 33.0729C31.9845 31.0616 30.0879 28.6884 27.9996 30.2069C26.2744 31.4639 27.5254 35.0439 29.2707 35.6574C29.5431 35.7479 30.552 35.6272 30.5923 35.235C30.7941 33.3042 30.562 31.4941 29.8458 29.6839C29.6944 29.3018 28.4334 29.6336 28.393 29.9957C28.1408 32.1578 28.2013 34.2796 28.5847 36.4216C28.6654 36.8641 29.8357 36.3814 29.987 36.2004C31.4801 34.4305 31.1674 31.7656 29.2304 30.4583C28.9075 30.237 27.8482 30.4583 27.818 30.9208C27.7272 32.3891 28.1307 33.626 29.0084 34.7925C29.2203 35.0741 30.0677 34.7623 30.2594 34.5914C32.499 32.6304 30.1686 26.8983 27.2429 29.2917C27.2026 29.3219 27.0311 29.4627 27.0815 29.5532C27.8684 30.9208 28.5242 32.3488 28.9781 33.8673C29.2001 34.6115 29.1497 36.0898 30.0778 36.3311C31.8332 36.7837 32.8017 34.0483 32.9631 32.8718C33.0237 32.4192 31.5709 32.6908 31.5104 33.093C31.4398 33.5958 31.0867 35.5568 30.4612 35.6976C30.7134 35.6976 30.9656 35.7076 31.2178 35.7177C30.6226 35.245 30.5721 33.8975 30.3502 33.1835C30.0576 32.2483 29.6843 31.3332 29.2505 30.4482C29.1799 30.2974 28.7966 29.2917 28.8672 29.9052C28.9176 30.3275 29.1698 30.6896 29.3312 31.0817C29.7751 32.1678 30.1686 33.5355 29.1194 34.4506C29.533 34.3802 29.9567 34.3199 30.3704 34.2495C29.5128 33.1031 29.19 31.9265 29.2808 30.5186C28.8066 30.6694 28.3325 30.8203 27.8684 30.9812C29.6238 32.1578 30.0374 34.6014 28.6553 36.2406C29.1194 36.1702 29.5935 36.0898 30.0576 36.0194C29.6843 33.9277 29.6137 31.8661 29.8558 29.7543C29.3716 29.8549 28.8874 29.9554 28.4031 30.0661C29.0891 31.8159 29.3514 33.5757 29.1597 35.4562C29.6036 35.3154 30.0374 35.1747 30.4813 35.0339C29.1698 34.5713 28.6251 32.5801 28.7663 31.313C28.9176 30.0158 29.9063 31.1521 30.2291 31.846C30.5318 32.4896 30.5923 33.1936 30.5217 33.8875C30.4309 34.702 29.9668 36.4719 28.7865 35.8082C28.1812 35.4663 27.8281 34.1288 27.6868 33.4852C27.5153 32.731 27.3337 31.5041 27.6868 30.7901C28.2719 29.6336 29.6541 29.9554 30.4208 30.7901C31.4297 31.8963 32.0955 33.4852 31.5911 34.9735C31.1976 36.1401 29.9265 36.9747 28.7158 36.4216C28.0197 36.1099 27.5355 35.3255 27.2328 34.6718C26.6881 33.5053 26.4358 31.7857 26.9302 30.5689C28.2417 27.3408 30.3098 30.5287 30.9959 31.9466C31.1976 32.369 32.6201 31.8863 32.4587 31.5544L32.4183 31.5745Z" fill="#FBEF39"/>
<path d="M28.242 32.8416C31.1677 37.6183 33.942 42.4655 36.5752 47.4132C36.8375 47.916 38.2499 47.4132 37.9169 46.7997C35.2939 41.852 32.5095 37.0049 29.5838 32.2282C29.2811 31.7354 27.8687 32.2483 28.242 32.8416Z" fill="white"/>
</svg>
