<svg width="48" height="49" viewBox="0 0 48 49" fill="none" xmlns="http://www.w3.org/2000/svg">
<circle cx="24" cy="24.9443" r="24" fill="white"/>
<path d="M19.8 15H28.2C31.4 15 34 17.6 34 20.8V29.2C34 30.7383 33.3889 32.2135 32.3012 33.3012C31.2135 34.3889 29.7383 35 28.2 35H19.8C16.6 35 14 32.4 14 29.2V20.8C14 19.2617 14.6111 17.7865 15.6988 16.6988C16.7865 15.6111 18.2617 15 19.8 15ZM19.6 17C18.6452 17 17.7295 17.3793 17.0544 18.0544C16.3793 18.7295 16 19.6452 16 20.6V29.4C16 31.39 17.61 33 19.6 33H28.4C29.3548 33 30.2705 32.6207 30.9456 31.9456C31.6207 31.2705 32 30.3548 32 29.4V20.6C32 18.61 30.39 17 28.4 17H19.6ZM29.25 18.5C29.5815 18.5 29.8995 18.6317 30.1339 18.8661C30.3683 19.1005 30.5 19.4185 30.5 19.75C30.5 20.0815 30.3683 20.3995 30.1339 20.6339C29.8995 20.8683 29.5815 21 29.25 21C28.9185 21 28.6005 20.8683 28.3661 20.6339C28.1317 20.3995 28 20.0815 28 19.75C28 19.4185 28.1317 19.1005 28.3661 18.8661C28.6005 18.6317 28.9185 18.5 29.25 18.5ZM24 20C25.3261 20 26.5979 20.5268 27.5355 21.4645C28.4732 22.4021 29 23.6739 29 25C29 26.3261 28.4732 27.5979 27.5355 28.5355C26.5979 29.4732 25.3261 30 24 30C22.6739 30 21.4021 29.4732 20.4645 28.5355C19.5268 27.5979 19 26.3261 19 25C19 23.6739 19.5268 22.4021 20.4645 21.4645C21.4021 20.5268 22.6739 20 24 20ZM24 22C23.2044 22 22.4413 22.3161 21.8787 22.8787C21.3161 23.4413 21 24.2044 21 25C21 25.7956 21.3161 26.5587 21.8787 27.1213C22.4413 27.6839 23.2044 28 24 28C24.7956 28 25.5587 27.6839 26.1213 27.1213C26.6839 26.5587 27 25.7956 27 25C27 24.2044 26.6839 23.4413 26.1213 22.8787C25.5587 22.3161 24.7956 22 24 22Z" fill="black"/>
</svg>
