<svg width="23" height="23" viewBox="0 0 23 23" fill="none" xmlns="http://www.w3.org/2000/svg">
<path d="M11.4974 11.0212C10.862 11.0212 10.2526 10.7687 9.80329 10.3194C9.35398 9.87013 9.10156 9.26074 9.10156 8.62533C9.10156 7.98991 9.35398 7.38052 9.80329 6.93122C10.2526 6.48191 10.862 6.22949 11.4974 6.22949C12.1328 6.22949 12.7422 6.48191 13.1915 6.93122C13.6408 7.38052 13.8932 7.98991 13.8932 8.62533C13.8932 8.93995 13.8313 9.2515 13.7109 9.54217C13.5905 9.83285 13.414 10.097 13.1915 10.3194C12.969 10.5419 12.7049 10.7184 12.4142 10.8388C12.1236 10.9592 11.812 11.0212 11.4974 11.0212ZM11.4974 1.91699C9.71824 1.91699 8.01194 2.62376 6.75389 3.88182C5.49583 5.13987 4.78906 6.84617 4.78906 8.62533C4.78906 13.6566 11.4974 21.0837 11.4974 21.0837C11.4974 21.0837 18.2057 13.6566 18.2057 8.62533C18.2057 6.84617 17.499 5.13987 16.2409 3.88182C14.9828 2.62376 13.2766 1.91699 11.4974 1.91699Z" fill="#FBEF39"/>
</svg>
