<svg width="207" height="70" viewBox="0 0 207 70" fill="none" xmlns="http://www.w3.org/2000/svg">
<path d="M11.785 61.7979C10.6075 61.0453 9.74686 59.9614 9.03746 58.8163C8.73137 58.3266 8.37846 57.9161 7.98595 57.5596C6.85163 56.5369 5.9838 55.3665 5.20598 53.9081C4.97192 53.4652 4.93589 53.0691 4.92149 52.5866C4.33813 52.5541 4.13647 52.0176 4.01763 51.6287C3.72595 50.66 3.23622 49.7418 3.07778 48.7551C2.91213 47.7144 2.24596 46.9186 1.92547 45.9499C1.72021 45.3269 2.09468 44.8372 1.83901 44.225C1.28445 42.8927 1.47532 41.4307 1.49693 40.0155C1.51133 39.1476 0.985609 38.4454 1.11524 37.4695C1.3061 37.3507 1.28449 36.8574 1.15485 36.5225C-0.0082745 33.4472 0.787529 30.2531 0.549862 27.1275C0.97118 26.0291 0.974765 24.8444 1.29886 23.7101C1.66616 22.4101 2.33238 21.1858 2.4116 19.8102C2.44761 19.198 2.90854 19.1368 3.31906 18.9532C3.34427 18.7155 3.37305 18.4706 3.38385 18.341C4.08605 17.736 4.69822 17.2103 4.60099 16.256C5.51565 15.8923 5.80372 14.9272 6.34747 14.2503C6.7868 13.7065 7.32697 13.2456 7.72308 12.5722V12.0933C8.69535 11.3046 9.38313 10.3288 10.1321 9.37809C10.8307 8.48864 11.7958 7.81166 12.6564 7.02664C12.6024 6.96542 12.5124 6.85739 12.4188 6.75296C12.4836 6.70255 12.5448 6.62333 12.624 6.59092C12.9553 6.45768 13.4559 6.879 13.6467 6.27403C13.8988 6.23081 13.9528 6.49369 14.1365 6.58371C14.2301 6.37486 14.3237 6.166 14.4137 5.96434C14.5902 5.96434 14.7414 5.96434 14.8927 5.96434C14.8674 6.11558 14.9359 6.20921 15.0763 6.24162C15.1015 6.24882 15.1735 6.1732 15.1663 6.15159C15.1339 6.00755 15.0403 5.93913 14.8891 5.96794C14.9827 5.4638 15.7101 5.66906 15.7785 5.15411C15.7029 5.06049 15.6165 4.95606 15.5336 4.85523C15.7713 4.61036 16.045 4.776 16.2935 4.71839C16.5887 4.48432 16.4375 4.15303 16.4375 3.86855C16.4411 3.49765 16.7328 3.38242 16.9308 3.17356C17.2909 3.51566 16.9849 3.71011 16.7796 3.92257C16.8444 4.10622 17.1253 4.15663 17.0749 4.4087C16.9236 4.38349 16.83 4.45192 16.7976 4.59236C16.7904 4.61756 16.866 4.68958 16.8876 4.68238C17.0317 4.64997 17.1001 4.55635 17.0713 4.4051C17.5214 4.31868 17.7123 3.90456 17.9896 3.62369C18.5225 3.07993 19.1094 2.65141 19.8872 2.43175C19.7756 2.29491 19.6892 2.19048 19.5848 2.06445C20.6687 0.717673 22.3396 0.793295 23.7367 0.321563C24.1112 0.588038 23.7836 0.973346 24.0176 1.21101C24.3093 1.40187 24.4677 1.19301 24.6766 1.04176C24.7342 0.998553 24.9467 1.1678 25.0655 1.23262C25.2816 1.07417 25.0655 0.775292 25.35 0.688868C25.4364 0.76809 25.548 0.868917 25.5732 0.890523C26.3547 0.8077 26.6716 -0.204187 27.4638 0.0370808C27.8023 0.206328 27.5394 0.523219 27.8239 0.613244C28.3388 0.361174 28.8142 -0.139368 29.574 0.116303C29.4443 0.274748 29.3579 0.379176 29.2679 0.487207C29.3255 0.541222 29.3939 0.656456 29.4479 0.652855C30.0853 0.588037 30.7587 0.854513 31.3565 0.361175C31.6698 0.105503 32.0551 0.454802 32.3756 0.51962C33.7223 0.778892 35.0691 0.598842 36.4123 0.649256C36.7436 0.66366 37.0028 0.728479 37.2369 0.998554C37.9571 0.508817 38.8178 0.8221 39.574 0.627646C40.359 0.425989 41.072 0.822101 41.7958 0.645652C42.6312 1.35865 42.6348 1.27583 43.7907 1.32624C44.3057 1.34785 44.9143 1.32625 45.3932 1.68995C46.6392 2.63701 48.0327 3.30319 49.5163 3.77493C49.9485 3.91177 50.0817 4.37629 50.4454 4.54554C51.911 5.22973 52.9193 6.50809 54.2193 7.40474C55.4616 8.25818 56.5851 9.29527 57.6618 10.318C58.6341 11.2434 59.9124 11.96 60.4454 13.314C61.0107 13.4364 61.306 13.8721 61.6697 14.2395C61.5329 14.3763 61.4573 14.4519 61.3853 14.5239C62.4296 14.9128 62.6564 15.8815 63.0561 16.8034C63.5314 16.9474 63.9348 17.2895 64.1544 17.8405C63.948 18.0973 63.942 18.3974 64.1364 18.7407C64.1364 18.3914 64.1364 18.1033 64.1544 17.8405C64.709 18.4202 65.1627 19.0396 64.4389 19.9398C64.7702 20.2027 65.1303 20.4908 65.386 20.6925C65.4724 21.085 65.3067 21.2182 65.1303 21.3766C65.2203 21.4811 65.3788 21.5819 65.3824 21.6863C65.404 22.4894 65.566 23.2024 66.009 23.9298C66.4807 24.7076 66.243 25.7555 66.6571 26.6125C66.7688 26.8466 66.5959 27.0734 66.4231 27.2895C66.2718 27.4804 66.333 27.5272 66.6319 28.2258C66.6175 28.4346 66.3042 28.467 66.3942 28.8271C66.7436 29.5869 67.4098 30.4116 66.6896 31.4523C66.5455 31.6611 66.6679 32.0608 66.6679 32.3705C66.6679 33.0979 66.6103 33.8289 66.686 34.5491C66.7472 35.1469 66.261 35.7267 66.6679 36.3172C66.2466 37.8152 66.1638 39.3889 65.6236 40.8689C65.2923 41.7727 65.1339 42.7414 64.5073 43.566C64.4929 45.4494 63.8808 47.167 62.7536 48.7191C62.6456 48.8703 62.6024 49.072 62.5304 49.2484C61.6121 51.4054 60.3374 53.3428 59.0482 55.2909C58.6197 55.9391 58.1696 56.5981 57.6654 57.1526C57.3017 57.5524 57.4998 58.2582 57.1469 58.3122C56.5239 58.413 56.6499 58.9855 56.3114 59.2484C55.9909 59.5005 55.8001 59.947 55.7245 60.3467C54.8242 60.9553 53.9168 61.5315 53.0489 62.1616C51.767 63.0943 50.5282 64.0882 49.2354 65.0028C48.8537 65.2729 48.4576 65.615 47.9031 65.5394C47.2045 65.4458 46.92 66.4324 46.1638 66.2272C45.8577 66.6593 45.404 66.4036 45.0187 66.4756C44.7738 67.2463 43.8088 67.2787 43.5423 67.9665C42.9301 68.1609 42.2531 67.7936 41.7814 68.3518C41.3601 68.2653 41.0288 67.754 40.5318 68.1177C40.4958 68.2545 40.4598 68.395 40.413 68.5894C39.8764 68.7767 39.3687 68.6795 38.8934 68.3446C37.741 69.054 36.4411 68.3122 35.2564 68.7155C35.0727 68.8991 34.889 69.0828 34.7054 69.2664C33.7907 69.18 32.9769 69.7778 32.0335 69.6121C31.5005 69.5185 30.946 69.3672 30.449 69.342C29.7936 69.306 29.6568 68.521 28.9942 68.6435C28.418 68.7479 27.9391 68.4562 27.5322 68.0565C27.3486 68.1105 27.3017 68.3986 27.0497 68.3446C27.0136 68.2581 26.9957 68.1105 26.9453 68.0961C26.758 68.0529 26.7292 68.1933 26.74 68.3446C26.1422 68.1681 25.7173 67.5343 25.0475 67.736C24.745 67.4911 24.9467 67.2066 24.8134 66.9186C24.5434 66.7817 24.2085 66.6125 23.8628 66.4396C23.7259 66.5513 23.6143 66.6449 23.4271 66.7961C23.3046 66.6089 23.175 66.4 22.9985 66.13C22.0947 66.4036 21.3529 65.8131 20.5031 65.8527C20.4778 65.3845 20.1141 65.5862 19.8801 65.5394C19.5632 65.1325 19.1635 64.8912 18.6305 64.9164C18.5945 64.83 18.5765 64.6824 18.5261 64.6679C18.3389 64.6247 18.31 64.7652 18.3208 64.9164C18.1228 64.8624 18.0687 65.0496 17.8635 65.1793C17.1577 64.6463 16.4375 64.0378 15.5049 63.8037C15.1844 63.7209 14.3705 62.8458 14.1256 62.4353C13.8051 62.8278 13.4847 62.8458 13.1714 62.4353C13.0634 62.5325 12.9553 62.6298 12.8221 62.7486C12.624 62.2445 11.9795 62.2769 11.7742 61.7979C11.9255 61.8231 12.0191 61.7547 12.0515 61.6143C12.0587 61.5891 11.9831 61.5171 11.9615 61.5243C11.8174 61.5567 11.749 61.6503 11.7778 61.8015L11.785 61.7979ZM13.0346 40.9013C13.0094 41.0525 13.0778 41.1462 13.2182 41.1786C13.2434 41.1858 13.3154 41.1102 13.3082 41.0886C13.2758 40.9445 13.1822 40.8761 13.0274 40.9013C13.0526 40.7501 12.9841 40.6564 12.8437 40.624C12.8185 40.6168 12.7465 40.6924 12.7537 40.714C12.7861 40.8581 12.8797 40.9265 13.0346 40.9013ZM12.0983 40.588C12.0731 40.7393 12.1415 40.8329 12.2819 40.8653C12.3071 40.8725 12.3792 40.7969 12.372 40.7753C12.3395 40.6312 12.2459 40.5628 12.0911 40.588C12.1163 40.4368 12.0479 40.3431 11.9074 40.3107C11.8822 40.3035 11.8102 40.3792 11.8174 40.4008C11.8498 40.5448 11.9435 40.6132 12.0983 40.588ZM35.1808 21.2434C35.332 21.2686 35.4256 21.2002 35.458 21.0598C35.4652 21.0345 35.3896 20.9625 35.368 20.9697C35.224 21.0021 35.1555 21.0958 35.1808 21.247C35.0943 21.283 34.9467 21.301 34.9323 21.3514C34.889 21.5387 35.0295 21.5675 35.1808 21.5567C35.2168 21.7548 35.0907 21.8736 34.9323 21.8628C33.2938 21.7151 31.7166 22.2553 30.0745 22.2301C28.987 22.2157 27.8779 22.6262 26.8048 22.9395C26.2611 23.0979 25.8037 23.6093 25.2636 23.7029C24.5758 23.8217 24.05 24.0954 23.5891 24.5707C22.8761 24.3547 22.8005 25.3089 22.2135 25.3233C22.0191 26.0255 21.2376 25.7987 20.8055 26.2272C20.0313 26.9906 19.1454 27.6856 18.0471 27.9197C17.9967 28.0889 18.1012 28.269 17.8923 28.3842C17.6763 28.4094 17.4278 28.4346 17.2009 28.4634C16.7364 29.4753 15.6489 29.8138 15.0655 30.624H14.529C13.9528 31.3622 13.2614 31.87 12.6277 32.3561C11.5834 33.1555 10.4922 33.8469 9.90166 35.0929C9.81884 35.2657 9.50197 35.3233 9.29312 35.435C9.36874 35.5106 9.44436 35.5862 9.51638 35.6582C9.12027 36.0435 9.9773 36.6125 9.32912 36.9654C9.32552 36.9654 9.35432 37.0338 9.36872 37.0662C9.70002 37.3183 9.59922 37.844 10.0277 38.0529C10.6363 38.3482 11.2232 38.6867 11.8066 39.0252C12.3936 39.3673 13.1246 39.4645 13.6431 39.8354C14.9215 40.7501 16.5959 41.0741 17.5574 42.4497C18.6593 42.9719 19.6172 43.7389 20.6867 44.3042C21.7454 44.8624 22.8617 45.3269 23.9852 45.7375C24.7594 46.0183 25.4364 46.6809 26.2178 46.6845C26.8156 46.6845 27.1973 46.951 27.5358 47.0806C28.1768 47.1346 28.7097 47.095 29.1851 47.2355C30.8055 47.7144 32.4116 48.2149 34.1401 48.0745C34.655 48.0313 35.1771 48.0745 35.6993 48.0673C36.1458 48.0637 36.5671 47.8945 36.9849 47.808C38.2272 47.5488 39.3183 46.7457 40.6398 46.8214C41.0684 46.3496 41.9002 46.6053 42.2027 46.1444C42.606 45.5358 43.2866 45.6834 43.7691 45.3233C44.0356 45.1253 44.4677 45.1145 44.8314 44.884C45.3464 44.5599 45.9045 44.1962 46.4951 44.0378C47.5394 43.7605 48.346 42.9791 49.4011 42.7702C50.4706 42.5578 51.1728 41.5855 52.2711 41.4126C52.6348 41.355 52.552 40.8041 52.8329 40.5844C52.9805 40.5772 53.1065 40.5556 53.2542 40.4692C54.2121 39.9182 54.9755 39.0576 55.8937 38.5426C56.9885 37.9269 57.7806 37.059 58.6917 36.2812C59.4407 35.6402 59.9593 34.8876 60.1501 33.8793C59.5415 33.7209 59.0014 33.2888 58.7997 32.7882C58.4793 31.996 57.7626 31.7367 57.2045 31.319C56.6715 30.9157 56.1062 30.5016 55.5012 30.1883C54.3921 29.6158 53.3478 28.8919 52.0911 28.6363C51.9794 28.4778 52.0947 28.2222 51.875 28.1177C51.767 28.215 51.6589 28.3122 51.5473 28.4094C51.2556 27.8657 50.5174 26.9114 50.1033 26.6593C49.4839 26.2848 48.8682 25.7771 48.1912 25.6582C47.327 25.5034 46.6644 25.0641 45.9334 24.6824C45.1303 24.2683 44.3237 23.8865 43.8015 23.1231C43.1318 23.2096 42.6852 22.7846 42.1847 22.5218C42.0767 22.6118 41.9722 22.6982 41.857 22.7918C41.7706 22.583 41.6986 22.4029 41.623 22.2229C41.4285 22.1545 41.2485 22.1329 41.1296 22.3453C41.2233 22.4534 41.3133 22.5614 41.3961 22.6586C41.2809 22.8531 41.1116 22.7882 41.0108 22.799C40.6687 22.6946 40.9136 22.2949 40.6723 22.2013C40.2438 21.9852 40.1681 22.583 39.8116 22.5074C39.4191 22.3957 39.3327 21.8088 38.7997 21.87C38.6377 21.8556 38.6269 22.2121 38.3784 22.104C38.3136 21.9132 38.2488 21.7331 38.1876 21.5603C38.0075 21.5711 37.8419 21.4919 37.6834 21.7295C37.6294 21.8124 37.7411 22.0644 37.5106 22.1653C37.2261 21.8124 36.6247 21.7944 36.5959 21.2146C36.2718 21.3262 35.8613 21.0345 35.8037 21.5531H35.1808C35.1808 21.4487 35.1808 21.3442 35.1808 21.2398V21.2434ZM31.2448 68.5138C30.3554 68.1681 30.4562 68.5318 30.5714 68.8487C30.7551 68.7587 30.964 68.6543 31.2448 68.5138ZM35.8181 2.99711C35.4904 2.75224 35.1807 2.75224 34.8531 2.99711C35.1807 3.24198 35.4904 3.24198 35.8181 2.99711ZM49.6856 7.85487C49.8872 7.57039 49.9773 7.37233 49.6388 7.2427C49.4696 7.42635 49.4803 7.5992 49.6856 7.85487ZM34.3993 2.84227C34.2553 2.9431 34.2553 3.04753 34.3993 3.15195C34.5434 3.05113 34.5434 2.9467 34.3993 2.84227ZM36.74 2.99711C36.8408 3.14115 36.9452 3.14115 37.0461 2.99711C36.9452 2.85307 36.8408 2.85307 36.74 2.99711ZM48.5873 6.74216C48.4865 6.59812 48.382 6.59812 48.2812 6.74216C48.382 6.8862 48.4865 6.8862 48.5873 6.74216ZM13.6539 7.05544C13.7548 7.19948 13.8592 7.19948 13.96 7.05544C13.8592 6.9114 13.7548 6.9114 13.6539 7.05544ZM52.8005 9.70578C52.9445 9.60496 52.9445 9.50053 52.8005 9.3961C52.6564 9.49693 52.6564 9.60136 52.8005 9.70578ZM53.7367 10.642C53.8807 10.5412 53.8807 10.4368 53.7367 10.3324C53.5927 10.4332 53.5927 10.5376 53.7367 10.642ZM31.9002 21.5603C32.0443 21.4595 32.0443 21.355 31.9002 21.2506C31.7562 21.3514 31.7562 21.4559 31.9002 21.5603ZM25.973 22.4966C26.117 22.3957 26.117 22.2913 25.973 22.1869C25.8289 22.2877 25.8289 22.3921 25.973 22.4966ZM15.8361 29.2052C15.9369 29.3493 16.0414 29.3493 16.1422 29.2052C16.0414 29.0612 15.9369 29.0612 15.8361 29.2052ZM9.75045 33.4148C9.89449 33.314 9.89449 33.2096 9.75045 33.1051C9.60641 33.206 9.60641 33.3104 9.75045 33.4148ZM60.2834 36.5369C60.1393 36.6377 60.1393 36.7421 60.2834 36.8466C60.4274 36.7457 60.4274 36.6413 60.2834 36.5369ZM9.2823 39.4969C9.38313 39.641 9.48755 39.641 9.58838 39.4969C9.48755 39.3529 9.38313 39.3529 9.2823 39.4969ZM51.3889 43.8649C51.2881 43.7209 51.1836 43.7209 51.0828 43.8649C51.1836 44.009 51.2881 44.009 51.3889 43.8649ZM4.44618 46.202C4.59022 46.1012 4.59022 45.9967 4.44618 45.8923C4.30214 45.9931 4.30214 46.0976 4.44618 46.202ZM21.4429 46.6701C21.3421 46.5261 21.2377 46.5261 21.1368 46.6701C21.2377 46.8141 21.3421 46.8141 21.4429 46.6701ZM31.1116 49.1656C31.0108 49.0216 30.9064 49.0216 30.8055 49.1656C30.9064 49.3096 31.0108 49.3096 31.1116 49.1656Z" fill="#FCEE21"/>
<path d="M23.8711 67.1851C24.134 67.1347 24.2708 67.1095 24.3896 67.0879C24.5949 67.2427 24.6129 67.4192 24.4653 67.7649C24.2708 67.5776 24.1124 67.4228 23.8711 67.1887V67.1851Z" fill="#FCEE21"/>
<path d="M37.6903 0.181144C37.4454 0.418811 37.2726 0.353989 37.0781 0.267565C37.2186 -0.10694 37.4202 -0.0133102 37.6903 0.181144Z" fill="#FCEE21"/>
<path d="M20.5168 65.8527C20.5384 66.1443 20.3404 66.1803 20.1279 66.1587C19.9731 66.1407 19.8578 66.0435 19.8903 65.8527H20.5133H20.5168Z" fill="#FCEE21"/>
<path d="M38.3027 0.188352C38.4036 0.0443122 38.508 0.0443122 38.6089 0.188352C38.508 0.332393 38.4036 0.332393 38.3027 0.188352Z" fill="#FCEE21"/>
<path d="M18.4908 2.21924C18.6349 2.32007 18.6349 2.4245 18.4908 2.52893C18.3468 2.4281 18.3468 2.32367 18.4908 2.21924Z" fill="#FCEE21"/>
<path d="M15.6862 4.09192C15.8302 4.19275 15.8302 4.29718 15.6862 4.40161C15.5421 4.30078 15.5421 4.19635 15.6862 4.09192Z" fill="#FCEE21"/>
<path d="M13.6575 5.96087C13.6323 5.80962 13.7007 5.716 13.8411 5.68359C13.8663 5.67639 13.9384 5.75201 13.9312 5.77361C13.8988 5.91765 13.8051 5.98607 13.6539 5.95726L13.6575 5.96087Z" fill="#FCEE21"/>
<path d="M13.6578 5.96069V6.27398C13.5065 6.28478 13.3696 6.25237 13.4093 6.06872C13.4201 6.01831 13.5713 5.9967 13.6578 5.96429V5.96069Z" fill="#FCEE21"/>
<path d="M4.60784 16.2523C4.4566 16.2775 4.36297 16.2091 4.33056 16.0687C4.32336 16.0435 4.39898 15.9715 4.42058 15.9787C4.56463 16.0111 4.63305 16.1047 4.60424 16.2559L4.60784 16.2523Z" fill="#FCEE21"/>
<path d="M18.6476 64.9163V65.2295C18.4316 65.2367 18.3271 65.1323 18.3343 64.9163H18.6476Z" fill="#FCEE21"/>
<path d="M18.6474 65.2296C18.7986 65.2044 18.8923 65.2728 18.9247 65.4133C18.9319 65.4385 18.8563 65.5105 18.8347 65.5033C18.6906 65.4709 18.6222 65.3773 18.651 65.226L18.6474 65.2296Z" fill="#FCEE21"/>
<path d="M19.894 65.8527C19.7428 65.8635 19.606 65.8311 19.6456 65.6474C19.6564 65.597 19.8076 65.5754 19.894 65.543V65.8563V65.8527Z" fill="#FCEE21"/>
<path d="M20.9869 66.4757C20.8429 66.3749 20.8429 66.2704 20.9869 66.166C21.131 66.2668 21.131 66.3713 20.9869 66.4757Z" fill="#FCEE21"/>
<path d="M22.707 66.9437C22.8079 66.7997 22.9123 66.7997 23.0131 66.9437C22.9123 67.0878 22.8079 67.0878 22.707 66.9437Z" fill="#FCEE21"/>
<path d="M27.0714 68.3481C27.0822 68.4994 27.0498 68.6362 26.8661 68.5966C26.8157 68.5858 26.7941 68.4346 26.7617 68.3481H27.075H27.0714Z" fill="#FCEE21"/>
<path d="M24.5766 29.3564C24.3785 29.3924 24.3065 29.2699 24.2633 29.1115C24.3389 28.2581 25.4732 28.3121 25.6317 27.5054H26.1574C26.4995 27.4082 26.3807 27.1381 26.4815 26.9977C26.9136 26.4179 27.6302 26.2487 28.228 25.9606C28.9554 25.6077 29.8016 25.5033 30.601 25.3088C30.8711 25.244 31.1088 25.3376 31.2456 25.6293C31.4869 25.4025 31.7066 25.1972 31.9766 24.9415C32.8121 25.7734 34.058 24.8047 34.8575 25.6689C35.0987 25.5105 35.2644 25.4061 35.4084 25.3124C35.6821 25.2584 35.7865 25.4637 35.9414 25.6005C36.2654 25.2224 36.5895 25.19 36.9064 25.6113C37.1477 25.2368 37.5006 25.2764 37.8823 25.3412C38.0912 25.7446 38.1164 26.1119 37.6554 26.3855C38.0624 26.796 38.7357 26.2667 39.0526 26.8429C39.4163 26.7024 39.5135 26.1335 40.0285 26.2523C40.3526 26.5764 40.1329 26.796 39.8593 26.9977C41.3825 27.8043 42.8517 28.6506 44.2525 30.0369C44.5585 30.6347 44.9943 31.4918 45.4804 32.4424C45.4804 33.051 45.3868 33.7964 45.5056 34.5022C45.628 35.208 45.0123 35.7229 45.2067 36.4395C45.3544 36.49 45.5344 36.5548 45.7541 36.6304V37.9844C45.6605 38.1428 45.4948 38.0888 45.2787 38.1032C44.897 40.145 43.7051 41.6286 41.9514 42.7341C40.8711 43.4147 39.8016 44.1313 38.8258 44.9487C38.2316 45.4493 37.4718 45.4565 36.8704 45.8598C36.8416 45.8814 36.658 45.6725 36.5787 45.6041C36.1754 45.4565 36.0782 46.0038 35.6749 45.8778C35.5993 45.8166 35.484 45.7229 35.3652 45.6221C35.1563 45.6833 35.0483 46.0182 34.7278 45.8886C34.627 45.795 34.5154 45.6905 34.4073 45.5897C34.2993 45.6869 34.1913 45.7842 34.0904 45.8778C33.968 45.7698 33.8528 45.6725 33.7735 45.6041C33.4351 45.4601 33.3486 45.8418 33.1038 45.8418C33.0353 45.6581 32.9705 45.4817 32.9057 45.3052C32.524 45.352 32.8301 45.7842 32.5528 45.8778C31.4113 45.352 30.1725 45.6905 28.9842 45.5609C29.0202 45.2404 29.3839 45.1432 29.2543 44.8371C28.9842 44.6894 28.6745 44.8443 28.3612 44.6786C28.0767 44.5274 27.6518 44.6462 27.3926 44.6462C24.9907 43.1842 23.8204 40.8184 22.4016 38.4669C22.4988 37.8295 22.1531 37.0013 22.7077 36.2703C22.2827 35.8886 22.7257 35.5069 22.7077 35.1288C22.596 33.1842 23.3954 31.5098 24.2669 29.8569C24.3569 29.6841 24.6234 29.6228 24.5802 29.3636C24.7962 29.3708 24.9007 29.2699 24.8935 29.0503C25.0447 29.0755 25.1383 29.0071 25.1707 28.8666C25.1779 28.8414 25.1023 28.7694 25.0807 28.7766C24.9367 28.809 24.8682 28.9026 24.8971 29.0539C24.681 29.0467 24.5766 29.1511 24.5838 29.3672L24.5766 29.3564ZM27.3854 42.4604C27.3602 42.6117 27.4286 42.7053 27.569 42.7377C27.5942 42.7449 27.6662 42.6693 27.659 42.6477C27.6266 42.5036 27.533 42.4352 27.3818 42.4604V41.7114C27.0937 41.4269 26.8776 41.0416 26.4491 40.9012C26.4815 39.5796 25.0663 39.1619 24.7098 38.096C24.4901 38.0888 24.2741 38.0744 24.2561 38.5245C24.7962 39.2411 25.8189 39.7777 25.8837 40.9012H26.4455C26.4383 41.6142 27.0217 41.9671 27.3818 42.464L27.3854 42.4604ZM32.0667 32.6477C30.9972 30.948 30.2554 30.289 28.0083 31.715C27.9543 31.9527 28.1164 32.23 27.8715 32.4604C27.7671 32.374 27.6626 32.284 27.5582 32.194C26.8632 33.3499 27.0253 34.4554 27.8319 35.4997C28.4152 36.2451 29.4163 35.6257 29.9853 36.0686C30.9612 36.0398 31.1952 34.9991 31.9911 34.8551C32.2575 34.3077 32.5744 33.782 32.2863 33.1662C32.1063 33.105 31.9262 33.0438 31.7174 32.9754C31.8254 32.8745 31.901 32.8061 32.0667 32.6477ZM45.322 36.8465C45.1779 36.9473 45.1779 37.0517 45.322 37.1561C45.466 37.0553 45.466 36.9509 45.322 36.8465ZM30.5038 43.5515C30.403 43.4075 30.2986 43.4075 30.1977 43.5515C30.2986 43.6956 30.403 43.6956 30.5038 43.5515Z" fill="#FCEE21"/>
<path d="M39.0807 26.238C38.9798 26.238 38.8502 26.2776 38.7854 26.2308C38.609 26.0975 38.4613 25.9283 38.2812 25.7518C38.6414 25.5646 38.915 25.5538 39.1887 25.7194C39.2823 25.9175 39.2607 26.0939 39.0843 26.238H39.0807Z" fill="#FCEE21"/>
<path d="M35.8076 21.5603C35.9588 21.5351 36.0524 21.6035 36.0848 21.744C36.092 21.7692 36.0164 21.8412 35.9948 21.834C35.8508 21.8016 35.7824 21.708 35.8112 21.5567L35.8076 21.5603Z" fill="#FCEE21"/>
<path d="M22.7006 32.9431C22.5998 33.0872 22.4954 33.0872 22.3945 32.9431C22.4954 32.7991 22.5998 32.7991 22.7006 32.9431Z" fill="#FCEE21"/>
<path d="M30.187 32.007C30.0862 32.151 29.9817 32.151 29.8809 32.007C29.9817 31.8629 30.0862 31.8629 30.187 32.007Z" fill="#FCEE21"/>
<path d="M29.5664 33.566C29.6672 33.422 29.7717 33.422 29.8725 33.566C29.7717 33.7101 29.6672 33.7101 29.5664 33.566Z" fill="#FCEE21"/>
<path d="M31.4369 33.566C31.3361 33.7101 31.2317 33.7101 31.1309 33.566C31.2317 33.422 31.3361 33.422 31.4369 33.566Z" fill="#FCEE21"/>
<path d="M79.0391 10.9589H82.5104V28.024H90.0293V31.2073H79.0391V10.9625V10.9589Z" fill="#F1F0EC"/>
<path d="M90.4316 21.0813C90.4316 19.6337 90.7125 18.2725 91.2707 16.9869C91.8289 15.705 92.585 14.5851 93.5429 13.6308C94.4972 12.6765 95.6171 11.9203 96.8991 11.3586C98.181 10.8004 99.5458 10.5195 100.993 10.5195C102.441 10.5195 103.802 10.8004 105.084 11.3586C106.366 11.9167 107.486 12.6729 108.44 13.6308C109.395 14.5851 110.151 15.705 110.713 16.9869C111.271 18.2689 111.552 19.6337 111.552 21.0813C111.552 22.5289 111.271 23.8901 110.713 25.1756C110.154 26.4576 109.398 27.5775 108.44 28.5318C107.486 29.486 106.366 30.2422 105.084 30.804C103.802 31.3622 102.437 31.643 100.993 31.643C99.5494 31.643 98.181 31.3622 96.8991 30.804C95.6171 30.2458 94.4972 29.4896 93.5429 28.5318C92.5886 27.5775 91.8325 26.4576 91.2707 25.1756C90.7125 23.8937 90.4316 22.5289 90.4316 21.0813ZM94.0471 21.0813C94.0471 22.0824 94.2307 23.0222 94.598 23.9009C94.9653 24.7795 95.4623 25.5465 96.0889 26.2019C96.7154 26.8573 97.4536 27.3722 98.2998 27.7503C99.1497 28.1249 100.046 28.3157 100.99 28.3157C101.933 28.3157 102.855 28.1285 103.694 27.7503C104.533 27.3722 105.264 26.8573 105.891 26.2019C106.517 25.5465 107.014 24.7795 107.382 23.9009C107.749 23.0222 107.933 22.0824 107.933 21.0813C107.933 20.0802 107.749 19.1403 107.382 18.2617C107.014 17.383 106.517 16.6196 105.891 15.9607C105.264 15.3053 104.53 14.7903 103.694 14.4122C102.859 14.0341 101.955 13.8469 100.99 13.8469C100.025 13.8469 99.1497 14.0341 98.2998 14.4122C97.45 14.7867 96.7154 15.3053 96.0889 15.9607C95.4623 16.616 94.9653 17.383 94.598 18.2617C94.2307 19.1403 94.0471 20.0802 94.0471 21.0813Z" fill="#F1F0EC"/>
<path d="M131.795 22.8457C131.795 25.7589 130.988 27.9519 129.379 29.4248C127.769 30.9012 125.526 31.6358 122.652 31.6358C121.226 31.6358 119.948 31.4521 118.821 31.0848C117.693 30.7175 116.739 30.163 115.958 29.4212C115.176 28.6794 114.586 27.7575 114.179 26.6592C113.776 25.5609 113.57 24.2861 113.57 22.8421V10.9552H117.186V22.8421C117.186 24.5778 117.629 25.921 118.518 26.8752C119.404 27.8295 120.783 28.3084 122.656 28.3084C124.528 28.3084 125.915 27.8295 126.822 26.8752C127.729 25.921 128.183 24.5742 128.183 22.8421V10.9552H131.799V22.8421L131.795 22.8457Z" fill="#F1F0EC"/>
<path d="M134.395 10.9589H140.297C141.744 10.9589 143.062 11.2145 144.258 11.7259C145.453 12.2372 146.476 12.9394 147.322 13.8361C148.172 14.7327 148.827 15.8022 149.288 17.0482C149.749 18.2941 149.983 19.6373 149.983 21.0813C149.983 22.5253 149.753 23.8721 149.288 25.1144C148.824 26.3568 148.168 27.4299 147.322 28.3265C146.472 29.2232 145.453 29.929 144.258 30.4367C143.062 30.9481 141.741 31.2037 140.297 31.2037H134.395V10.9589ZM137.866 28.024H140.297C141.262 28.024 142.119 27.8512 142.871 27.5019C143.624 27.1562 144.261 26.6737 144.78 26.0543C145.302 25.4385 145.694 24.7039 145.965 23.8577C146.235 23.0078 146.368 22.0824 146.368 21.0813C146.368 20.0802 146.231 19.1548 145.965 18.3049C145.694 17.4551 145.298 16.7241 144.78 16.1083C144.258 15.4925 143.624 15.01 142.871 14.6607C142.119 14.315 141.262 14.1386 140.297 14.1386H137.866V28.0204V28.024Z" fill="#F1F0EC"/>
<path d="M97.1734 44.3689C97.1734 46.2198 97.0042 47.8655 96.6657 49.2987C96.3272 50.7355 95.7942 51.949 95.0596 52.9429C94.325 53.9368 93.3815 54.6894 92.2256 55.2007C91.0697 55.7121 89.6617 55.9677 88.0017 55.9677C86.6513 55.9677 85.3945 55.7013 84.2278 55.1719C83.0611 54.6426 82.0492 53.908 81.1922 52.9753C80.3351 52.039 79.6653 50.9263 79.1828 49.6336C78.7003 48.3408 78.459 46.9328 78.459 45.4096C78.459 43.8864 78.7111 42.536 79.2116 41.2432C79.7122 39.9505 80.4107 38.8342 81.3074 37.8871C82.204 36.9436 83.2771 36.1982 84.5339 35.6617C85.787 35.1215 87.1662 34.8514 88.6714 34.8514C89.424 34.8514 90.0902 34.8983 90.6664 34.9955C91.2462 35.0927 91.7467 35.2079 92.1716 35.3412C92.5966 35.478 92.9531 35.6149 93.2411 35.7625C93.5292 35.9065 93.7705 36.0182 93.9649 36.0938V39.7668C93.8317 39.6336 93.612 39.4715 93.3131 39.2879C93.0143 39.1042 92.6434 38.9314 92.2004 38.7657C91.7575 38.6037 91.2462 38.4633 90.6664 38.3444C90.0866 38.2292 89.4313 38.1716 88.7003 38.1716C87.6992 38.1716 86.7845 38.3552 85.9671 38.7225C85.146 39.0898 84.4475 39.5904 83.8713 40.2278C83.2915 40.8651 82.8486 41.6213 82.539 42.5C82.2293 43.3786 82.078 44.3365 82.078 45.3772C82.078 46.4179 82.2257 47.4154 82.5281 48.312C82.827 49.2087 83.2447 49.9757 83.7849 50.6131C84.325 51.2504 84.9552 51.7474 85.679 52.1039C86.4028 52.4604 87.1986 52.6404 88.0665 52.6404C88.7399 52.6404 89.3881 52.5684 90.0038 52.4244C90.6196 52.2803 91.1742 52.021 91.6675 51.6429C92.1608 51.2684 92.5893 50.7463 92.953 50.0801C93.3203 49.4139 93.5904 48.5713 93.7633 47.5486H87.2851V44.3653H97.177L97.1734 44.3689Z" fill="#F1F0EC"/>
<path d="M99.4863 35.2872H105.27C106.483 35.2872 107.571 35.442 108.525 35.7481C109.479 36.0578 110.289 36.4827 110.956 37.0193C111.622 37.5594 112.133 38.2004 112.49 38.9422C112.846 39.684 113.026 40.4906 113.026 41.3585C113.026 42.8061 112.565 44.052 111.636 45.1035C110.711 46.155 109.4 46.8644 107.704 47.2281L112.853 55.5284H108.835L103.833 47.4586H102.965V55.5284H99.4935V35.2836L99.4863 35.2872ZM102.958 44.2825H105.097C106.544 44.2825 107.621 44.0088 108.338 43.4579C109.051 42.9069 109.407 42.2083 109.407 41.3621C109.407 40.5158 109.051 39.8208 108.338 39.2807C107.625 38.7405 106.544 38.4705 105.097 38.4705H102.958V44.2825Z" fill="#F1F0EC"/>
<path d="M114.758 45.4133C114.758 43.9657 115.039 42.6045 115.597 41.3225C116.155 40.0405 116.911 38.9206 117.869 37.9664C118.823 37.0121 119.943 36.2559 121.225 35.6941C122.507 35.136 123.872 34.8551 125.32 34.8551C126.767 34.8551 128.128 35.136 129.41 35.6941C130.692 36.2523 131.812 37.0085 132.766 37.9664C133.721 38.9206 134.477 40.0405 135.039 41.3225C135.597 42.6045 135.878 43.9693 135.878 45.4133C135.878 46.8573 135.597 48.2256 135.039 49.5076C134.481 50.7896 133.724 51.9095 132.766 52.8637C131.812 53.818 130.692 54.5742 129.41 55.136C128.128 55.6941 126.764 55.975 125.32 55.975C123.876 55.975 122.507 55.6941 121.225 55.136C119.943 54.5778 118.823 53.8216 117.869 52.8637C116.915 51.9059 116.159 50.7896 115.597 49.5076C115.039 48.2256 114.758 46.8609 114.758 45.4133ZM118.373 45.4133C118.373 46.4143 118.557 47.3578 118.924 48.2328C119.291 49.1115 119.788 49.8785 120.415 50.5339C121.042 51.1893 121.78 51.7042 122.626 52.0823C123.476 52.4568 124.372 52.6477 125.316 52.6477C126.259 52.6477 127.181 52.4604 128.02 52.0823C128.859 51.7042 129.59 51.1893 130.217 50.5339C130.843 49.8785 131.34 49.1115 131.708 48.2328C132.075 47.3542 132.259 46.4143 132.259 45.4133C132.259 44.4122 132.075 43.4723 131.708 42.5937C131.34 41.715 130.843 40.9516 130.217 40.2926C129.59 39.6372 128.856 39.1223 128.02 38.7442C127.181 38.3697 126.281 38.1788 125.316 38.1788C124.351 38.1788 123.476 38.3661 122.626 38.7442C121.776 39.1187 121.042 39.6372 120.415 40.2926C119.788 40.948 119.291 41.715 118.924 42.5937C118.557 43.4723 118.373 44.4122 118.373 45.4133Z" fill="#F1F0EC"/>
<path d="M156.117 47.1777C156.117 50.091 155.311 52.284 153.701 53.7568C152.091 55.2332 149.848 55.9678 146.974 55.9678C145.548 55.9678 144.27 55.7842 143.143 55.4169C142.016 55.0495 141.061 54.495 140.28 53.7532C139.499 53.0114 138.908 52.0895 138.501 50.9912C138.098 49.8929 137.893 48.6181 137.893 47.1741V35.2872H141.508V47.1741C141.508 48.9098 141.951 50.253 142.84 51.2073C143.726 52.1615 145.105 52.6405 146.978 52.6405C148.85 52.6405 150.237 52.1615 151.144 51.2073C152.052 50.253 152.505 48.9062 152.505 47.1741V35.2872H156.121V47.1741L156.117 47.1777Z" fill="#F1F0EC"/>
<path d="M158.721 35.2872H162.192V55.5321H158.721V35.2872ZM165.519 35.2872L170.87 55.5321H167.543L162.192 35.2872H165.519ZM170.87 35.2872H174.342V55.5321H170.87V35.2872Z" fill="#F1F0EC"/>
<path d="M177.229 35.2872H183.131C184.578 35.2872 185.896 35.5429 187.092 36.0542C188.287 36.5656 189.31 37.2678 190.156 38.1644C191.006 39.0611 191.661 40.1306 192.122 41.3765C192.583 42.6189 192.817 43.9657 192.817 45.4097C192.817 46.8537 192.587 48.2004 192.122 49.4428C191.661 50.6851 191.002 51.7582 190.156 52.6549C189.306 53.5515 188.287 54.2573 187.092 54.7651C185.896 55.2764 184.575 55.5321 183.131 55.5321H177.229V35.2872ZM180.7 52.3524H183.131C184.096 52.3524 184.953 52.1796 185.705 51.8303C186.458 51.4846 187.095 51.002 187.614 50.3826C188.136 49.7669 188.528 49.0323 188.799 48.186C189.069 47.3362 189.202 46.4107 189.202 45.4097C189.202 44.4086 189.065 43.4831 188.799 42.6333C188.528 41.7834 188.132 41.0524 187.614 40.4367C187.092 39.8209 186.458 39.3384 185.705 38.9891C184.953 38.6434 184.096 38.4669 183.131 38.4669H180.7V52.3488V52.3524Z" fill="#F1F0EC"/>
<path d="M201.039 43.6487C201.982 44.1312 202.803 44.603 203.498 45.0675C204.193 45.532 204.766 46.0254 205.22 46.5583C205.673 47.0877 206.008 47.6674 206.231 48.294C206.451 48.9206 206.563 49.6372 206.563 50.4474C206.563 51.2576 206.411 51.9418 206.113 52.6152C205.814 53.2886 205.382 53.8792 204.813 54.3797C204.244 54.8802 203.545 55.2727 202.717 55.55C201.889 55.8309 200.942 55.9677 199.883 55.9677C199.13 55.9677 198.471 55.9209 197.902 55.8237C197.333 55.7265 196.833 55.6112 196.397 55.478C195.965 55.3448 195.598 55.2043 195.299 55.0603C195 54.9163 194.755 54.8046 194.561 54.729V51.056C194.715 51.1928 194.935 51.3513 195.227 51.5349C195.515 51.7186 195.886 51.8914 196.339 52.057C196.793 52.2227 197.333 52.3595 197.96 52.4748C198.586 52.59 199.303 52.6476 200.113 52.6476C201.154 52.6476 201.935 52.446 202.458 52.039C202.98 51.6321 203.239 51.1136 203.239 50.4762C203.239 50.0909 203.124 49.7344 202.893 49.4067C202.663 49.079 202.371 48.7693 202.025 48.4812C201.68 48.1932 201.302 47.9303 200.898 47.6998C200.495 47.4694 200.117 47.2569 199.771 47.0625C198.943 46.5979 198.216 46.1406 197.589 45.6869C196.962 45.2332 196.437 44.7506 196.012 44.2393C195.587 43.7279 195.263 43.1698 195.043 42.5612C194.82 41.9526 194.712 41.254 194.712 40.4654C194.712 39.6768 194.845 38.9098 195.115 38.222C195.385 37.5378 195.785 36.9436 196.314 36.4431C196.844 35.9426 197.499 35.55 198.28 35.2728C199.062 34.9919 199.962 34.8514 200.985 34.8514C201.543 34.8514 202.054 34.8983 202.519 34.9955C202.98 35.0927 203.401 35.2079 203.776 35.3412C204.15 35.478 204.478 35.6149 204.759 35.7625C205.039 35.9065 205.274 36.0182 205.468 36.0938V39.7668C205.335 39.6336 205.137 39.4715 204.874 39.2879C204.615 39.1042 204.294 38.9314 203.92 38.7657C203.545 38.6037 203.113 38.4633 202.634 38.3444C202.151 38.2292 201.604 38.1716 200.985 38.1716C199.962 38.1716 199.217 38.3804 198.741 38.7945C198.27 39.2087 198.032 39.7056 198.032 40.2854C198.032 41.038 198.298 41.6609 198.828 42.1507C199.357 42.6404 200.095 43.1374 201.039 43.6415V43.6487Z" fill="#F1F0EC"/>
</svg>
