<svg width="112" height="110" viewBox="0 0 112 110" fill="none" xmlns="http://www.w3.org/2000/svg">
<path d="M42.3228 101.424C44.0317 81.1064 46.8578 61.8033 53.0361 43.1218C55.3036 36.2839 58.2613 29.6424 61.3176 23.0989C64.0123 17.3407 68.0216 12.4004 72.9182 8.24537C79.3922 2.74889 86.852 -0.228367 95.4292 0.0660873C106.438 0.458693 113.307 8.70341 111.795 19.5982C111.105 24.6039 109.232 29.217 106.208 33.1104C100.359 40.6353 94.6077 48.3565 88.0022 55.1944C76.073 67.5288 65.0639 80.5829 54.8107 94.2914C52.1488 97.8575 49.2897 101.326 48.7639 106.037C48.6653 106.92 48.3038 107.967 47.6794 108.523C46.825 109.243 45.5433 110.094 44.6232 109.93C43.7359 109.767 42.5857 108.425 42.4542 107.476C42.1256 105.219 42.3556 102.896 42.3556 101.358L42.3228 101.424Z" fill="#FBEF39"/>
<path d="M34.4356 47.0806C33.0225 54.3111 31.6094 61.5416 30.262 68.772C28.6189 77.6711 26.9757 86.6029 25.4969 95.5346C25.0697 98.1847 24.4782 100.933 26.0227 103.616C26.5157 104.466 26.4828 106.397 25.9241 106.855C25.0368 107.542 23.0979 107.967 22.2763 107.444C18.7929 105.219 14.685 103.223 12.4175 100.05C2.69002 86.4393 -2.10795 71.2913 0.882581 54.442C2.16424 47.2115 6.40352 41.5187 12.0888 36.9056C14.915 34.6154 18.1356 33.2413 21.8163 33.1104C28.4217 32.8814 32.6939 36.3494 33.6798 42.8601C33.877 44.2342 33.9427 45.6083 34.0413 46.9825C34.1727 46.9825 34.3042 47.0479 34.4356 47.0806Z" fill="#FBEF39"/>
<path d="M16.0616 58.8587C17.4747 69.7862 18.6249 80.7137 20.3667 91.5758C21.0239 95.5673 22.9957 99.3624 24.4088 103.223C24.6717 103.943 25.329 104.597 25.329 105.284C25.329 106.069 24.9675 107.051 24.4088 107.542C24.0802 107.836 22.7328 107.673 22.4042 107.247C21.4183 106.102 20.4324 104.826 19.9723 103.452C19.0522 100.54 18.2306 97.5303 17.9019 94.5203C16.8503 85.2287 15.9631 75.937 15.2072 66.6126C15.01 63.9625 15.4372 61.2797 15.6016 58.5969L16.0288 58.7932L16.0616 58.8587Z" fill="#FBEF39"/>
</svg>
