<svg width="44" height="29" viewBox="0 0 44 29" fill="none" xmlns="http://www.w3.org/2000/svg">
<path d="M35.1349 28.9538C33.6981 28.9538 32.3697 28.7234 31.1497 28.2625C29.9569 27.8016 28.9267 27.1374 28.0592 26.2699C27.1916 25.3752 26.5139 24.3044 26.0259 23.0573C25.5379 21.8102 25.2939 20.4005 25.2939 18.8281C25.2939 15.2766 26.5003 11.8879 28.9131 8.66174C31.3531 5.4085 34.8909 2.52126 39.5268 0L44 6.38447C42.78 7.03512 41.6956 7.67221 40.7468 8.29575C39.825 8.91929 39.0117 9.55638 38.3068 10.207C37.6291 10.8577 37.0327 11.5354 36.5176 12.2403C36.0296 12.9181 35.5823 13.65 35.1756 14.4362C36.504 14.4362 37.6969 14.626 38.7542 15.0055C39.8386 15.3851 40.7603 15.9137 41.5194 16.5915C42.3056 17.2421 42.902 18.0148 43.3087 18.9094C43.7425 19.777 43.9593 20.7123 43.9593 21.7153C43.9593 22.7184 43.7425 23.6673 43.3087 24.5619C42.902 25.4295 42.3056 26.1885 41.5194 26.8392C40.7603 27.4898 39.8386 28.0049 38.7542 28.3845C37.6697 28.764 36.4633 28.9538 35.1349 28.9538ZM9.84103 28.9538C8.40419 28.9538 7.07579 28.7234 5.85582 28.2625C4.66297 27.8016 3.63278 27.1374 2.76525 26.2699C1.89772 25.3752 1.21996 24.3044 0.731978 23.0573C0.243993 21.8102 0 20.4005 0 18.8281C0 15.2766 1.20641 11.8879 3.61922 8.66174C6.05915 5.4085 9.59704 2.52126 14.2329 0L18.7061 6.38447C17.4861 7.03512 16.4017 7.67221 15.4529 8.29575C14.5311 8.91929 13.7178 9.55638 13.0129 10.207C12.3352 10.8577 11.7388 11.5354 11.2237 12.2403C10.7357 12.9181 10.2884 13.65 9.8817 14.4362C11.2101 14.4362 12.403 14.626 13.4603 15.0055C14.5447 15.3851 15.4664 15.9137 16.2255 16.5915C17.0117 17.2421 17.6081 18.0148 18.0148 18.9094C18.4486 19.777 18.6654 20.7123 18.6654 21.7153C18.6654 22.7184 18.4486 23.6673 18.0148 24.5619C17.6081 25.4295 17.0117 26.1885 16.2255 26.8392C15.4664 27.4898 14.5447 28.0049 13.4603 28.3845C12.3758 28.764 11.1694 28.9538 9.84103 28.9538Z" fill="#FBEF39"/>
</svg>
