<svg width="174" height="32" viewBox="0 0 174 32" fill="none" xmlns="http://www.w3.org/2000/svg">
<path d="M20.332 1.59777C17.1809 2.26757 10.9087 3.87194 7.98145 5.20896C4.4403 6.83066 -1.03693 9.91833 1.7169 11.8227C2.77669 12.5546 7.89233 12.5912 9.18064 12.641C11.586 12.7335 15.9096 12.5382 18.315 12.6307C19.1834 12.6625 20.1089 12.7144 20.8169 13.2199C22.9408 14.7325 22.0126 19.311 24.6065 19.5777C27.1555 19.8406 27.4391 15.1679 29.9345 14.5833C32.4624 13.9903 33.7913 20.5739 36.3017 21.2242C38.1549 21.703 38.4562 14.3603 41.4683 14.3435C44.4804 14.3266 44.1119 18.3925 45.9542 18.3822C47.7965 18.3719 48.4652 14.769 51.6123 14.837C56.3125 14.937 64.1734 16.0792 68.6849 17.4031C72.5512 18.5391 76.7485 20.5373 80.3745 18.7888C82.0412 17.9846 83.2882 16.4777 84.9508 15.6694C86.7272 14.8035 90.2059 17.3194 92.1829 17.3491C95.6479 17.403 97.7008 14.9622 101.166 15.0162C102.727 15.0401 104.591 15.2416 105.316 16.6234C105.617 17.1965 106.378 20.0087 106.728 20.553C107.892 22.3766 109.902 18.8844 111.841 17.9238C115.259 16.2335 119.276 16.4964 123.08 16.793C125.641 16.9947 128.435 17.3011 130.239 19.1334C131.395 20.309 132.685 22.2134 134.161 21.4755C135.12 20.9974 135.357 19.5816 136.357 19.1929C137.695 18.6718 138.781 20.3532 139.241 21.7121C140.032 24.0432 140.824 26.3784 141.615 28.7096C141.964 29.7388 142.635 30.9864 143.714 30.854C144.729 30.7302 145.121 29.4929 145.291 28.4893C145.76 25.6864 144.461 20.0932 146.699 20.0807C148.937 20.0681 149.287 24.3705 151.658 24.2309C154.527 24.0599 152.204 16.1858 154.397 16.1735C156.59 16.1612 154.431 22.2018 157.17 22.1865C159.909 22.1711 160.801 16.9162 164.528 15.0204C165.272 14.6412 172.259 13.4649 172.737 12.7815C174.273 10.5759 168.401 7.12379 166.159 5.6445C162.178 3.01327 157.382 0.333619 152.891 1.94025C150.381 2.8388 148.408 4.97753 145.819 5.61158C139.913 7.05901 134.204 0.157609 128.373 1.88179C127.132 2.24743 126.027 2.9873 124.786 3.35293C120.351 4.64948 115.862 0.883878 111.254 1.28058C108.969 1.47679 106.893 2.68676 104.654 3.18434C99.2882 4.37603 93.8871 1.39406 88.3879 1.27402C79.5581 1.08294 71.2015 8.24647 62.6539 6.02802C59.3312 5.16619 56.339 2.92073 52.9069 2.90325C50.0658 2.89062 47.4616 4.4174 44.6809 4.99953C36.575 6.69568 28.505 0.235477 20.3361 1.60182L20.332 1.59777Z" fill="white"/>
<mask id="mask0_696_9823" style="mask-type:luminance" maskUnits="userSpaceOnUse" x="0" y="1" width="173" height="30">
<path d="M20.332 1.59777C17.1809 2.26757 10.9087 3.87194 7.98145 5.20896C4.4403 6.83066 -1.03693 9.91833 1.7169 11.8227C2.77669 12.5546 7.89233 12.5912 9.18064 12.641C11.586 12.7335 15.9096 12.5382 18.315 12.6307C19.1834 12.6625 20.1089 12.7144 20.8169 13.2199C22.9408 14.7325 22.0126 19.311 24.6065 19.5777C27.1555 19.8406 27.4391 15.1679 29.9345 14.5833C32.4624 13.9903 33.7913 20.5739 36.3017 21.2242C38.1549 21.703 38.4562 14.3603 41.4683 14.3435C44.4804 14.3266 44.1119 18.3925 45.9542 18.3822C47.7965 18.3719 48.4652 14.769 51.6123 14.837C56.3125 14.937 64.1734 16.0792 68.6849 17.4031C72.5512 18.5391 76.7485 20.5373 80.3745 18.7888C82.0412 17.9846 83.2882 16.4777 84.9508 15.6694C86.7272 14.8035 90.2059 17.3194 92.1829 17.3491C95.6479 17.403 97.7008 14.9622 101.166 15.0162C102.727 15.0401 104.591 15.2416 105.316 16.6234C105.617 17.1965 106.378 20.0087 106.728 20.553C107.892 22.3766 109.902 18.8844 111.841 17.9238C115.259 16.2335 119.276 16.4964 123.08 16.793C125.641 16.9947 128.435 17.3011 130.239 19.1334C131.395 20.309 132.685 22.2134 134.161 21.4755C135.12 20.9974 135.357 19.5816 136.357 19.1929C137.695 18.6718 138.781 20.3532 139.241 21.7121C140.032 24.0432 140.824 26.3784 141.615 28.7096C141.964 29.7388 142.635 30.9864 143.714 30.854C144.729 30.7302 145.121 29.4929 145.291 28.4893C145.76 25.6864 144.461 20.0932 146.699 20.0807C148.937 20.0681 149.287 24.3705 151.658 24.2309C154.527 24.0599 152.204 16.1858 154.397 16.1735C156.59 16.1612 154.431 22.2018 157.17 22.1865C159.909 22.1711 160.801 16.9162 164.528 15.0204C165.272 14.6412 172.259 13.4649 172.737 12.7815C174.273 10.5759 168.401 7.12379 166.159 5.6445C162.178 3.01327 157.382 0.333619 152.891 1.94025C150.381 2.8388 148.408 4.97753 145.819 5.61158C139.913 7.05901 134.204 0.157609 128.373 1.88179C127.132 2.24743 126.027 2.9873 124.786 3.35293C120.351 4.64948 115.862 0.883878 111.254 1.28058C108.969 1.47679 106.893 2.68676 104.654 3.18434C99.2882 4.37603 93.8871 1.39406 88.3879 1.27402C79.5581 1.08294 71.2015 8.24647 62.6539 6.02802C59.3312 5.16619 56.339 2.92073 52.9069 2.90325C50.0658 2.89062 47.4616 4.4174 44.6809 4.99953C36.575 6.69568 28.505 0.235477 20.3361 1.60182L20.332 1.59777Z" fill="white"/>
</mask>
<g mask="url(#mask0_696_9823)">
<path opacity="0.3" d="M2.24965 6.61817C-0.519984 7.7179 -2.48278 12.4204 1.14842 13.7778C2.68015 14.3521 4.53464 14.3336 6.1492 14.4142C8.57107 14.5392 11.0003 14.5175 13.4258 14.5691C14.4612 14.5919 15.4927 14.6391 16.5283 14.6822C17.3967 14.7181 19.4612 14.3601 20.0598 14.9845C20.5641 15.5115 20.6247 16.8685 20.8854 17.564C21.2288 18.4711 21.6659 19.3776 22.3668 20.0666C23.748 21.4284 25.7336 21.5274 27.198 20.2678C27.8795 19.6811 28.3927 18.8753 28.8367 18.0983C29.2726 17.3378 29.999 15.2998 30.9679 16.5375C31.8505 17.6657 31.8982 19.622 32.639 20.9018C33.5033 22.3928 34.9192 23.3917 36.695 23.1535C38.5401 22.9068 39.6246 21.4904 40.2921 19.8725C40.5576 19.2352 40.7025 18.1909 41.1602 17.6707C41.8164 16.9211 42.2899 17.7785 43.035 18.3531C44.7011 19.64 46.4433 19.9441 48.279 18.7559C49.4446 17.9993 50.357 17.1586 51.7118 16.7027C53.0218 16.2633 54.4029 16.1374 55.7807 16.1704C61.6959 16.3248 66.8739 19.4915 72.5065 20.8499C75.1962 21.4992 78.12 21.7233 80.7723 20.7751C83.0828 19.951 84.5134 17.0124 87.0745 17.263C89.7091 17.5172 92.0974 18.9223 94.8069 18.7441C97.3169 18.5834 100.009 16.8278 102.502 17.1807C104.684 17.4905 105.048 20.5944 106.811 21.7177C108.902 23.0552 110.782 21.7974 112.708 20.845C115.517 19.4557 118.734 18.8222 121.857 19.0452C123.358 19.155 125.214 19.3933 126.567 20.0786C127.466 20.5342 128.176 21.4188 128.905 22.0954C130.331 23.4162 132.015 24.8864 134.111 24.3856C134.966 24.181 135.689 23.6879 136.329 23.1014C136.621 22.8348 136.95 22.5314 137.18 22.2122C137.229 22.1426 137.574 21.8757 137.574 21.7983C137.573 21.6678 136.945 21.6632 136.889 21.8306C136.905 21.7776 137.886 23.7979 137.949 24.038C138.203 25.0434 138.352 26.0697 138.589 27.0792C139.045 29.0128 139.837 30.7651 141.405 32.0403C142.904 33.2629 145.2 34.1671 146.55 32.2194C147.367 31.0409 147.947 29.1586 147.935 27.7321C147.928 26.3422 147.541 24.9503 147.663 23.5597C147.679 23.3762 147.879 22.7107 147.837 22.5724C147.869 22.4703 147.905 22.3682 147.937 22.2702C147.452 22.2484 146.971 22.2267 146.486 22.2049C146.418 22.4254 147.451 23.5039 147.623 23.6863C149.305 25.4785 151.699 25.7994 153.507 23.9509C154.224 23.2173 154.651 22.3386 154.927 21.3547C155.043 20.9383 155.727 18.6967 155.522 18.38C155.39 18.1728 153.618 18.2969 153.642 18.256C153.581 18.3582 153.783 18.8014 153.825 18.9642C153.933 19.3834 154.021 19.7987 154.17 20.2054C154.605 21.385 155.363 22.0982 156.503 22.638C161.591 25.0429 162.209 18.1917 165.719 16.7292C168.732 15.4732 173.206 15.2199 173.84 11.234C174.403 7.69289 170.21 4.25172 167.835 2.25145C165.889 0.607464 163.881 -0.714159 161.511 -1.65062C159.477 -2.45852 158.13 0.883217 160.047 1.87927C162.145 2.96807 164.093 4.3634 165.842 5.94734C167.03 7.02492 169.097 8.62339 169.64 10.1896C169.897 10.93 169.559 11.0827 168.673 11.4708C167.01 12.2016 165.181 12.4686 163.531 13.2523C161.986 13.9824 160.851 15.0159 159.97 16.476C159.619 17.0608 159.271 18.2489 158.706 18.6475C157.704 19.3541 157.888 18.114 157.614 17.2351C157.116 15.6319 155.915 14.3873 154.128 14.7315C151.99 15.1389 151.545 17.2813 151.221 19.0888C151.166 19.3907 151.028 20.8915 150.69 20.9627C150.486 21.0046 149.055 18.836 148.651 18.614C146.566 17.4722 144.558 19.3299 143.953 21.2408C143.212 23.5765 144.256 25.7636 143.967 28.0518C143.928 28.3496 143.306 29.368 143.37 29.8201C143.329 29.9059 143.285 29.9958 143.245 30.0817C144.666 29.8536 144.966 29.5707 144.145 29.237C143.812 28.819 143.334 28.6097 143.038 28.1304C141.22 25.1814 142.334 20.9727 139.146 18.7243C137.73 17.7254 136.263 17.8233 134.974 18.9759C134.531 19.3697 134.003 20.3427 133.454 20.5374C132.787 20.7775 131.904 19.6534 131.408 19.1874C130.023 17.8949 128.811 16.7849 126.973 16.1878C124.343 15.3303 121.46 14.9959 118.706 15.3088C115.989 15.6175 113.308 16.4966 110.877 17.7412C110.259 18.0585 109.298 18.9361 108.616 18.6302C107.88 18.3001 107.275 16.51 106.77 15.8688C103.486 11.7092 98.8864 14.9836 94.7881 15.3815C92.2379 15.6322 89.7962 14.1377 87.2759 13.9154C84.878 13.7046 83.3427 14.667 81.6273 16.2459C77.341 20.191 70.8785 16.9175 66.2509 15.2314C61.6887 13.5695 56.5528 12.0982 51.6885 13.279C50.5895 13.546 49.4914 13.976 48.5163 14.548C47.8826 14.9225 46.8214 16.135 46.1493 16.2162C45.2328 16.3273 44.4564 15.2392 43.773 14.7662C43.012 14.2446 42.1785 13.8947 41.2414 13.9692C39.681 14.0961 38.7293 15.1898 38.105 16.5302C37.7425 17.3067 37.1725 20.3465 35.9063 19.8726C34.7871 19.4509 34.4643 16.3998 33.9818 15.3957C33.2107 13.7981 31.639 12.6412 29.798 12.8797C27.2726 13.2036 26.8743 15.5944 25.5714 17.3014C24.7095 18.4312 24.2724 17.5329 23.8547 16.4591C23.4784 15.4871 23.4232 14.3746 22.933 13.448C21.899 11.4932 19.7838 11.5458 17.8558 11.5444C15.5244 11.5493 13.188 11.4034 10.8523 11.3798C8.56549 11.3559 6.26681 11.3932 3.98334 11.2348C3.56741 11.2045 2.31238 11.2727 1.98445 10.9443C1.32449 10.2796 2.53201 8.27554 2.98209 7.85319C3.50107 7.36116 2.95721 6.32074 2.24548 6.60189L2.24965 6.61817Z" fill="#336EC2"/>
<path opacity="0.15" d="M175.277 6.86092C174.177 3.9038 172.052 1.63718 169.637 -0.2895C169.088 -0.824465 168.461 -1.29786 167.758 -1.69337C167.664 -1.75806 167.57 -1.82683 167.476 -1.89152C167.472 -1.87927 167.464 -1.86292 167.46 -1.85067C162.836 -4.26227 157.697 -0.565075 161.989 2.43125C162.157 2.54852 161.364 2.14128 161.577 2.29498C161.618 2.40072 164.055 4.47402 164.084 6.01867C164.079 6.58527 164.067 6.71169 163.712 7.21911C161.356 11.614 155.036 9.17932 151.443 11.6654C149.85 11.8333 149.263 15.3746 147.674 15.5262C146.012 15.6863 143.89 12.3802 142.318 11.9651C139.204 11.147 136.971 14.8646 133.972 15.8759C130.941 16.8997 128.885 12.2115 126.003 11.3309C122.993 10.4102 119.916 10.4315 116.829 10.8605C113.917 11.2681 110.955 12.2181 107.995 12.0797C105.039 11.9414 102.618 9.72535 99.6521 10.7976C96.8535 11.8078 95.7212 14.1498 92.4024 13.2634C89.1857 12.4092 86.4904 10.7612 83.0781 12.105C80.1091 13.2752 79.3975 14.2982 76.0877 13.5545C73.3818 12.9419 70.6959 12.2436 67.9861 11.6514C62.4236 10.4394 56.538 9.7427 50.9795 11.4165C49.3518 11.9065 47.9265 12.8561 46.3439 13.403C44.5824 14.012 42.4204 12.2469 40.4976 12.4452C38.5789 12.6394 37.3469 15.3731 36.0581 15.2254C34.6183 15.0623 34.053 11.6416 30.6292 11.6608C27.2055 11.6799 26.4005 14.9738 25.164 14.7076C24.2254 14.505 23.8795 11.6904 23.2243 11.156C21.7055 9.24468 17.4569 8.99536 14.1699 9.42544C11.8564 9.72778 7.76033 9.79146 5.58665 8.85798C2.71431 7.62678 6.57358 5.31038 4.05147 4.02423C1.72963 2.83479 -0.189573 6.58734 -0.236783 8.34846C-0.394733 14.3574 6.65375 14.5381 10.8964 14.4451C13.5577 14.3853 16.6635 14.3598 18.8338 16.1533C21.2417 18.1412 22.4645 21.061 26.2329 19.976C27.181 19.7017 29.1857 18.8467 29.8007 18.024C29.8776 17.9217 29.9629 17.8764 30.0321 17.8515C30.282 18.0906 30.5043 18.4807 30.6768 18.708C33.4977 22.3973 38.6429 24.0804 41.272 18.9951C41.4232 19.0514 41.5702 19.1117 41.6315 19.1358C44.2374 20.1035 46.0009 20.5746 48.7184 19.6138C51.1917 18.7358 53.3217 17.6967 55.9908 17.5636C61.2311 17.306 66.4861 18.9356 71.4787 20.3016C73.9812 20.9846 76.692 21.7684 79.3163 21.6436C81.6676 21.5327 83.1193 20.1998 85.2561 19.6417C87.4784 19.0627 89.37 20.5765 91.4966 21.0986C94.2476 21.7761 96.6615 21.2001 99.2065 20.0242C99.552 19.8633 99.914 19.7105 100.272 19.5454C102.536 23.6251 106.813 25.9327 111.371 23.9792C113.16 23.211 114.423 21.5287 116.22 20.8543C118.604 19.9605 120.874 21.4193 123.019 22.3162C123.922 22.6943 124.813 23.0236 125.707 23.3039C127.01 27.4541 133.594 27.7271 137.012 27.3533C137.313 27.319 137.623 27.2806 137.937 27.2463C138.429 28.4867 138.88 29.7396 139.819 30.7656C143.227 34.4924 149.328 32.8808 150.035 28.0998C153.523 26.4987 159.46 24.6802 160.186 20.2944C168.067 21.4527 178.878 16.554 175.273 6.86502L175.277 6.86092ZM35.3175 16.1793C35.2973 16.212 35.2811 16.2366 35.2852 16.2406C35.2769 16.2162 35.2931 16.1957 35.3175 16.1793ZM36.4538 16.0099C36.7348 15.9716 36.7096 16.5628 36.4538 16.0099ZM40.8189 18.8672C40.8188 18.8469 40.8963 18.8668 40.9984 18.8948C40.8969 18.9728 40.8196 18.9936 40.8189 18.8672Z" fill="#336EC2"/>
<g opacity="0.15">
<path d="M27.051 8.81942C27.4219 8.81734 27.4186 8.23856 27.0477 8.24063C26.6768 8.24271 26.68 8.82149 27.051 8.81942Z" fill="#336EC2"/>
<path d="M27.5747 5.76804C27.9049 5.76619 27.902 5.25263 27.5718 5.25447C27.2417 5.25632 27.2446 5.76989 27.5747 5.76804Z" fill="#336EC2"/>
<path d="M49.9427 10.7091C50.2688 10.7073 50.2659 10.2019 49.9399 10.2037C49.6138 10.2055 49.6166 10.7109 49.9427 10.7091Z" fill="#336EC2"/>
<path d="M54.458 9.60406C54.6292 9.6031 54.6277 9.33817 54.4565 9.33913C54.2853 9.34008 54.2868 9.60502 54.458 9.60406Z" fill="#336EC2"/>
<path d="M84.8672 7.4159C85.2585 7.41371 85.2551 6.80232 84.8638 6.80451C84.4725 6.8067 84.4759 7.41809 84.8672 7.4159Z" fill="#336EC2"/>
<path d="M92.5249 4.89925C92.7328 4.89809 92.731 4.57609 92.5231 4.57725C92.3152 4.57842 92.317 4.90041 92.5249 4.89925Z" fill="#336EC2"/>
<path d="M130.483 4.1039C130.646 4.10299 130.645 3.85436 130.482 3.85527C130.319 3.85619 130.32 4.10482 130.483 4.1039Z" fill="#336EC2"/>
<path d="M128.586 5.003C128.582 4.98264 128.573 4.96231 128.569 4.93788C128.498 4.66518 128.083 4.6675 128.015 4.94098C128.011 4.96138 128.003 4.9818 127.999 5.00628C127.875 5.50018 128.715 5.49548 128.586 5.003Z" fill="#336EC2"/>
<path d="M157.751 4.87243C158.04 4.87081 158.038 4.42246 157.748 4.42408C157.459 4.4257 157.461 4.87405 157.751 4.87243Z" fill="#336EC2"/>
<path d="M11.1401 6.68725C11.2991 6.68636 11.2977 6.4418 11.1388 6.44269C10.9798 6.44358 10.9812 6.68814 11.1401 6.68725Z" fill="#336EC2"/>
<path d="M8.26906 7.67734C8.62366 7.67536 8.62056 7.12104 8.26595 7.12302C7.91135 7.12501 7.91445 7.67933 8.26906 7.67734Z" fill="#336EC2"/>
<path d="M73.9207 10.4487C74.259 10.4468 74.2561 9.921 73.9178 9.9229C73.5795 9.92479 73.5824 10.4506 73.9207 10.4487Z" fill="#336EC2"/>
<path d="M69.807 9.89667C70.1086 9.89498 70.106 9.42625 69.8043 9.42793C69.5027 9.42962 69.5053 9.89835 69.807 9.89667Z" fill="#336EC2"/>
<path d="M39.9194 7.52083C40.1273 7.51967 40.1255 7.19767 39.9176 7.19883C39.7098 7.2 39.7116 7.52199 39.9194 7.52083Z" fill="#336EC2"/>
<path d="M109.26 7.45499C109.525 7.45351 109.522 7.04184 109.257 7.04332C108.992 7.0448 108.995 7.45648 109.26 7.45499Z" fill="#336EC2"/>
<path d="M115.832 7.0715C116.007 7.07052 116.006 6.80151 115.831 6.80249C115.655 6.80347 115.657 7.07248 115.832 7.0715Z" fill="#336EC2"/>
<path d="M146.815 9.99647C147.096 9.9949 147.094 9.55877 146.812 9.56034C146.531 9.56192 146.534 9.99804 146.815 9.99647Z" fill="#336EC2"/>
<path d="M90.3458 6.93262C90.8635 6.92972 90.859 6.12677 90.3414 6.12966C89.8237 6.13256 89.8282 6.93551 90.3458 6.93262Z" fill="#336EC2"/>
</g>
<g opacity="0.35">
<path d="M24.0216 6.83172C24.6371 6.82828 24.6317 5.87044 24.0163 5.87388C23.4008 5.87733 23.4062 6.83516 24.0216 6.83172Z" fill="#336EC2"/>
<path d="M51.9917 9.41057C52.2485 9.40913 52.2462 9.00969 51.9895 9.01113C51.7327 9.01257 51.7349 9.412 51.9917 9.41057Z" fill="#336EC2"/>
<path d="M87.5937 5.2206C88.1807 5.21731 88.1756 4.30431 87.5886 4.3076C87.0017 4.31088 87.0068 5.22388 87.5937 5.2206Z" fill="#336EC2"/>
<path d="M160.135 6.0865C160.71 6.08329 160.705 5.19066 160.13 5.19388C159.556 5.19709 159.561 6.08972 160.135 6.0865Z" fill="#336EC2"/>
<path d="M156.804 6.83443C157.142 6.83254 157.139 6.30675 156.801 6.30864C156.462 6.31053 156.465 6.83632 156.804 6.83443Z" fill="#336EC2"/>
<path d="M35.0033 9.79905C35.2804 9.7975 35.278 9.36545 35.0008 9.367C34.7237 9.36855 34.7261 9.8006 35.0033 9.79905Z" fill="#336EC2"/>
<path d="M112.256 4.55676C112.692 4.55432 112.692 3.87362 112.252 3.87608C111.812 3.87855 111.816 4.55922 112.256 4.55676Z" fill="#336EC2"/>
<path d="M133.682 12.7809C133.926 12.7795 133.924 12.4004 133.68 12.4018C133.435 12.4032 133.437 12.7822 133.682 12.7809Z" fill="#336EC2"/>
<path d="M135.86 10.857C136.112 10.8556 136.11 10.4643 135.857 10.4657C135.605 10.4672 135.607 10.8584 135.86 10.857Z" fill="#336EC2"/>
</g>
</g>
</svg>
