<svg width="23" height="23" viewBox="0 0 23 23" fill="none" xmlns="http://www.w3.org/2000/svg">
<path d="M11.5 18.3C13.3035 18.3 15.0331 17.5836 16.3083 16.3083C17.5836 15.0331 18.3 13.3035 18.3 11.5C18.3 9.69653 17.5836 7.96692 16.3083 6.69167C15.0331 5.41643 13.3035 4.7 11.5 4.7C9.69653 4.7 7.96692 5.41643 6.69167 6.69167C5.41643 7.96692 4.7 9.69653 4.7 11.5C4.7 13.3035 5.41643 15.0331 6.69167 16.3083C7.96692 17.5836 9.69653 18.3 11.5 18.3ZM11.5 3C12.6162 3 13.7215 3.21986 14.7528 3.64702C15.7841 4.07419 16.7211 4.70029 17.5104 5.48959C18.2997 6.27889 18.9258 7.21592 19.353 8.24719C19.7801 9.27846 20 10.3838 20 11.5C20 13.7543 19.1045 15.9163 17.5104 17.5104C15.9163 19.1045 13.7543 20 11.5 20C6.7995 20 3 16.175 3 11.5C3 9.24566 3.89553 7.08365 5.48959 5.48959C7.08365 3.89553 9.24566 3 11.5 3ZM11.925 7.25V11.7125L15.75 13.982L15.1125 15.0275L10.65 12.35V7.25H11.925Z" fill="#FBEF39"/>
</svg>
