<svg width="39" height="38" viewBox="0 0 39 38" fill="none" xmlns="http://www.w3.org/2000/svg">
<circle cx="19.3809" cy="19" r="19" fill="#FBEF39"/>
<path d="M24.4623 19.2102C24.3125 19.8092 24.1358 20.4291 24.3784 21.0611C24.2077 21.3756 24.3215 21.717 24.2976 22.0464C24.2676 22.4238 24.3395 22.8072 24.3844 23.1875C24.3904 23.2354 24.5012 23.2923 24.5641 23.3013C24.6749 23.3163 24.7378 23.2894 24.6869 23.4601C24.627 23.6697 24.606 23.9123 24.645 24.125C24.7378 24.6131 24.7827 24.6161 25.1901 24.2987C25.247 24.2537 25.3248 24.2358 25.3907 24.2058C25.3638 24.2747 25.3308 24.3376 25.3099 24.4065C25.2949 24.4514 25.2769 24.5053 25.2829 24.5532C25.2979 24.6521 25.3009 24.7988 25.3578 24.8318C25.4626 24.8887 25.6663 24.9306 25.7232 24.8737C25.9867 24.6041 26.2982 24.4125 26.3162 23.9213C26.3671 22.7982 26.5797 21.6811 26.6516 20.5549C26.7085 19.6834 26.7834 18.8059 26.8792 17.9373C27.002 16.8562 27.0799 15.766 27.2895 14.6878C27.4303 13.954 27.3884 13.1813 27.4183 12.4266C27.4183 12.3667 27.3824 12.3068 27.3644 12.2469C27.3015 12.2918 27.2446 12.3368 27.1757 12.3757C27.1128 12.4146 27.0439 12.4416 26.9781 12.4715C27.002 12.4056 27.0469 12.3427 27.0469 12.2768C27.0469 12.0732 26.9811 11.8815 27.0649 11.6599C27.1428 11.4442 27.008 11.2496 26.7415 11.2346C26.5767 11.2256 26.4689 11.1418 26.5228 10.998C26.6546 10.6386 26.2982 10.6835 26.1664 10.5577C26.0257 10.429 25.834 10.3451 25.6543 10.2612C25.4836 10.1804 25.3099 10.1564 25.1601 10.3241C25.0164 10.4799 24.8606 10.6236 24.7079 10.7764C24.4922 10.998 24.2377 11.007 23.9352 11.0459C22.9229 11.1717 21.8986 11.1537 20.8863 11.3274C19.9758 11.4832 19.0384 11.4922 18.1129 11.573C17.8614 11.597 17.6128 11.6539 17.3612 11.6838C16.5526 11.7857 15.7439 11.9115 14.9293 11.9654C14.492 11.9953 14.2105 12.199 13.9529 12.5045C13.8661 12.6033 13.7613 12.6902 13.6774 12.792C13.6624 12.807 13.7103 12.9208 13.7343 12.9208C13.8661 12.9328 14.0009 12.9417 14.1326 12.9238C14.3213 12.8968 14.3363 12.9897 14.3243 13.1394C14.3153 13.2442 14.3632 13.376 14.3153 13.4539C14.1746 13.6905 14.1386 13.8342 14.492 13.8402C14.5519 13.8402 14.6388 13.9091 14.6717 13.966C14.7137 14.0379 14.7496 14.1577 14.7137 14.2176C14.6508 14.3284 14.522 14.4033 14.4441 14.5051C14.3603 14.6189 14.1147 14.6848 14.2435 14.8675C14.3573 15.0232 14.4771 15.2389 14.7436 15.188C14.9652 15.146 15.1929 15.1101 15.4145 15.0741C15.4624 15.0682 15.5133 15.0771 15.5612 15.0831C15.5493 15.1311 15.5463 15.188 15.5163 15.2239C15.4474 15.3048 15.3666 15.3737 15.2917 15.4485C15.127 15.6252 15.2468 15.6252 15.4025 15.6372C15.6271 15.6582 15.8607 15.766 16.0704 15.736C16.888 15.6132 17.7026 15.4455 18.5173 15.2958C19.305 15.149 20.0956 14.9933 20.8833 14.8465C21.045 14.8166 21.2097 14.8076 21.5122 14.9304C21.5781 14.9963 21.5003 14.9244 21.4284 14.8465C21.4074 14.8256 21.4104 14.7507 21.4284 14.7387C21.5422 14.6609 22.0633 14.7687 22.1472 14.9004C22.1831 14.9603 22.1711 15.0921 22.1262 15.149C22.0603 15.2389 21.9735 15.3916 21.8207 15.2389C21.7638 15.182 21.7069 15.1251 21.5122 14.9304C20.6976 15.3736 20.3322 16.2302 19.6164 16.7723C19.4337 17.3204 18.8916 17.5809 18.6071 18.0332C18.2118 18.6621 17.5918 19.0904 17.1965 19.6834C16.8131 20.2584 16.2531 20.6568 15.8847 21.2108C15.5013 21.7799 14.9772 22.2082 14.5819 22.7473C14.3213 23.0977 13.9949 23.4062 13.7852 23.7715C13.5576 24.1609 13.1982 24.4304 12.9796 24.7928C12.6951 25.269 12.3027 25.6674 12.0451 26.1585C11.9882 26.2634 11.9463 26.4011 11.9553 26.5179C11.9912 26.8773 11.8505 27.2457 12.0362 27.5991C12.0661 27.659 11.9194 27.7998 11.8714 27.9076C11.7427 28.2041 11.8445 28.3718 12.1979 28.3838C12.4794 28.3958 12.4375 28.4677 12.2907 28.6264C12.2698 28.6474 12.3417 28.8091 12.3746 28.8121C12.6262 28.83 12.8748 28.9169 13.1084 28.7013C14.0039 27.8597 14.9353 27.06 15.8158 26.2035C17.0917 24.9635 18.3496 23.6997 19.5925 22.4268C20.6916 21.3037 21.638 20.0338 22.8181 18.9796C23.0876 18.3986 23.5818 18.0062 24.007 17.557C24.0879 17.4761 24.0789 17.3234 24.1418 17.2185C24.1748 17.1616 24.2706 17.1077 24.3275 17.1167C24.3814 17.1227 24.4653 17.2185 24.4623 17.2695C24.4503 17.4731 24.4024 17.6708 24.3814 17.8715C24.3545 18.15 24.3065 18.4076 24.5372 18.6681C24.7199 18.8748 24.3664 18.731 24.3605 18.8149C24.3515 18.9377 24.3904 19.0664 24.4353 19.2132C24.4443 19.2222 24.4264 19.2042 24.4114 19.1892C24.4503 19.1683 24.4892 19.1413 24.5312 19.1353C24.5432 19.1353 24.5641 19.1922 24.5821 19.2222C24.5431 19.2252 24.5012 19.2312 24.4383 19.2102H24.4623ZM17.5439 23.3672C16.7742 24.1369 16.0045 24.9066 15.2348 25.6763C15.1599 25.7512 15.085 25.8261 15.0072 25.898C14.9922 25.9129 14.9383 25.907 14.9323 25.901C14.9173 25.862 14.8964 25.7991 14.9143 25.7812C15.0401 25.6434 15.1779 25.5176 15.3067 25.3828C16.3759 24.1938 17.6697 23.2235 18.5981 21.8937C18.9875 21.3366 19.5416 20.8904 20.0507 20.4232C20.5688 19.947 20.9582 19.3659 21.4134 18.8388C22.1801 17.9523 22.9918 17.0987 23.7794 16.2332C23.8333 16.1793 23.9262 16.1104 23.9202 16.0565C23.8932 15.76 24.1628 15.6702 24.3006 15.4964C24.3365 15.4485 24.4263 15.4425 24.4922 15.4186C24.4623 15.4845 24.4353 15.5533 24.3964 15.6162C24.2856 15.7989 24.5731 16.1523 24.1868 16.1913C23.7585 16.2362 23.9951 16.5387 23.9262 16.7214C23.9172 16.7483 23.8423 16.7693 23.8124 16.7573C23.462 16.6166 23.4979 16.97 23.3721 17.1017C22.872 17.6259 22.3928 18.165 21.9255 18.722C20.7964 20.0668 19.5416 21.3037 18.3346 22.5825C18.077 22.8521 17.8075 23.1096 17.5469 23.3702L17.5439 23.3672ZM12.8418 27.7998C12.8688 27.8088 12.9227 27.8327 12.9826 27.8567C12.9646 27.8986 12.9586 27.9645 12.9257 27.9855C12.8807 28.0124 12.8149 28.0064 12.755 28.0124C12.7729 27.9705 12.7909 27.9226 12.8388 27.8028L12.8418 27.7998ZM24.5252 16.9849C24.5132 16.949 24.5042 16.9101 24.4922 16.8741C24.5162 16.8741 24.5551 16.8651 24.5641 16.8741C24.5851 16.9071 24.5911 16.949 24.603 16.9849C24.5791 16.9849 24.5551 16.9849 24.5252 16.9849Z" fill="black"/>
</svg>
